<svg width="664" height="404" viewBox="0 0 664 404" fill="none" xmlns="http://www.w3.org/2000/svg">
<path d="M572.683 45.5111C561.514 41.3678 556.449 44.8186 552.386 41.3678C548.323 37.9169 563.554 28.9615 533.038 20.0061C533.038 20.0061 531.016 0.710119 489.384 0.0175658C447.752 -0.674987 458.973 19.3135 447.804 24.1375C436.636 28.9615 433.593 21.427 422.424 26.2032C411.255 30.9795 416.338 40.6752 407.21 42.0484C398.082 43.4215 385.875 35.8512 374.706 40.6752C363.538 45.4992 363.538 49.6306 358.472 49.6306C353.407 49.6306 343.24 46.8724 337.155 49.6306C331.069 52.3889 323.946 55.8397 323.946 55.8397H580.739C580.739 55.8397 583.852 49.6426 572.683 45.5111Z" fill="#179177"/>
<path opacity="0.5" d="M572.683 45.5111C561.514 41.3678 556.449 44.8186 552.386 41.3678C548.323 37.9169 563.554 28.9615 533.038 20.0061C533.038 20.0061 531.016 0.710119 489.384 0.0175658C447.752 -0.674987 458.973 19.3135 447.804 24.1375C436.636 28.9615 433.593 21.427 422.424 26.2032C411.255 30.9795 416.338 40.6752 407.21 42.0484C398.082 43.4215 385.875 35.8512 374.706 40.6752C363.538 45.4992 363.538 49.6306 358.472 49.6306C353.407 49.6306 343.24 46.8724 337.155 49.6306C331.069 52.3889 323.946 55.8397 323.946 55.8397H580.739C580.739 55.8397 583.852 49.6426 572.683 45.5111Z" fill="white"/>
<path d="M281.469 200.416C273.625 197.515 270.054 199.927 267.205 197.515C264.356 195.103 275.049 188.798 253.662 182.505C253.662 182.505 252.237 168.953 222.987 168.463C193.738 167.974 201.6 182.016 193.755 185.407C185.911 188.798 183.782 183.473 175.938 186.864C168.093 190.255 171.646 197.025 165.244 197.992C158.842 198.959 150.259 193.634 142.379 197.025C134.499 200.416 134.535 203.318 130.982 203.318C127.429 203.318 120.27 201.383 115.996 203.318C111.722 205.252 106.727 207.676 106.727 207.676H287.168C287.168 207.676 289.314 203.318 281.469 200.416Z" fill="white"/>
<path opacity="0.5" d="M281.469 200.416C273.625 197.515 270.054 199.927 267.205 197.515C264.356 195.103 275.049 188.798 253.662 182.505C253.662 182.505 252.237 168.953 222.987 168.463C193.738 167.974 201.6 182.016 193.755 185.407C185.911 188.798 183.782 183.473 175.938 186.864C168.093 190.255 171.646 197.025 165.244 197.992C158.842 198.959 150.259 193.634 142.379 197.025C134.499 200.416 134.535 203.318 130.982 203.318C127.429 203.318 120.27 201.383 115.996 203.318C111.722 205.252 106.727 207.676 106.727 207.676H287.168C287.168 207.676 289.314 203.318 281.469 200.416Z" fill="white"/>
<path d="M504.475 402.176H615.634C613.506 392.946 604.765 394.57 603.604 380.265C603.023 373.101 612.855 364.145 611.994 354.688C611.29 346.891 599.981 338.903 599.101 329.983C598.31 321.935 607.895 313.004 607.034 304.335C606.137 296.144 594.722 288.275 593.649 279.749C592.664 271.391 602.126 262.424 601.001 254.017C599.875 245.611 588.214 237.886 586.93 229.599C585.646 221.085 594.81 211.915 593.403 203.771C591.925 195.115 579.895 187.64 578.259 179.663C576.5 170.792 584.96 161.311 582.973 153.645C580.528 144.26 567.653 137.465 564.944 130.54C559.896 117.632 560.53 105.202 554.567 104.39C548.218 103.53 546.758 115.722 541.938 129.346C539.511 136.188 526.935 143.125 524.86 152.523C523.189 160.129 532.089 169.383 530.629 178.219C529.327 186.135 517.596 193.741 516.453 202.351C515.38 210.446 524.895 219.366 523.963 227.832C523.048 236.059 511.651 243.904 510.895 252.262C510.138 260.621 519.918 269.361 519.249 277.612C518.563 286.066 507.395 294.054 506.814 302.186C506.216 310.795 516.224 319.476 515.732 327.452C515.186 336.3 504.176 344.396 503.771 352.133C503.279 361.518 513.427 370.175 513.111 377.328C512.442 392.85 501.977 389.615 501.608 402.104L504.475 402.176Z" fill="#179177"/>
<path d="M552.192 129.191V398.689" stroke="black" stroke-miterlimit="10"/>
<path d="M569.553 157.442L551.454 168.057L536.645 154.648" stroke="black" stroke-miterlimit="10"/>
<path d="M569.553 204.357L551.454 214.96L536.645 201.562" stroke="black" stroke-miterlimit="10"/>
<path d="M569.553 248.465L551.454 259.08L536.645 245.671" stroke="black" stroke-miterlimit="10"/>
<path d="M569.553 300.968L551.454 311.571L536.645 298.174" stroke="black" stroke-miterlimit="10"/>
<path d="M569.553 354.02L551.454 364.623L536.645 351.226" stroke="black" stroke-miterlimit="10"/>
<path d="M428.756 402.176H514.571C512.917 395.012 506.181 396.301 505.284 385.268C504.827 379.704 512.407 372.826 511.757 365.519C511.211 359.548 502.487 353.327 501.801 346.414C501.186 340.205 508.643 333.279 507.922 326.616C507.236 320.288 498.389 314.222 497.598 307.643C496.806 301.063 504.141 294.257 503.279 287.773C502.417 281.29 493.394 275.319 492.444 268.931C491.459 262.352 498.53 255.283 497.439 248.979C496.296 242.304 487.009 236.536 485.761 230.387C484.354 223.533 490.932 216.214 489.384 210.303C487.502 203.055 477.564 197.801 475.489 192.464C471.584 182.505 472.077 172.893 467.469 172.272C462.561 171.604 461.436 181.013 457.725 191.544C455.86 196.822 446.134 202.183 444.533 209.455C443.249 215.33 450.109 222.47 448.983 229.289C447.98 235.402 438.94 241.229 438.043 247.916C437.216 254.161 444.568 261.05 443.847 267.582C443.144 273.934 434.367 279.988 433.751 286.436C433.136 292.884 440.787 299.642 440.206 306.007C439.626 312.371 431.06 318.7 430.621 324.98C430.146 331.619 437.867 338.318 437.498 344.479C437.076 351.309 428.58 357.614 428.264 363.584C427.877 370.82 435.721 377.519 435.475 383.023C434.947 394.964 426.874 392.516 426.593 402.128L428.756 402.176Z" fill="#179177"/>
<path d="M465.604 191.461V399.489" stroke="black" stroke-miterlimit="10"/>
<path d="M478.989 213.264L465.023 221.455L453.591 211.103" stroke="black" stroke-miterlimit="10"/>
<path d="M478.989 249.468L465.023 257.659L453.591 247.319" stroke="black" stroke-miterlimit="10"/>
<path d="M478.989 283.523L465.023 291.714L453.591 281.373" stroke="black" stroke-miterlimit="10"/>
<path d="M478.989 324.049L465.023 332.24L453.591 321.888" stroke="black" stroke-miterlimit="10"/>
<path d="M478.989 365.005L465.023 373.184L453.591 362.844" stroke="black" stroke-miterlimit="10"/>
<path d="M352.263 401.615V160.2H371.03V401.615" fill="#2E353A"/>
<path d="M352.263 401.615V160.2H371.03V401.615" stroke="#2E353A" stroke-linecap="round" stroke-linejoin="round"/>
<path d="M342.889 401.615V160.2H361.656V401.615" fill="#179177"/>
<path d="M342.889 401.615V160.2H361.656V401.615" stroke="#2E353A" stroke-linecap="round" stroke-linejoin="round"/>
<g style="mix-blend-mode:multiply" opacity="0.3">
<path d="M361.656 160.2H342.889V188.858H361.656V160.2Z" fill="#2E353A"/>
</g>
<path d="M422.97 65.9534H283.915L344.525 167.018H483.597V107.101C483.597 101.696 482.029 96.3445 478.982 91.3515C475.935 86.3585 471.469 81.8219 465.839 78.0009C460.209 74.1799 453.525 71.1492 446.169 69.0821C438.814 67.015 430.93 65.9518 422.97 65.9534Z" fill="#179177" stroke="#2E353A" stroke-linecap="round" stroke-linejoin="round"/>
<g style="mix-blend-mode:multiply" opacity="0.3">
<path d="M333.918 149.323L344.471 167.018H483.596V107.101C483.596 106.193 483.596 105.286 483.456 104.39H333.953L333.918 149.323Z" fill="black"/>
</g>
<path d="M421.949 104.39H407.315" stroke="#2E353A" stroke-linecap="round" stroke-linejoin="round"/>
<path d="M483.456 104.39H439.168" stroke="#2E353A" stroke-linecap="round" stroke-linejoin="round"/>
<path d="M283.915 65.9534C299.994 65.9534 315.415 70.2898 326.785 78.0086C338.155 85.7275 344.543 96.1964 344.543 107.113V167.03H223.287V107.101C223.292 96.1866 229.681 85.7206 241.051 78.0044C252.42 70.2881 267.838 65.9534 283.915 65.9534Z" fill="#2E353A" stroke="#2E353A" stroke-linecap="round" stroke-linejoin="round"/>
<path d="M344.524 160.2H240.048V167.018H344.524V160.2Z" fill="#179177" stroke="#2E353A" stroke-linecap="round" stroke-linejoin="round"/>
<path d="M344.524 160.2H128.309V167.018H344.524V160.2Z" fill="#179177" stroke="#2E353A" stroke-linecap="round" stroke-linejoin="round"/>
<path opacity="0.3" d="M344.524 160.2H240.048V167.018H344.524V160.2Z" fill="black"/>
<path d="M432.01 41.5946H388.619V62.2877H432.01V41.5946Z" fill="#2E353A" stroke="#2E353A" stroke-linecap="round" stroke-linejoin="round"/>
<path d="M392.137 41.5946H382.762V106.074H392.137V41.5946Z" fill="white" stroke="#2E353A" stroke-linecap="round" stroke-linejoin="round"/>
<path d="M387.44 114.826C393.269 114.826 397.993 111.619 397.993 107.662C397.993 103.705 393.269 100.498 387.44 100.498C381.612 100.498 376.887 103.705 376.887 107.662C376.887 111.619 381.612 114.826 387.44 114.826Z" fill="#2E353A" stroke="#2E353A" stroke-linecap="round" stroke-linejoin="round"/>
<path d="M232.679 82.503C257.162 90.945 299.726 104.474 338.984 111.28" stroke="white" stroke-linecap="round" stroke-linejoin="round" stroke-dasharray="2 4"/>
<path d="M212.136 75.1596C212.136 75.1596 219.98 78.1686 232.679 82.5508" stroke="#2E353A" stroke-linecap="round" stroke-linejoin="round" stroke-dasharray="2 4"/>
<path d="M203.323 74.7178L220.93 46.3231L93.2544 25.1763L203.323 74.7178Z" fill="white" stroke="#2E353A" stroke-width="1.2629" stroke-linecap="round" stroke-linejoin="round"/>
<path d="M211.907 49.762L203.323 74.7178L93.2544 25.1763L211.907 49.762Z" fill="#179177" stroke="#2E353A" stroke-width="1.2629" stroke-linecap="round" stroke-linejoin="round"/>
<path d="M211.907 49.762L191.873 61.416L93.2544 25.1763L211.907 49.762Z" fill="white" stroke="#2E353A" stroke-width="1.2629" stroke-linecap="round" stroke-linejoin="round"/>
<path d="M220.93 46.3231L238.764 41.4036L93.2544 25.1763L220.93 46.3231Z" fill="white" stroke="#2E353A" stroke-width="1.2629" stroke-linecap="round" stroke-linejoin="round"/>
<path d="M178.524 70.2998L182.657 72.0193" stroke="#2E353A" stroke-linecap="round" stroke-linejoin="round"/>
<path d="M155.975 60.9145L169.817 66.6698" stroke="#2E353A" stroke-linecap="round" stroke-linejoin="round"/>
<path d="M140.427 129.071V98.2765L270.195 112.438L140.427 129.071Z" fill="white" stroke="#2E353A" stroke-width="1.2629" stroke-linecap="round" stroke-linejoin="round"/>
<path d="M146.777 103.817L140.427 129.071L270.195 112.438L146.777 103.817Z" fill="#179177" stroke="#2E353A" stroke-width="1.2629" stroke-linecap="round" stroke-linejoin="round"/>
<path d="M146.776 103.817L158.578 119.829L270.195 112.438L146.776 103.817Z" fill="white" stroke="#2E353A" stroke-width="1.2629" stroke-linecap="round" stroke-linejoin="round"/>
<path d="M140.427 98.2766L126.813 89.0345L270.195 112.438L140.427 98.2766Z" fill="white" stroke="#2E353A" stroke-width="1.2629" stroke-linecap="round" stroke-linejoin="round"/>
<path d="M186.896 128.498L198.153 126.946" stroke="#2E353A" stroke-linecap="round" stroke-linejoin="round"/>
<path d="M147.357 133.955L175.657 130.05" stroke="#2E353A" stroke-linecap="round" stroke-linejoin="round"/>
<path d="M124.791 127.173C124.791 127.173 22.7772 139.113 3.42976 201.204C-15.9176 263.295 86.0959 266.877 103.684 237.026C121.273 207.175 43.8834 195.234 26.2949 223.891C8.70633 252.549 61.4719 301.505 133.585 303.893C193.509 305.875 361.515 258.388 466.008 246.387C466.008 246.387 543.398 231.844 663 235.032" stroke="#2E353A" stroke-linecap="round" stroke-linejoin="round" stroke-dasharray="2 4"/>
<path d="M628.403 321.804H657.723" stroke="#2E353A" stroke-linecap="round" stroke-linejoin="round"/>
<path d="M628.403 351.25H657.723" stroke="#2E353A" stroke-linecap="round" stroke-linejoin="round"/>
<path d="M11.0454 350.461H624.885V322.592H11.0454" fill="white"/>
<path d="M11.0454 350.461H624.885V322.592H11.0454" stroke="#2E353A" stroke-linecap="round" stroke-linejoin="round"/>
<path d="M53.7153 401.806V261.6C53.7157 261.256 53.8187 260.916 54.0183 260.6C54.2178 260.284 54.5096 259.998 54.8762 259.761L70.9169 249.504C71.6393 249.045 72.5994 248.799 73.5878 248.82C74.5763 248.84 75.5129 249.124 76.1935 249.611L90.2643 259.773C90.9027 260.246 91.2599 260.863 91.2669 261.504V401.806" fill="#2E353A"/>
<path d="M53.7153 401.806V261.6C53.7157 261.256 53.8187 260.916 54.0183 260.6C54.2178 260.284 54.5096 259.998 54.8762 259.761L70.9169 249.504C71.6393 249.045 72.5994 248.799 73.5878 248.82C74.5763 248.84 75.5129 249.124 76.1935 249.611L90.2643 259.773C90.9027 260.246 91.2599 260.863 91.2669 261.504V401.806" stroke="#2E353A" stroke-linecap="round" stroke-linejoin="round"/>
<path d="M49.1597 403V261.6C49.1592 261.255 49.2635 260.913 49.4663 260.597C49.6691 260.28 49.9659 259.996 50.3381 259.761L66.3789 249.504C66.7355 249.275 67.1549 249.097 67.6133 248.979C68.0716 248.86 68.5598 248.805 69.05 248.815C69.5401 248.825 70.0225 248.9 70.4696 249.037C70.9167 249.174 71.3196 249.369 71.6554 249.611L85.7262 259.773C86.372 260.243 86.7304 260.862 86.7288 261.504V403" fill="white"/>
<path d="M49.1597 403V261.6C49.1592 261.255 49.2635 260.913 49.4663 260.597C49.6691 260.28 49.9659 259.996 50.3381 259.761L66.3789 249.504C66.7355 249.275 67.1549 249.097 67.6133 248.979C68.0716 248.86 68.5598 248.805 69.05 248.815C69.5401 248.825 70.0225 248.9 70.4696 249.037C70.9167 249.174 71.3196 249.369 71.6554 249.611L85.7262 259.773C86.372 260.243 86.7304 260.862 86.7288 261.504V403" stroke="#2E353A" stroke-linecap="round" stroke-linejoin="round"/>
<path d="M188.971 401.806V261.6C188.972 261.256 189.075 260.916 189.274 260.6C189.474 260.284 189.765 259.998 190.132 259.761L206.19 249.504C206.547 249.275 206.966 249.097 207.425 248.979C207.883 248.86 208.371 248.805 208.861 248.815C209.352 248.825 209.834 248.9 210.281 249.037C210.728 249.174 211.131 249.369 211.467 249.611L225.538 259.773C226.184 260.243 226.542 260.862 226.54 261.504V401.806" fill="#2E353A"/>
<path d="M188.971 401.806V261.6C188.972 261.256 189.075 260.916 189.274 260.6C189.474 260.284 189.765 259.998 190.132 259.761L206.19 249.504C206.547 249.275 206.966 249.097 207.425 248.979C207.883 248.86 208.371 248.805 208.861 248.815C209.352 248.825 209.834 248.9 210.281 249.037C210.728 249.174 211.131 249.369 211.467 249.611L225.538 259.773C226.184 260.243 226.542 260.862 226.54 261.504V401.806" stroke="#2E353A" stroke-linecap="round" stroke-linejoin="round"/>
<path d="M185.172 403V261.6C185.172 261.255 185.276 260.913 185.479 260.597C185.682 260.28 185.979 259.996 186.351 259.761L202.392 249.504C203.114 249.045 204.074 248.799 205.062 248.82C206.051 248.84 206.988 249.124 207.668 249.611L221.739 259.773C222.39 260.241 222.754 260.86 222.759 261.504V403" fill="white"/>
<path d="M185.172 403V261.6C185.172 261.255 185.276 260.913 185.479 260.597C185.682 260.28 185.979 259.996 186.351 259.761L202.392 249.504C203.114 249.045 204.074 248.799 205.062 248.82C206.051 248.84 206.988 249.124 207.668 249.611L221.739 259.773C222.39 260.241 222.754 260.86 222.759 261.504V403" stroke="#2E353A" stroke-linecap="round" stroke-linejoin="round"/>
<path d="M324.984 401.806V261.6C324.983 261.255 325.088 260.913 325.291 260.597C325.493 260.28 325.79 259.996 326.162 259.761L342.203 249.504C342.925 249.045 343.885 248.799 344.874 248.82C345.862 248.84 346.799 249.124 347.48 249.611L361.55 259.773C362.201 260.241 362.566 260.86 362.571 261.504V403" fill="#2E353A"/>
<path d="M324.984 401.806V261.6C324.983 261.255 325.088 260.913 325.291 260.597C325.493 260.28 325.79 259.996 326.162 259.761L342.203 249.504C342.925 249.045 343.885 248.799 344.874 248.82C345.862 248.84 346.799 249.124 347.48 249.611L361.55 259.773C362.201 260.241 362.566 260.86 362.571 261.504V403" stroke="#2E353A" stroke-linecap="round" stroke-linejoin="round"/>
<path d="M321.202 403V261.6C321.202 261.256 321.306 260.916 321.505 260.6C321.705 260.284 321.996 259.998 322.363 259.761L338.421 249.504C338.778 249.275 339.197 249.097 339.656 248.979C340.114 248.86 340.602 248.805 341.092 248.815C341.583 248.825 342.065 248.9 342.512 249.037C342.959 249.174 343.362 249.369 343.698 249.611L357.769 259.773C358.414 260.243 358.773 260.862 358.771 261.504V403" fill="white"/>
<path d="M321.202 403V261.6C321.202 261.256 321.306 260.916 321.505 260.6C321.705 260.284 321.996 259.998 322.363 259.761L338.421 249.504C338.778 249.275 339.197 249.097 339.656 248.979C340.114 248.86 340.602 248.805 341.092 248.815C341.583 248.825 342.065 248.9 342.512 249.037C342.959 249.174 343.362 249.369 343.698 249.611L357.769 259.773C358.414 260.243 358.773 260.862 358.771 261.504V403" stroke="#2E353A" stroke-linecap="round" stroke-linejoin="round"/>
<path d="M461.013 401.806V261.6C461.013 261.256 461.116 260.916 461.316 260.6C461.515 260.284 461.807 259.998 462.174 259.761L478.214 249.504C478.937 249.045 479.897 248.799 480.885 248.82C481.874 248.84 482.81 249.124 483.491 249.611L497.562 259.773C498.2 260.246 498.557 260.863 498.564 261.504V401.806" fill="#2E353A"/>
<path d="M461.013 401.806V261.6C461.013 261.256 461.116 260.916 461.316 260.6C461.515 260.284 461.807 259.998 462.174 259.761L478.214 249.504C478.937 249.045 479.897 248.799 480.885 248.82C481.874 248.84 482.81 249.124 483.491 249.611L497.562 259.773C498.2 260.246 498.557 260.863 498.564 261.504V401.806" stroke="#2E353A" stroke-linecap="round" stroke-linejoin="round"/>
<path d="M457.214 403V261.6C457.213 261.255 457.318 260.913 457.521 260.597C457.723 260.28 458.02 259.996 458.392 259.761L474.433 249.504C474.79 249.275 475.209 249.097 475.668 248.979C476.126 248.86 476.614 248.805 477.104 248.815C477.594 248.825 478.077 248.9 478.524 249.037C478.971 249.174 479.374 249.369 479.71 249.611L493.78 259.773C494.426 260.243 494.785 260.862 494.783 261.504V403" fill="white"/>
<path d="M457.214 403V261.6C457.213 261.255 457.318 260.913 457.521 260.597C457.723 260.28 458.02 259.996 458.392 259.761L474.433 249.504C474.79 249.275 475.209 249.097 475.668 248.979C476.126 248.86 476.614 248.805 477.104 248.815C477.594 248.825 478.077 248.9 478.524 249.037C478.971 249.174 479.374 249.369 479.71 249.611L493.78 259.773C494.426 260.243 494.785 260.862 494.783 261.504V403" stroke="#2E353A" stroke-linecap="round" stroke-linejoin="round"/>
<path d="M597.025 401.806V261.6C597.025 261.256 597.128 260.916 597.328 260.6C597.527 260.284 597.819 259.998 598.186 259.761L614.244 249.504C614.601 249.275 615.02 249.097 615.479 248.979C615.937 248.86 616.425 248.805 616.915 248.815C617.405 248.825 617.888 248.9 618.335 249.037C618.782 249.174 619.185 249.369 619.521 249.611L633.591 259.773C634.237 260.243 634.596 260.862 634.594 261.504V401.806" fill="#2E353A"/>
<path d="M597.025 401.806V261.6C597.025 261.256 597.128 260.916 597.328 260.6C597.527 260.284 597.819 259.998 598.186 259.761L614.244 249.504C614.601 249.275 615.02 249.097 615.479 248.979C615.937 248.86 616.425 248.805 616.915 248.815C617.405 248.825 617.888 248.9 618.335 249.037C618.782 249.174 619.185 249.369 619.521 249.611L633.591 259.773C634.237 260.243 634.596 260.862 634.594 261.504V401.806" stroke="#2E353A" stroke-linecap="round" stroke-linejoin="round"/>
<path d="M593.227 403V261.6C593.226 261.255 593.33 260.913 593.533 260.597C593.736 260.28 594.033 259.996 594.405 259.761L610.446 249.504C611.168 249.045 612.128 248.799 613.117 248.82C614.105 248.84 615.042 249.124 615.722 249.611L629.793 259.773C630.444 260.241 630.808 260.86 630.813 261.504V403" fill="white"/>
<path d="M593.227 403V261.6C593.226 261.255 593.33 260.913 593.533 260.597C593.736 260.28 594.033 259.996 594.405 259.761L610.446 249.504C611.168 249.045 612.128 248.799 613.117 248.82C614.105 248.84 615.042 249.124 615.722 249.611L629.793 259.773C630.444 260.241 630.808 260.86 630.813 261.504V403" stroke="#2E353A" stroke-linecap="round" stroke-linejoin="round"/>
<path d="M71.6382 249.611V259.833" stroke="#2E353A" stroke-linecap="round" stroke-linejoin="round"/>
<path d="M77.6704 254.889V279.081" stroke="#2E353A" stroke-linecap="round" stroke-linejoin="round"/>
<path d="M192.577 256.871V287.475" stroke="#2E353A" stroke-linecap="round" stroke-linejoin="round"/>
<path d="M198.398 252.919V266.245" stroke="#2E353A" stroke-linecap="round" stroke-linejoin="round"/>
<path d="M338.421 249.504V279.582" stroke="#2E353A" stroke-linecap="round" stroke-linejoin="round"/>
<path d="M346.776 251.928V296.371" stroke="#2E353A" stroke-linecap="round" stroke-linejoin="round"/>
<path d="M463.863 256.871V290.436" stroke="#2E353A" stroke-linecap="round" stroke-linejoin="round"/>
<path d="M482.77 252.919V261.313" stroke="#2E353A" stroke-linecap="round" stroke-linejoin="round"/>
<path d="M605.679 252.417V270.197" stroke="#2E353A" stroke-linecap="round" stroke-linejoin="round"/>
<path d="M621.684 254.4V305.744" stroke="#2E353A" stroke-linecap="round" stroke-linejoin="round"/>
<path d="M592.592 329.446H576.587" stroke="#2E353A" stroke-linecap="round" stroke-linejoin="round"/>
<path d="M592.593 337.84H536.591" stroke="#2E353A" stroke-linecap="round" stroke-linejoin="round"/>
<path d="M383.853 337.84H358.402" stroke="#2E353A" stroke-linecap="round" stroke-linejoin="round"/>
<path d="M250.039 337.84H224.588" stroke="#2E353A" stroke-linecap="round" stroke-linejoin="round"/>
<path d="M48.5795 333.398H23.1289" stroke="#2E353A" stroke-linecap="round" stroke-linejoin="round"/>
<path d="M48.5793 341.291H38.3955" stroke="#2E353A" stroke-linecap="round" stroke-linejoin="round"/>
<path d="M370.767 333.398H358.402" stroke="#2E353A" stroke-linecap="round" stroke-linejoin="round"/>
<path d="M235.493 342.772H223.128" stroke="#2E353A" stroke-linecap="round" stroke-linejoin="round"/>
<path d="M183.853 342.772H171.488" stroke="#2E353A" stroke-linecap="round" stroke-linejoin="round"/>
<path d="M642.034 337.84H631.129" stroke="#2E353A" stroke-linecap="round" stroke-linejoin="round"/>
<path d="M656.58 337.84H650.037" stroke="#2E353A" stroke-linecap="round" stroke-linejoin="round"/>
<path d="M86.0958 286.508C86.0958 286.508 81.6986 312.168 76.4221 338.425C71.1455 364.683 80.8192 391.549 83.4575 393.937" stroke="#2E353A" stroke-linecap="round" stroke-linejoin="round"/>
<path d="M68.7012 338.449C69.5454 333.327 70.249 330.091 70.249 330.091" stroke="#2E353A" stroke-linecap="round" stroke-linejoin="round"/>
<path d="M81.6812 390.952C81.6812 390.952 65.8516 388.564 65.8516 369.459C65.8516 361.614 66.5903 353.578 67.4697 346.772" stroke="#2E353A" stroke-linecap="round" stroke-linejoin="round"/>
<path d="M214.493 256.059C214.493 256.059 218.01 257.85 211.854 278.149C205.698 298.448 206.578 328.3 214.493 345.017" stroke="#2E353A" stroke-linecap="round" stroke-linejoin="round"/>
<path d="M223.286 293.672C223.286 293.672 214.492 311.583 220.648 336.658" stroke="#2E353A" stroke-linecap="round" stroke-linejoin="round"/>
<path d="M323.542 305.004C323.542 305.004 327.939 322.318 332.336 340.216C336.733 358.115 333.215 383.202 329.698 389.758C326.18 396.313 322.662 401.698 322.662 401.698" stroke="#2E353A" stroke-linecap="round" stroke-linejoin="round"/>
<path d="M340.11 392.922C336.187 401.089 331.315 391.549 331.315 391.549" stroke="#2E353A" stroke-linecap="round" stroke-linejoin="round"/>
<path d="M339.951 331.882C339.951 331.882 348.235 360.909 343.557 382.761" stroke="#2E353A" stroke-linecap="round" stroke-linejoin="round"/>
<path d="M321.782 341.434C321.782 341.434 330.576 353.972 322.662 365.912" stroke="#2E353A" stroke-linecap="round" stroke-linejoin="round"/>
<path d="M485.883 343.202C487.06 346.851 488.606 350.442 490.509 353.948" stroke="#2E353A" stroke-linecap="round" stroke-linejoin="round"/>
<path d="M493.148 281.135C487.567 293.16 484.026 305.579 482.595 318.15C482.069 324.511 482.594 330.891 484.16 337.172" stroke="#2E353A" stroke-linecap="round" stroke-linejoin="round"/>
<path d="M476.438 336.037C476.438 336.037 484.353 356.336 488.75 363.501C493.148 370.665 491.389 387.967 486.112 396.325" stroke="#2E353A" stroke-linecap="round" stroke-linejoin="round"/>
<path d="M595.125 290.09C595.125 290.09 612.714 311.583 596.005 346.796" stroke="#2E353A" stroke-linecap="round" stroke-linejoin="round"/>
<path d="M611.289 326.795C611.395 333.506 610.515 342.008 606.558 349.172C598.643 363.501 595.125 368.277 595.125 368.277" stroke="#2E353A" stroke-linecap="round" stroke-linejoin="round"/>
<path d="M610.077 315.165C610.077 315.165 610.657 317.732 611.009 321.685" stroke="#2E353A" stroke-linecap="round" stroke-linejoin="round"/>
</svg>
