<svg width="1601" height="1193" viewBox="0 0 1601 1193" fill="none" xmlns="http://www.w3.org/2000/svg">
<path d="M1600.39 1047.93H0V1048.74H1600.39V1047.93Z" fill="#EBEBEB"/>
<path d="M1010.39 1069.73H928.898V1070.53H1010.39V1069.73Z" fill="#EBEBEB"/>
<path d="M1457.76 1087.05H1264.66V1087.85H1457.76V1087.05Z" fill="#EBEBEB"/>
<path d="M911.55 1070.12H712.045V1070.92H911.55V1070.12Z" fill="#EBEBEB"/>
<path d="M582.67 1094.06H540.932V1094.86H582.67V1094.06Z" fill="#EBEBEB"/>
<path d="M813.286 1094.06H623.224V1094.86H813.286V1094.06Z" fill="#EBEBEB"/>
<path d="M290.983 1080.55H167.913V1081.35H290.983V1080.55Z" fill="#EBEBEB"/>
<path d="M758.584 905.18H140.546C135.705 905.172 131.064 903.242 127.643 899.816C124.223 896.389 122.302 891.745 122.302 886.904V18.1164C122.344 13.3025 124.284 8.69965 127.7 5.30759C131.116 1.91553 135.732 0.00824645 140.546 0H758.584C763.432 0 768.08 1.92555 771.508 5.35305C774.935 8.78055 776.861 13.4292 776.861 18.2764V886.904C776.861 891.751 774.935 896.4 771.508 899.827C768.08 903.255 763.432 905.18 758.584 905.18ZM140.546 0.640158C135.917 0.648637 131.48 2.49361 128.209 5.77013C124.939 9.04664 123.102 13.487 123.102 18.1164V886.904C123.102 891.533 124.939 895.973 128.209 899.25C131.48 902.526 135.917 904.371 140.546 904.38H758.584C763.217 904.371 767.657 902.527 770.933 899.252C774.208 895.976 776.052 891.536 776.061 886.904V18.1164C776.052 13.484 774.208 9.04377 770.933 5.76817C767.657 2.49257 763.217 0.648619 758.584 0.640158H140.546Z" fill="#EBEBEB"/>
<path d="M1450.94 905.18H832.875C828.03 905.172 823.386 903.243 819.961 899.818C816.535 896.392 814.607 891.748 814.598 886.904V18.1164C814.649 13.2996 816.596 8.69676 820.017 5.30559C823.438 1.91441 828.057 0.00815651 832.875 0H1450.94C1455.75 0.0166584 1460.36 1.92767 1463.77 5.31882C1467.18 8.70998 1469.12 13.308 1469.16 18.1164V886.904C1469.16 891.74 1467.24 896.379 1463.83 899.804C1460.41 903.23 1455.78 905.163 1450.94 905.18ZM832.875 0.640158C828.242 0.648619 823.802 2.49257 820.526 5.76817C817.251 9.04377 815.407 13.484 815.398 18.1164V886.904C815.407 891.536 817.251 895.976 820.526 899.252C823.802 902.527 828.242 904.371 832.875 904.38H1450.94C1455.58 904.371 1460.02 902.527 1463.29 899.252C1466.57 895.976 1468.41 891.536 1468.42 886.904V18.1164C1468.41 13.484 1466.57 9.04377 1463.29 5.76817C1460.02 2.49257 1455.58 0.648619 1450.94 0.640158H832.875Z" fill="#EBEBEB"/>
<path d="M627.225 770.331H414.693L401.794 621.495H614.325L627.225 770.331Z" fill="#E6E6E6"/>
<path d="M638.235 770.331H425.704L412.804 621.495H625.336L638.235 770.331Z" fill="#F0F0F0"/>
<path d="M454.767 738.355L447.661 653.439H596.273L603.379 738.355H454.767Z" fill="white"/>
<path d="M675.012 770.331H650.078V1047.93H675.012V770.331Z" fill="#E6E6E6"/>
<path d="M682.886 770.331H665.57V1047.93H682.886V770.331Z" fill="#F0F0F0"/>
<path d="M441.515 800.963H682.886V770.331H441.515V800.963Z" fill="#F0F0F0"/>
<path d="M450.03 800.963H425.095V1047.93H450.03V800.963Z" fill="#E6E6E6"/>
<path d="M457.903 800.963H440.587V1047.93H457.903V800.963Z" fill="#F0F0F0"/>
<path d="M272.546 800.963H247.612V1047.93H272.546V800.963Z" fill="#E6E6E6"/>
<path d="M280.42 800.963H263.104V1047.93H280.42V800.963Z" fill="#F0F0F0"/>
<path d="M517.214 800.963H492.28V1047.93H517.214V800.963Z" fill="#E6E6E6"/>
<path d="M525.056 800.963H507.74V1047.93H525.056V800.963Z" fill="#F0F0F0"/>
<path d="M441.515 770.331H247.612V800.963H441.515V770.331Z" fill="#E6E6E6"/>
<path d="M1164.57 78.131H414.533V495.705H1164.57V78.131Z" fill="#E0E0E0"/>
<path d="M1205.77 78.131H418.31V495.705H1205.77V78.131Z" fill="#F5F5F5"/>
<path d="M1192.9 482.837V90.9982L431.177 90.9982V482.837L1192.9 482.837Z" fill="white"/>
<path d="M739.604 482.837L883.415 90.9981H646.077L502.266 482.837H739.604Z" fill="#F5F5F5"/>
<path d="M968.043 482.837L1111.85 90.9981H932.803L788.992 482.837H968.043Z" fill="#F5F5F5"/>
<path d="M1402.29 649.118H1338.53V1047.93H1402.29V649.118Z" fill="#E6E6E6"/>
<path d="M1385.52 1047.93H1402.29V1017.24H1367.95L1385.52 1047.93Z" fill="#FAFAFA"/>
<path d="M814.438 649.118H750.678V1047.93H814.438V649.118Z" fill="#E6E6E6"/>
<path d="M1402.29 649.118H799.811V1039.64H1402.29V649.118Z" fill="#FAFAFA"/>
<path d="M1390.9 775.133H811.237V664.834H1390.9V775.133ZM814.438 771.932H1387.7V668.034H814.438V771.932Z" fill="#E6E6E6"/>
<path d="M1288.86 718.383H924.513C907.613 718.383 891.321 704.747 879.702 680.934L878.614 678.661H1334.72L1333.64 680.934C1321.92 704.747 1305.92 718.383 1288.86 718.383ZM883.863 681.766C894.682 702.987 909.469 715.086 924.513 715.086H1288.86C1303.97 715.086 1318.69 702.987 1329.51 681.766H883.863Z" fill="#E6E6E6"/>
<path d="M816.583 1047.93H799.811V1017.24H834.155L816.583 1047.93Z" fill="#FAFAFA"/>
<path d="M1390.9 899.419H811.237V789.248H1390.9V899.419ZM814.438 896.218H1387.7V792.449H814.438V896.218Z" fill="#E6E6E6"/>
<path d="M1288.86 842.797H924.513C907.613 842.797 891.321 829.13 879.702 805.348L878.614 803.043H1334.72L1333.64 805.348C1321.92 829.001 1305.92 842.797 1288.86 842.797ZM883.863 806.244C894.682 827.465 909.469 839.596 924.513 839.596H1288.86C1303.97 839.596 1318.69 827.465 1329.51 806.244H883.863Z" fill="#E6E6E6"/>
<path d="M1390.9 1023.93H811.237V913.63H1390.9V1023.93ZM814.438 1020.73H1387.7V916.831H814.438V1020.73Z" fill="#E6E6E6"/>
<path d="M1288.86 967.179H924.513C907.613 967.179 891.321 953.544 879.702 929.762L878.614 927.458H1334.72L1333.64 929.762C1321.92 953.544 1305.92 967.179 1288.86 967.179ZM883.863 930.658C894.682 951.879 909.469 963.978 924.513 963.978H1288.86C1303.97 963.978 1318.69 951.879 1329.51 930.658H883.863Z" fill="#E6E6E6"/>
<path d="M387.23 701.867V709.613H382.301L378.204 770.331H317.901L313.836 709.613H308.875V701.867H387.23Z" fill="#E6E6E6"/>
<path d="M367.385 551.206C362.456 515.037 313.644 504.731 251.709 503.386C192.783 502.138 173.898 481.301 173.898 481.301C173.898 481.301 174.09 565.706 259.007 596.305C339.634 625.304 372.346 587.439 367.385 551.206Z" fill="#E6E6E6"/>
<path d="M337.298 633.178C338.322 618.326 362.072 590.992 419.206 603.411C460.496 612.405 475.86 590.992 475.86 590.992C475.86 590.992 472.019 651.422 409.924 669.571C350.933 686.823 335.474 659.36 337.298 633.178Z" fill="#E6E6E6"/>
<path d="M350.325 724.656C350.647 724.659 350.965 724.592 351.258 724.46C351.551 724.327 351.812 724.132 352.022 723.888C356.151 718.991 352.758 707.276 348.085 691.048C342.067 670.243 334.577 644.317 340.915 625.528C344.428 615.604 348.532 605.899 353.206 596.465C362.168 577.516 369.914 561.256 363.448 544.036C363.348 543.762 363.193 543.511 362.995 543.297C362.796 543.083 362.557 542.911 362.292 542.79C362.026 542.668 361.739 542.601 361.447 542.592C361.155 542.582 360.865 542.631 360.592 542.735C360.319 542.838 360.069 542.995 359.857 543.196C359.645 543.397 359.475 543.637 359.357 543.904C359.239 544.171 359.174 544.459 359.168 544.751C359.162 545.043 359.213 545.333 359.319 545.605C365.113 560.936 358.103 575.788 349.205 594.609C344.472 604.194 340.304 614.048 336.722 624.12C329.968 644.221 337.65 670.883 343.828 692.264C347.477 705.067 351.254 717.871 348.661 721.071C348.455 721.292 348.298 721.554 348.198 721.839C348.099 722.124 348.06 722.427 348.084 722.728C348.108 723.029 348.195 723.322 348.338 723.588C348.481 723.854 348.679 724.087 348.917 724.272C349.326 724.563 349.825 724.7 350.325 724.656Z" fill="#E6E6E6"/>
<path d="M800.195 1192.48C1142.94 1192.48 1420.79 1176.26 1420.79 1156.25C1420.79 1136.24 1142.94 1120.02 800.195 1120.02C457.447 1120.02 179.596 1136.24 179.596 1156.25C179.596 1176.26 457.447 1192.48 800.195 1192.48Z" fill="#F5F5F5"/>
<path d="M800.067 979.598H345.556L320.686 248.636H775.197L800.067 979.598Z" fill="#179177"/>
<path d="M822.76 956.905H368.25L343.348 225.943H797.858L822.76 956.905Z" fill="#179177"/>
<path opacity="0.3" d="M822.76 956.905H368.25L343.348 225.943H797.858L822.76 956.905Z" fill="white"/>
<path d="M670.476 526.733C719.141 477.228 717.07 396.279 665.851 345.928C614.632 295.578 533.66 294.892 484.994 344.397C436.329 393.902 438.4 474.851 489.619 525.201C540.838 575.552 621.81 576.237 670.476 526.733Z" fill="#179177"/>
<path d="M683.27 435.594C683.925 453.011 680.124 470.308 672.228 485.846C663.705 502.591 650.685 516.63 634.628 526.389C618.572 536.147 600.114 541.238 581.325 541.092C562.095 540.988 543.231 535.829 526.624 526.132C510.017 516.435 496.252 502.542 486.71 485.846C477.813 470.547 472.843 453.282 472.243 435.594C471.652 421.879 473.857 408.187 478.721 395.35C483.586 382.513 491.01 370.799 500.542 360.92C510.074 351.041 521.514 343.203 534.169 337.882C546.824 332.561 560.428 329.869 574.156 329.968C602.435 330.168 629.551 341.255 649.871 360.924C670.19 380.594 682.152 407.336 683.27 435.594Z" fill="white"/>
<path opacity="0.6" d="M672.164 485.846C663.641 502.591 650.621 516.63 634.565 526.389C618.508 536.147 600.05 541.238 581.262 541.092C562.031 540.988 543.167 535.829 526.56 526.132C509.953 516.435 496.188 502.542 486.646 485.846C513.716 467.391 545.747 457.581 578.509 457.711C611.799 457.783 644.345 467.561 672.164 485.846Z" fill="#179177"/>
<path opacity="0.6" d="M610.619 432.962C628.513 414.758 627.752 384.993 608.918 366.478C590.085 347.964 560.31 347.712 542.416 365.916C524.521 384.119 525.282 413.885 544.116 432.399C562.95 450.913 592.724 451.165 610.619 432.962Z" fill="#179177"/>
<path d="M731.442 692.2H441.515L439.563 634.586H729.49L731.442 692.2Z" fill="white"/>
<path d="M734.963 795.169H445.004L443.052 737.555H733.01L734.963 795.169Z" fill="white"/>
<path d="M623.063 745.493L553.191 755.096C552.524 755.172 551.88 755.385 551.3 755.721C550.719 756.058 550.215 756.511 549.818 757.052C549.421 757.594 549.141 758.211 548.994 758.866C548.847 759.52 548.838 760.198 548.965 760.857L558.152 807.684C558.452 809.059 559.256 810.271 560.405 811.082C561.554 811.894 562.966 812.246 564.361 812.069L634.234 802.467C634.899 802.383 635.54 802.163 636.117 801.821C636.694 801.48 637.194 801.023 637.587 800.48C637.98 799.937 638.258 799.319 638.402 798.664C638.547 798.009 638.555 797.332 638.427 796.674L629.273 749.846C628.972 748.474 628.167 747.266 627.017 746.459C625.867 745.653 624.456 745.308 623.063 745.493ZM602.995 792.929L590.191 794.625L588.943 779.518C587.624 778.947 586.461 778.068 585.553 776.954C584.645 775.839 584.018 774.523 583.726 773.116C583.491 772.026 583.487 770.899 583.715 769.807C583.943 768.715 584.397 767.683 585.049 766.778C585.7 765.873 586.535 765.115 587.498 764.553C588.461 763.99 589.531 763.636 590.64 763.514C592.913 763.221 595.213 763.792 597.086 765.114C598.959 766.435 600.268 768.411 600.754 770.651C601.031 772.004 600.947 773.406 600.508 774.716C600.07 776.026 599.293 777.196 598.257 778.109L602.995 792.929Z" fill="#179177"/>
<path d="M616.15 742.965C614.915 743.122 613.665 742.812 612.647 742.095C611.628 741.379 610.914 740.308 610.645 739.092L609.748 734.515C608.469 728.268 604.968 722.698 599.895 718.837C594.821 714.976 588.519 713.086 582.158 713.518C578.948 713.7 575.815 714.572 572.971 716.073C570.128 717.575 567.641 719.67 565.68 722.218C563.718 724.765 562.328 727.705 561.603 730.838C560.879 733.97 560.837 737.222 561.481 740.372L562.505 745.653C562.624 746.238 562.62 746.842 562.493 747.426C562.365 748.009 562.117 748.56 561.764 749.042C561.412 749.524 560.963 749.927 560.445 750.225C559.928 750.524 559.354 750.711 558.76 750.775C557.522 750.947 556.265 750.643 555.243 749.924C554.221 749.205 553.511 748.125 553.255 746.902L552.391 742.452C551.512 738.294 551.482 734.002 552.305 729.832C553.127 725.662 554.784 721.702 557.176 718.189C559.568 714.676 562.645 711.683 566.223 709.389C569.801 707.096 573.806 705.55 577.997 704.843C587.084 703.317 596.409 705.349 604.038 710.516C611.666 715.683 617.013 723.59 618.967 732.594L619.991 737.843C620.11 738.436 620.103 739.047 619.97 739.637C619.837 740.226 619.58 740.781 619.218 741.264C618.855 741.748 618.394 742.149 617.866 742.442C617.337 742.735 616.752 742.913 616.15 742.965Z" fill="#179177"/>
<path d="M687.111 875.861H498.361L497.113 838.348H685.831L687.111 875.861Z" fill="#179177"/>
<path d="M596.049 663.393C596.105 664.762 595.883 666.127 595.396 667.407C594.909 668.687 594.167 669.854 593.216 670.839C592.264 671.824 591.122 672.605 589.86 673.135C588.597 673.665 587.24 673.934 585.87 673.924C583.048 673.902 580.342 672.797 578.311 670.837C576.28 668.878 575.079 666.213 574.956 663.393C574.899 662.025 575.122 660.66 575.609 659.38C576.096 658.1 576.837 656.932 577.789 655.948C578.741 654.963 579.883 654.182 581.145 653.651C582.408 653.121 583.765 652.853 585.134 652.863C587.959 652.877 590.669 653.979 592.702 655.94C594.735 657.902 595.934 660.571 596.049 663.393Z" fill="#263238"/>
<path d="M550.534 663.393C550.595 664.763 550.376 666.13 549.891 667.412C549.405 668.694 548.664 669.864 547.711 670.849C546.758 671.835 545.615 672.616 544.35 673.144C543.085 673.673 541.726 673.938 540.355 673.924C537.536 673.901 534.834 672.796 532.808 670.835C530.782 668.875 529.588 666.21 529.473 663.393C529.416 662.025 529.638 660.66 530.125 659.38C530.612 658.1 531.354 656.932 532.306 655.948C533.258 654.963 534.399 654.182 535.662 653.651C536.925 653.121 538.282 652.853 539.651 652.863C542.473 652.877 545.18 653.981 547.207 655.943C549.235 657.905 550.427 660.574 550.534 663.393Z" fill="#263238"/>
<path d="M505.307 663.393C505.363 664.762 505.141 666.127 504.654 667.407C504.167 668.687 503.425 669.854 502.474 670.839C501.522 671.824 500.38 672.605 499.118 673.135C497.855 673.665 496.498 673.934 495.129 673.924C492.307 673.909 489.6 672.806 487.573 670.844C485.545 668.882 484.353 666.213 484.246 663.393C484.19 662.025 484.412 660.66 484.899 659.38C485.386 658.1 486.128 656.932 487.079 655.948C488.031 654.963 489.173 654.182 490.435 653.651C491.698 653.121 493.055 652.853 494.424 652.863C497.246 652.877 499.953 653.981 501.98 655.943C504.008 657.905 505.2 660.574 505.307 663.393Z" fill="#263238"/>
<path d="M641.404 663.393C641.46 664.762 641.238 666.127 640.751 667.407C640.264 668.687 639.522 669.854 638.571 670.839C637.619 671.824 636.477 672.605 635.215 673.135C633.952 673.665 632.595 673.934 631.226 673.924C628.404 673.909 625.697 672.806 623.669 670.844C621.642 668.882 620.45 666.213 620.343 663.393C620.295 662.029 620.525 660.669 621.018 659.397C621.511 658.124 622.258 656.964 623.213 655.989C624.167 655.013 625.31 654.241 626.572 653.721C627.834 653.2 629.188 652.941 630.553 652.959C633.353 652.98 636.039 654.074 638.057 656.015C640.075 657.956 641.273 660.596 641.404 663.393Z" fill="#263238"/>
<path d="M686.759 663.393C686.82 664.763 686.601 666.13 686.116 667.412C685.631 668.694 684.889 669.864 683.936 670.849C682.984 671.835 681.84 672.616 680.575 673.144C679.311 673.673 677.951 673.938 676.581 673.924C673.762 673.901 671.059 672.796 669.033 670.835C667.007 668.875 665.813 666.21 665.698 663.393C665.642 662.025 665.864 660.66 666.351 659.38C666.838 658.1 667.58 656.932 668.531 655.948C669.483 654.963 670.625 654.182 671.887 653.651C673.15 653.121 674.507 652.853 675.877 652.863C678.698 652.877 681.405 653.981 683.433 655.943C685.46 657.905 686.652 660.574 686.759 663.393Z" fill="#263238"/>
<path d="M1068.77 381.789C1073.03 388.638 1076.58 395.168 1080.23 401.986C1083.88 408.803 1087.18 415.653 1090.41 422.663C1097.01 436.856 1102.46 451.552 1106.73 466.609C1107.31 468.498 1107.73 470.514 1108.21 472.467L1108.91 475.444L1109.26 476.916L1109.68 479.349C1110.4 484.867 1110.06 490.472 1108.69 495.865C1106.48 504.237 1103.12 512.262 1098.7 519.71C1090.8 533.246 1081.25 545.75 1070.28 556.935L1056.8 546.757C1063.56 534.323 1069.58 521.497 1074.82 508.348C1077.16 502.554 1078.8 496.505 1079.72 490.327C1080.01 488.441 1079.93 486.514 1079.46 484.662L1078.18 480.757C1077.67 479.156 1077.19 477.556 1076.58 475.924C1071.71 462.719 1066.08 449.809 1059.71 437.258C1053.31 424.455 1046.43 411.652 1039.55 399.425L1068.77 381.789Z" fill="#FF8B7B"/>
<path d="M1060.23 542.308L1045.5 550.086L1062.4 569.867C1062.4 569.867 1072.97 562.729 1073.45 551.846L1060.23 542.308Z" fill="#FF8B7B"/>
<path d="M1025.75 562.281L1043.84 576.652L1062.4 569.867L1045.5 550.086L1025.75 562.281Z" fill="#FF8B7B"/>
<path d="M963.914 277.059C963.562 278.852 962.314 280.1 961.162 279.876C960.01 279.652 959.337 277.988 959.689 276.227C960.042 274.467 961.29 273.026 962.474 273.41C963.658 273.795 964.267 275.267 963.914 277.059Z" fill="#263238"/>
<path d="M962.474 280.132C959.251 285.146 955.352 289.691 950.887 293.639C951.941 294.732 953.22 295.584 954.634 296.136C956.048 296.689 957.565 296.929 959.081 296.84L962.474 280.132Z" fill="#FF5652"/>
<path d="M956.713 342.931V321.934L984.495 325.135C984.495 325.135 984.047 343.187 968.491 348.501L956.713 342.931Z" fill="#FF8B7B"/>
<path d="M964.715 306.827L984.272 312.46L984.624 325.295L956.841 321.934L964.715 306.827Z" fill="#FF8B7B"/>
<path opacity="0.2" d="M984.272 312.46L964.715 306.827L960.906 314.124C961.114 319.875 962.911 325.455 966.097 330.246C969.284 335.037 973.735 338.852 978.958 341.267C982.318 336.573 984.282 331.025 984.624 325.263L984.272 312.46Z" fill="black"/>
<path d="M972.429 268.513C972.634 268.508 972.833 268.444 973.004 268.33C973.174 268.216 973.309 268.056 973.393 267.869C973.477 267.682 973.506 267.474 973.477 267.271C973.448 267.068 973.362 266.877 973.229 266.721C972.104 265.451 970.693 264.469 969.111 263.857C967.53 263.244 965.825 263.019 964.139 263.2C963.863 263.247 963.617 263.401 963.455 263.629C963.293 263.857 963.228 264.14 963.274 264.416C963.322 264.694 963.475 264.943 963.702 265.11C963.928 265.277 964.211 265.35 964.491 265.312C965.826 265.181 967.174 265.372 968.421 265.867C969.668 266.363 970.779 267.149 971.66 268.161C971.759 268.268 971.877 268.354 972.009 268.415C972.141 268.475 972.284 268.509 972.429 268.513Z" fill="#263238"/>
<path d="M1013.33 309.451C1010.13 325.935 1008.15 348.757 1019.74 359.735C1019.74 359.735 1015.25 376.444 984.527 376.444C950.887 376.444 968.364 361.784 968.364 361.784C982.351 357.431 982.223 341.523 979.022 328.72L1013.33 309.451Z" fill="#FF8B7B"/>
<path d="M1025.98 370.746C1028.99 366.521 1028.86 353.11 1025.66 350.741C1020.5 346.932 998.387 346.036 968.652 352.886C971.852 365.881 964.971 372.667 964.971 372.667L1025.98 370.746Z" fill="#179177"/>
<path d="M1126.03 1130.64C1125.12 1130.96 1124.15 1131.1 1123.19 1131.05C1122.22 1130.99 1121.27 1130.75 1120.4 1130.32C1120.07 1130.02 1119.84 1129.61 1119.75 1129.17C1119.66 1128.73 1119.71 1128.27 1119.89 1127.86C1119.99 1127.51 1120.16 1127.19 1120.4 1126.92C1120.64 1126.65 1120.93 1126.43 1121.26 1126.29C1124.31 1124.82 1131.28 1127.67 1131.6 1127.79C1131.7 1127.83 1131.78 1127.9 1131.84 1127.98C1131.89 1128.07 1131.92 1128.17 1131.92 1128.27C1131.92 1128.38 1131.9 1128.48 1131.85 1128.57C1131.79 1128.66 1131.72 1128.73 1131.64 1128.79C1129.83 1129.58 1127.96 1130.2 1126.03 1130.64ZM1122.35 1127.03C1122.14 1127.08 1121.94 1127.15 1121.74 1127.25C1121.55 1127.32 1121.37 1127.44 1121.22 1127.6C1121.08 1127.75 1120.97 1127.94 1120.91 1128.15C1120.62 1129.11 1120.91 1129.43 1121.1 1129.52C1122.32 1130.55 1126.8 1129.52 1129.97 1128.34C1127.56 1127.34 1124.96 1126.89 1122.35 1127.03Z" fill="#179177"/>
<path d="M1131.51 1128.82H1131.25C1128.69 1128.08 1123.25 1124.21 1123.19 1121.68C1123.18 1121.28 1123.32 1120.89 1123.57 1120.57C1123.82 1120.26 1124.17 1120.04 1124.56 1119.95C1124.94 1119.81 1125.35 1119.75 1125.75 1119.79C1126.16 1119.82 1126.55 1119.94 1126.9 1120.14C1129.91 1121.68 1131.83 1127.89 1131.89 1128.18C1131.94 1128.26 1131.96 1128.34 1131.96 1128.43C1131.96 1128.52 1131.94 1128.61 1131.89 1128.69C1131.84 1128.74 1131.78 1128.78 1131.71 1128.8C1131.65 1128.82 1131.58 1128.83 1131.51 1128.82ZM1125.11 1120.85H1124.85C1124.21 1121.07 1124.21 1121.39 1124.21 1121.55C1124.21 1123.06 1127.86 1126.1 1130.61 1127.31C1129.94 1125.52 1128.47 1121.97 1126.51 1120.91C1126.08 1120.72 1125.59 1120.69 1125.14 1120.85H1125.11Z" fill="#179177"/>
<path d="M959.785 1134.42C956.905 1134.42 954.12 1134 953.192 1132.72C952.949 1132.38 952.819 1131.97 952.819 1131.55C952.819 1131.14 952.949 1130.73 953.192 1130.39C953.374 1130.07 953.619 1129.8 953.911 1129.59C954.203 1129.37 954.535 1129.22 954.888 1129.14C958.633 1128.11 966.507 1132.6 966.827 1132.79C966.925 1132.84 967.004 1132.92 967.051 1133.01C967.097 1133.11 967.109 1133.23 967.083 1133.33C967.071 1133.44 967.024 1133.54 966.949 1133.62C966.874 1133.71 966.775 1133.76 966.667 1133.78C964.397 1134.2 962.094 1134.41 959.785 1134.42ZM956.232 1130.03C955.893 1129.98 955.547 1129.98 955.208 1130.03C954.991 1130.08 954.786 1130.17 954.604 1130.29C954.423 1130.42 954.269 1130.58 954.152 1130.77C953.768 1131.44 953.928 1131.76 954.152 1131.96C955.208 1133.43 960.874 1133.46 965.067 1132.85C962.329 1131.36 959.33 1130.4 956.232 1130.03Z" fill="#179177"/>
<path d="M966.635 1133.78H966.411C963.69 1132.56 958.313 1127.7 958.729 1125.14C958.729 1124.53 959.241 1123.79 960.714 1123.67C961.24 1123.6 961.773 1123.65 962.28 1123.81C962.786 1123.96 963.256 1124.22 963.658 1124.56C965.709 1127.01 966.941 1130.05 967.179 1133.24C967.178 1133.33 967.158 1133.42 967.119 1133.5C967.081 1133.58 967.025 1133.66 966.955 1133.72C966.856 1133.77 966.746 1133.79 966.635 1133.78ZM961.13 1124.66H960.81C959.849 1124.66 959.785 1125.11 959.785 1125.23C959.529 1126.77 963.178 1130.61 965.963 1132.28C965.718 1129.71 964.678 1127.28 962.986 1125.33C962.46 1124.88 961.788 1124.64 961.098 1124.66H961.13Z" fill="#179177"/>
<path d="M991.345 1133.27H968.844L966.603 1081.13H989.104L991.345 1133.27Z" fill="#FF8B7B"/>
<path d="M1156.6 1122.83L1134.61 1127.6L1112.49 1079.05L1134.52 1074.28L1156.6 1122.83Z" fill="#FF8B7B"/>
<path d="M1132.47 1125.39L1157.21 1120.05C1157.64 1119.96 1158.09 1120.01 1158.49 1120.21C1158.88 1120.41 1159.2 1120.74 1159.39 1121.14L1167.96 1139.77C1168.19 1140.22 1168.31 1140.71 1168.31 1141.22C1168.31 1141.73 1168.19 1142.22 1167.96 1142.67C1167.72 1143.12 1167.39 1143.51 1166.98 1143.81C1166.57 1144.1 1166.1 1144.3 1165.6 1144.37C1156.95 1146.07 1152.63 1146.49 1141.78 1148.82C1135.09 1150.3 1119.98 1153.98 1110.73 1155.96C1101.48 1157.95 1098.32 1149.08 1101.93 1147.45C1118.1 1140.05 1124.82 1133.56 1129.2 1127.51C1130 1126.43 1131.16 1125.67 1132.47 1125.39Z" fill="#263238"/>
<path d="M969.004 1130.64H993.586C994.032 1130.65 994.464 1130.8 994.813 1131.08C995.161 1131.36 995.405 1131.74 995.506 1132.18L999.955 1152.18C1000.09 1152.67 1000.1 1153.18 1000 1153.67C999.899 1154.16 999.684 1154.62 999.372 1155.01C999.061 1155.4 998.662 1155.71 998.207 1155.92C997.753 1156.13 997.255 1156.23 996.755 1156.22C987.888 1156.06 975.085 1155.54 963.947 1155.54C950.887 1155.54 939.653 1156.25 924.353 1156.25C915.103 1156.25 912.542 1146.9 916.415 1146.04C934.019 1142.2 948.423 1141.78 963.626 1132.4C965.223 1131.33 967.084 1130.72 969.004 1130.64Z" fill="#263238"/>
<path d="M1060 364.889C1081.09 369.722 1098.41 423.591 1098.41 423.591L1056.26 455.823C1045.32 444.124 1037.6 429.787 1033.85 414.213C1026.39 385.982 1038.43 359.895 1060 364.889Z" fill="#179177"/>
<path opacity="0.4" d="M1060 364.889C1081.09 369.722 1098.41 423.591 1098.41 423.591L1056.26 455.823C1045.32 444.124 1037.6 429.787 1033.85 414.213C1026.39 385.982 1038.43 359.895 1060 364.889Z" fill="black"/>
<path d="M949.031 429.128C943.782 434.794 938.532 439.851 933.027 445.132C930.306 447.693 927.554 450.253 924.737 452.718L920.48 456.463L919.424 457.391L917.599 458.864C915.721 460.364 913.642 461.592 911.422 462.512C908.951 463.561 906.296 464.105 903.612 464.113C901.319 464.123 899.042 463.721 896.89 462.929C894.504 462.02 892.326 460.637 890.489 458.864C888.144 456.572 886.425 453.718 885.495 450.574C885.009 449.023 884.698 447.424 884.567 445.804C884.399 443.909 884.399 442.002 884.567 440.107C884.727 438.571 884.919 437.226 885.175 435.978C886.051 431.614 887.293 427.331 888.888 423.175C890.328 419.225 891.984 415.356 893.849 411.588C895.898 407.523 897.85 404.546 899.803 401.154C907.733 388.162 916.783 375.889 926.85 364.473C936.815 353.124 947.796 342.71 959.657 333.361L971.436 345.492C963.178 356.567 955.048 368.442 947.527 380.124C940.04 391.741 933.202 403.762 927.042 416.133C925.665 419.142 923.841 422.535 922.977 424.967C921.832 427.793 920.838 430.678 920 433.609C919.193 436.249 918.583 438.945 918.175 441.675C918.154 442.102 918.154 442.529 918.175 442.956C918.175 443.212 918.175 443.34 918.175 442.668C918.123 441.949 917.983 441.24 917.759 440.555C917.067 438.286 915.799 436.235 914.078 434.602C912.547 433.195 910.752 432.107 908.797 431.401C907.079 430.75 905.257 430.414 903.42 430.409C901.653 430.387 899.9 430.725 898.267 431.401C897.714 431.627 897.179 431.894 896.666 432.201L897.882 431.081L901.755 427.56L909.405 420.39C914.462 415.621 919.552 410.532 924.353 405.795L949.031 429.128Z" fill="#FF8B7B"/>
<path opacity="0.2" d="M1041.92 404.45C1053.38 415.781 1057.12 436.458 1057.92 454.383L1056.06 455.823C1045.12 444.124 1037.4 429.787 1033.66 414.213C1033.24 412.548 1032.86 411.012 1032.57 409.187L1041.92 404.45Z" fill="black"/>
<path d="M926.657 387.294C922.048 411.62 919.168 461.584 932.515 560.488H1053.06C1053.89 542.02 1042.27 451.822 1060.1 364.729C1046.78 362.171 1033.31 360.471 1019.77 359.639C1002.71 358.661 985.612 358.661 968.556 359.639C962.922 360.152 957.353 360.984 952.552 361.848C946.166 362.968 940.272 366.001 935.648 370.545C931.024 375.089 927.889 380.929 926.657 387.294Z" fill="#179177"/>
<path opacity="0.4" d="M926.657 387.294C922.048 411.62 919.168 461.584 932.515 560.488H1053.06C1053.89 542.02 1042.27 451.822 1060.1 364.729C1046.78 362.171 1033.31 360.471 1019.77 359.639C1002.71 358.661 985.612 358.661 968.556 359.639C962.922 360.152 957.353 360.984 952.552 361.848C946.166 362.968 940.272 366.001 935.648 370.545C931.024 375.089 927.889 380.929 926.657 387.294Z" fill="black"/>
<path opacity="0.2" d="M945.094 423.367L923.328 418.15C922.656 431.337 922.592 447.661 923.553 467.858C933.571 456.463 946.374 438.667 945.094 423.367Z" fill="black"/>
<path opacity="0.2" d="M966.603 1081.13L967.755 1108.01H990.289L989.137 1081.13H966.603Z" fill="black"/>
<path opacity="0.2" d="M1134.52 1074.28L1112.49 1079.05L1123.89 1104.08L1145.91 1099.31L1134.52 1074.28Z" fill="black"/>
<path d="M1024.03 285.381C1018.26 306.955 1015.96 319.886 1002.64 328.848C982.639 342.483 957.673 326.863 957.033 304.074C956.329 283.493 965.899 251.645 989.041 247.292C994.126 246.338 999.371 246.694 1004.28 248.327C1009.19 249.961 1013.6 252.817 1017.1 256.628C1020.6 260.439 1023.08 265.078 1024.29 270.109C1025.5 275.139 1025.41 280.395 1024.03 285.381Z" fill="#FF8B7B"/>
<path d="M973.517 286.182C972.429 283.301 967.467 260.991 972.141 255.198C976.814 249.405 1030.11 253.598 1037.98 261.344C1051.07 274.147 1041.98 285.669 1027.67 300.489C1016.92 311.628 1016.5 324.175 1011.06 326.095C1001.46 329.296 986.8 326.287 983.855 316.141C980.911 305.994 973.517 286.182 973.517 286.182Z" fill="#263238"/>
<path d="M1031.51 235.961C1012.69 227.959 977.39 236.826 958.313 232.216C958.07 239.31 960.403 246.252 964.88 251.759C969.358 257.266 975.677 260.966 982.671 262.176C998.496 265.192 1014.57 266.681 1030.68 266.625C1051.62 265.665 1047.52 242.779 1031.51 235.961Z" fill="#263238"/>
<path d="M1034.46 262.016C1041.33 262.692 1048.26 261.37 1054.4 258.207C1057.92 266.721 1038.56 269.057 1034.46 262.016Z" fill="#263238"/>
<path d="M983.759 287.078C983.327 292.629 981.077 297.882 977.358 302.025C972.429 307.435 967.307 304.042 966.443 297.48C965.675 291.527 967.275 281.476 973.293 278.596C979.31 275.715 984.175 280.388 983.759 287.078Z" fill="#FF8B7B"/>
<path d="M975.245 560.584C975.245 560.584 1000.85 732.626 1014.84 797.09C1030.17 867.667 1112.56 1101.16 1112.56 1101.16L1152.86 1092.43C1152.86 1092.43 1095.24 902.107 1082.44 803.427C1072.52 727.633 1053.02 560.52 1053.02 560.52L975.245 560.584Z" fill="#179177"/>
<path d="M1102.89 1087.75C1102.73 1087.75 1110.41 1102.35 1110.41 1102.35L1155.74 1092.52L1151.93 1078.89L1102.89 1087.75Z" fill="#263238"/>
<path opacity="0.3" d="M991.409 621.879C1020.95 627.673 1017.82 737.843 1014.26 794.529C1005.75 754.455 993.266 677.381 984.751 622.679C986.814 621.661 989.164 621.378 991.409 621.879Z" fill="black"/>
<path d="M932.515 560.584C932.515 560.584 929.314 728.913 931.875 797.442C934.435 868.851 959.369 1102.67 959.369 1102.67H997.523C997.523 1102.67 998.899 873.012 1000.72 802.883C1002.58 726.449 1011.8 560.456 1011.8 560.456L932.515 560.584Z" fill="#179177"/>
<path d="M952.04 1087.62C951.847 1087.62 954.184 1103.44 954.184 1103.44H1000.56L1001.84 1089.32L952.04 1087.62Z" fill="#263238"/>
<path d="M973.837 394.784C984.623 423.879 921.216 458.159 921.216 458.159L893.753 422.951C893.753 422.951 912.222 386.398 934.627 369.946C962.314 349.653 965.611 372.635 973.837 394.784Z" fill="#179177"/>
<path opacity="0.4" d="M973.837 394.784C984.623 423.879 921.216 458.159 921.216 458.159L893.753 422.951C893.753 422.951 912.222 386.398 934.627 369.946C962.314 349.653 965.611 372.635 973.837 394.784Z" fill="black"/>
<path d="M1222.28 173.898C1286.08 173.898 1337.8 140.938 1337.8 100.28C1337.8 59.6223 1286.08 26.6625 1222.28 26.6625C1158.48 26.6625 1106.77 59.6223 1106.77 100.28C1106.77 140.938 1158.48 173.898 1222.28 173.898Z" fill="#179177"/>
<path d="M1180.61 137.345C1173 137.321 1165.64 134.615 1159.83 129.704C1154.01 124.793 1150.12 117.99 1148.82 110.491C1147.55 102.368 1149.38 94.0638 1153.96 87.231C1158.53 80.3982 1165.51 75.538 1173.5 73.6179C1180.06 72.1062 1186.93 72.6888 1193.14 75.2839C1199.36 77.879 1204.6 82.356 1208.13 88.0854L1282.3 72.7857C1285.15 72.1615 1288.13 72.6354 1290.64 74.1129C1293.16 75.5904 1295.02 77.9625 1295.87 80.7556C1296.26 82.2241 1296.34 83.7563 1296.12 85.2585C1295.89 86.7608 1295.36 88.2016 1294.56 89.4928C1293.76 90.784 1292.71 91.8985 1291.46 92.7682C1290.22 93.6379 1288.81 94.2445 1287.32 94.551L1285.4 94.9351C1285.12 94.9863 1284.85 95.1024 1284.61 95.2744C1284.38 95.4465 1284.19 95.6699 1284.06 95.9273C1283.94 96.1888 1283.88 96.4725 1283.88 96.7595C1283.88 97.0465 1283.94 97.3303 1284.06 97.5917L1285.37 100.985C1285.81 102.084 1285.85 103.303 1285.49 104.431C1285.13 105.558 1284.38 106.524 1283.38 107.162C1282.6 107.648 1281.93 108.307 1281.44 109.089C1280.94 109.871 1280.64 110.756 1280.54 111.675C1280.44 112.73 1280.02 113.729 1279.32 114.528C1278.62 115.327 1277.69 115.885 1276.66 116.124L1275.16 116.444C1274.12 116.637 1273.04 116.493 1272.08 116.032C1271.13 115.572 1270.34 114.819 1269.84 113.884C1269.18 112.767 1268.18 111.886 1267 111.363C1265.81 110.839 1264.48 110.7 1263.21 110.964C1261.94 111.229 1260.78 111.883 1259.9 112.837C1259.02 113.79 1258.45 114.996 1258.29 116.284C1258.2 117.333 1257.78 118.326 1257.09 119.12C1256.4 119.914 1255.47 120.468 1254.45 120.701L1252.94 121.021C1251.9 121.209 1250.83 121.062 1249.87 120.603C1248.92 120.143 1248.13 119.393 1247.63 118.461C1247.15 117.667 1246.51 116.987 1245.74 116.467C1244.97 115.948 1244.1 115.601 1243.18 115.452C1241.95 115.304 1240.82 114.712 1239.99 113.786C1239.17 112.861 1238.71 111.667 1238.7 110.427V106.778C1238.69 106.492 1238.61 106.213 1238.48 105.959C1238.35 105.705 1238.17 105.482 1237.94 105.306C1237.72 105.13 1237.46 105.004 1237.18 104.938C1236.9 104.871 1236.61 104.866 1236.33 104.921L1212.68 109.787C1211.71 116.34 1208.75 122.437 1204.2 127.247C1199.65 132.058 1193.72 135.349 1187.23 136.673C1185.05 137.119 1182.83 137.344 1180.61 137.345ZM1174.21 76.5306C1166.95 78.2264 1160.6 82.6099 1156.44 88.7983C1152.28 94.9868 1150.63 102.521 1151.8 109.883C1153.06 116.732 1156.73 122.905 1162.14 127.284C1167.56 131.663 1174.36 133.96 1181.32 133.759C1188.28 133.558 1194.94 130.872 1200.09 126.187C1205.25 121.503 1208.55 115.129 1209.41 108.218V107.066L1235.5 101.785C1236.25 101.604 1237.03 101.592 1237.78 101.749C1238.54 101.907 1239.24 102.23 1239.86 102.696C1240.47 103.162 1240.97 103.759 1241.33 104.443C1241.68 105.126 1241.88 105.88 1241.9 106.65V110.299C1241.91 110.733 1242.07 111.152 1242.35 111.484C1242.63 111.817 1243.01 112.042 1243.44 112.123C1244.84 112.324 1246.17 112.84 1247.34 113.633C1248.51 114.426 1249.49 115.475 1250.19 116.7C1250.36 117.046 1250.63 117.33 1250.97 117.513C1251.31 117.697 1251.7 117.771 1252.08 117.725L1253.55 117.405C1253.93 117.308 1254.26 117.095 1254.5 116.795C1254.74 116.495 1254.88 116.125 1254.9 115.74C1255.1 113.748 1255.93 111.871 1257.27 110.381C1258.61 108.891 1260.38 107.865 1262.34 107.452C1264.3 107.039 1266.34 107.259 1268.17 108.082C1269.99 108.904 1271.51 110.286 1272.5 112.027C1272.67 112.37 1272.93 112.653 1273.27 112.837C1273.6 113.02 1273.98 113.095 1274.36 113.051L1275.89 112.731C1276.26 112.63 1276.59 112.413 1276.82 112.114C1277.06 111.815 1277.19 111.448 1277.21 111.067C1277.36 109.662 1277.84 108.311 1278.6 107.118C1279.36 105.926 1280.38 104.923 1281.59 104.185C1281.94 103.931 1282.2 103.566 1282.32 103.149C1282.45 102.731 1282.42 102.285 1282.26 101.881L1280.95 98.4879C1280.68 97.7885 1280.56 97.0382 1280.61 96.2895C1280.66 95.5409 1280.87 94.8119 1281.23 94.1535C1281.59 93.4951 1282.09 92.9231 1282.7 92.4776C1283.3 92.0321 1283.99 91.7238 1284.73 91.5742L1286.68 91.1582C1287.74 90.9328 1288.74 90.4967 1289.62 89.8759C1290.51 89.255 1291.26 88.4622 1291.83 87.5448C1292.4 86.6275 1292.78 85.6044 1292.94 84.5369C1293.11 83.4693 1293.06 82.3792 1292.79 81.3318C1292.17 79.3174 1290.81 77.6139 1288.98 76.5631C1287.15 75.5123 1284.99 75.192 1282.94 75.6664L1206.69 91.5102L1206.12 90.518C1203.05 85.0647 1198.3 80.7567 1192.57 78.2448C1186.84 75.7329 1180.45 75.1537 1174.37 76.5946L1174.21 76.5306ZM1180.61 125.438C1176.63 125.483 1172.73 124.371 1169.37 122.238C1165.4 119.632 1162.46 115.73 1161.05 111.198C1159.63 106.665 1159.83 101.782 1161.62 97.382C1163.4 92.9814 1166.65 89.3355 1170.82 87.0658C1174.99 84.796 1179.82 84.0429 1184.49 84.9349C1189.15 85.8269 1193.36 88.3087 1196.4 91.9573C1199.44 95.6058 1201.12 100.195 1201.15 104.943C1201.18 109.691 1199.57 114.304 1196.58 117.994C1193.59 121.685 1189.42 124.225 1184.77 125.182C1183.41 125.429 1182.02 125.536 1180.64 125.502L1180.61 125.438ZM1180.61 87.6373C1179.41 87.6441 1178.22 87.7619 1177.05 87.9894C1174.82 88.4643 1172.71 89.3739 1170.83 90.666C1168.95 91.9582 1167.35 93.6076 1166.11 95.5203C1164.87 97.4329 1164.01 99.5712 1163.6 101.813C1163.18 104.055 1163.22 106.357 1163.69 108.586C1164.17 110.816 1165.08 112.931 1166.37 114.809C1167.66 116.687 1169.31 118.293 1171.22 119.534C1173.13 120.775 1175.27 121.627 1177.51 122.041C1179.76 122.456 1182.06 122.425 1184.29 121.95C1187.64 121.253 1190.7 119.58 1193.1 117.144C1195.5 114.707 1197.12 111.614 1197.77 108.256C1198.41 104.898 1198.04 101.424 1196.72 98.2735C1195.39 95.1225 1193.16 92.4351 1190.31 90.55C1187.47 88.6654 1184.14 87.6732 1180.74 87.7013L1180.61 87.6373Z" fill="white"/>
<path opacity="0.6" d="M1128.27 217.077C1149.24 217.077 1166.24 206.243 1166.24 192.879C1166.24 179.515 1149.24 168.681 1128.27 168.681C1107.31 168.681 1090.31 179.515 1090.31 192.879C1090.31 206.243 1107.31 217.077 1128.27 217.077Z" fill="#179177"/>
<path opacity="0.3" d="M1067.88 226.999C1076.48 226.999 1083.46 222.557 1083.46 217.077C1083.46 211.597 1076.48 207.154 1067.88 207.154C1059.27 207.154 1052.29 211.597 1052.29 217.077C1052.29 222.557 1059.27 226.999 1067.88 226.999Z" fill="#179177"/>
</svg>
