<svg width="516" height="481" viewBox="0 0 516 481" fill="none" xmlns="http://www.w3.org/2000/svg">
<path d="M369.147 480.692C409.932 480.692 442.994 475.678 442.994 469.492C442.994 463.307 409.932 458.293 369.147 458.293C328.363 458.293 295.301 463.307 295.301 469.492C295.301 475.678 328.363 480.692 369.147 480.692Z" fill="#179177"/>
<path opacity="0.5" d="M369.147 480.692C409.932 480.692 442.994 475.678 442.994 469.492C442.994 463.307 409.932 458.293 369.147 458.293C328.363 458.293 295.301 463.307 295.301 469.492C295.301 475.678 328.363 480.692 369.147 480.692Z" fill="white"/>
<path d="M144.048 464.403C174.709 464.403 199.564 459.388 199.564 453.203C199.564 447.017 174.709 442.003 144.048 442.003C113.388 442.003 88.5325 447.017 88.5325 453.203C88.5325 459.388 113.388 464.403 144.048 464.403Z" fill="#179177"/>
<path opacity="0.5" d="M144.048 464.403C174.709 464.403 199.564 459.388 199.564 453.203C199.564 447.017 174.709 442.003 144.048 442.003C113.388 442.003 88.5325 447.017 88.5325 453.203C88.5325 459.388 113.388 464.403 144.048 464.403Z" fill="white"/>
<path d="M117.056 424.115L145.324 412.351C143.35 409.115 141.376 410.646 138.851 405.409C137.509 402.723 138.69 398.399 136.998 394.934C135.655 392.1 131.479 390.301 129.867 387.051C128.404 384.123 129.464 379.759 127.88 376.603C126.295 373.447 122.226 371.89 120.642 368.814C119.057 365.739 120.091 361.415 118.493 358.393C116.895 355.372 112.718 353.707 111.12 350.725C109.522 347.744 110.368 343.272 108.73 340.358C107.092 337.444 102.781 335.752 101.129 332.945C99.2759 329.803 99.9607 325.358 98.2552 322.685C96.1737 319.435 91.8361 318.254 90.0769 315.971C86.7734 311.673 85.0007 306.946 83.3624 307.269C81.724 307.591 83.1475 312.345 84.0472 318.012C84.5038 320.832 82.382 324.727 83.3221 328.5C84.0741 331.535 87.7805 334.06 88.8011 337.524C89.7009 340.627 87.9014 344.722 88.9623 348.066C90.0232 351.41 93.7565 353.545 94.8442 356.809C95.932 360.072 94.2265 364.141 95.3277 367.351C96.4289 370.56 100.296 372.803 101.411 375.959C102.526 379.114 100.954 383.371 102.083 386.487C103.211 389.603 107.172 391.966 108.287 395.014C109.536 398.385 107.991 402.575 109.093 405.516C110.435 409.088 114.37 411.264 115.404 413.963C117.647 419.858 114.491 419.751 116.344 424.478L117.056 424.115Z" fill="#2E353A"/>
<path d="M86.6123 316.79L128.645 417.763" stroke="white" stroke-width="0.360849" stroke-miterlimit="10"/>
<path d="M95.4352 325.546L92.4808 331.428L86.6257 327.976" stroke="white" stroke-width="0.360849" stroke-miterlimit="10"/>
<path d="M102.741 343.111L99.7997 349.006L93.9446 345.555" stroke="white" stroke-width="0.360849" stroke-miterlimit="10"/>
<path d="M109.63 359.642L106.689 365.538L100.82 362.086" stroke="white" stroke-width="0.360849" stroke-miterlimit="10"/>
<path d="M117.821 379.302L114.867 385.198L109.012 381.747" stroke="white" stroke-width="0.360849" stroke-miterlimit="10"/>
<path d="M126.094 399.178L123.153 405.073L117.298 401.622" stroke="white" stroke-width="0.360849" stroke-miterlimit="10"/>
<path d="M113.86 416.313L159.976 414.849C158.915 409.236 155.329 410.337 154.604 401.622C154.228 397.217 158.122 391.644 157.585 385.869C157.142 381.115 152.294 376.388 151.757 370.95C151.273 366.048 155.101 360.461 154.55 355.17C154.013 350.175 149.098 345.515 148.521 340.331C147.943 335.148 151.69 329.588 151.072 324.498C150.454 319.409 145.445 314.816 144.774 309.726C144.102 304.637 147.701 298.822 146.949 293.853C146.17 288.589 141.04 284.171 140.235 279.323C139.308 273.951 142.652 268.015 141.672 263.369C140.476 257.662 134.957 253.673 133.748 249.483C131.412 241.668 131.425 234.053 128.941 233.637C126.456 233.221 125.919 240.66 124.187 249.054C123.314 253.27 118.224 257.675 117.553 263.45C117.002 268.123 120.87 273.656 120.44 279.068C120.051 283.929 115.337 288.737 115.069 294.001C114.787 298.97 118.909 304.301 118.681 309.484C118.453 314.668 113.9 319.462 113.739 324.579C113.578 329.695 117.768 334.906 117.701 339.955C117.634 345.005 113.095 350.161 113.014 355.143C112.933 360.408 117.258 365.578 117.204 370.466C117.204 375.838 112.745 380.968 112.732 385.708C112.732 391.442 117.083 396.599 117.096 400.977C117.096 410.458 112.719 408.632 112.799 416.273L113.86 416.313Z" fill="#2E353A"/>
<path d="M128.35 248.866L133.601 413.56" stroke="white" stroke-width="0.543628" stroke-miterlimit="10"/>
<path d="M136.099 265.907L128.793 272.622L122.387 264.631" stroke="white" stroke-width="0.543628" stroke-miterlimit="10"/>
<path d="M137.012 294.565L129.706 301.293L123.301 293.302" stroke="white" stroke-width="0.543628" stroke-miterlimit="10"/>
<path d="M137.871 321.53L130.566 328.245L124.16 320.255" stroke="white" stroke-width="0.543628" stroke-miterlimit="10"/>
<path d="M138.892 353.599L131.586 360.327L125.194 352.337" stroke="white" stroke-width="0.543628" stroke-miterlimit="10"/>
<path d="M139.926 386.017L132.62 392.745L126.215 384.755" stroke="white" stroke-width="0.543628" stroke-miterlimit="10"/>
<path d="M141.631 312.721C143.995 314.346 150.36 315.407 150.374 315.407C150.387 315.407 149.81 311.002 149.742 310.72C148.91 307.537 145.445 301.884 141.779 301.682C141.168 301.663 140.56 301.773 139.995 302.005C139.429 302.237 138.919 302.585 138.497 303.028C138.075 303.47 137.751 303.996 137.546 304.571C137.341 305.147 137.26 305.76 137.307 306.369C137.415 308.988 139.603 311.324 141.631 312.721Z" fill="#2E353A"/>
<path d="M205.46 326.54C205.46 326.54 207.434 322.511 207.528 322.282C208.589 319.18 208.871 312.546 205.876 310.344C205.377 309.992 204.809 309.75 204.209 309.632C203.61 309.514 202.992 309.524 202.397 309.661C201.801 309.798 201.241 310.059 200.753 310.426C200.265 310.794 199.86 311.26 199.564 311.794C198.222 314.024 198.759 317.166 199.672 319.449C200.813 322.121 205.46 326.54 205.46 326.54Z" fill="#2E353A"/>
<path d="M228.84 307.242C225.322 306.168 220.098 310.25 218.218 312.949C218.056 313.178 215.921 317.112 215.988 317.126H216.069C215.236 317.757 214.363 318.469 213.383 319.234C211.651 320.684 209.69 322.35 207.689 324.297C205.509 326.37 203.451 328.567 201.525 330.877C199.36 333.459 197.428 336.227 195.751 339.149V339.257C195.979 338.209 196.503 335.228 196.516 335.013C196.718 331.737 195.173 325.277 191.762 323.934C191.186 323.724 190.572 323.639 189.96 323.683C189.348 323.727 188.753 323.9 188.213 324.19C187.673 324.48 187.2 324.882 186.826 325.368C186.451 325.854 186.184 326.413 186.041 327.01C185.343 329.507 186.699 332.381 188.177 334.355C189.855 336.558 195.133 339.405 195.563 339.633C193.929 342.668 192.498 345.809 191.279 349.033C190.567 350.9 189.936 352.793 189.251 354.714C189.412 353.801 189.56 352.968 189.56 352.861C189.761 349.584 188.217 343.124 184.819 341.782C184.245 341.574 183.633 341.489 183.023 341.534C182.414 341.578 181.821 341.75 181.282 342.039C180.744 342.328 180.273 342.727 179.899 343.21C179.525 343.693 179.257 344.25 179.112 344.843C178.4 347.341 179.757 350.215 181.234 352.189C182.711 354.163 187.196 356.688 188.391 357.332L187.666 359.548C186.525 363.08 185.41 366.625 184.215 370.063C183.785 371.272 183.329 372.454 182.872 373.622C183.006 372.816 183.127 372.118 183.141 372.024C183.342 368.734 181.798 362.288 178.387 360.945C177.812 360.735 177.2 360.649 176.59 360.692C175.98 360.735 175.386 360.907 174.847 361.196C174.308 361.486 173.836 361.885 173.462 362.37C173.089 362.854 172.822 363.412 172.679 364.007C171.981 366.504 173.324 369.378 174.815 371.352C176.305 373.326 180.347 375.609 181.744 376.388C181.247 377.57 180.737 378.779 180.2 379.907C179.81 380.672 179.488 381.438 179.058 382.19C178.629 382.942 178.239 383.68 177.836 384.406C177.004 385.748 176.144 387.226 175.298 388.569C174.721 389.495 174.157 390.368 173.579 391.254C174.009 390.046 174.815 387.682 174.922 387.481C175.428 384.636 175.197 381.71 174.251 378.98C174.328 378.663 174.373 378.339 174.385 378.013C174.425 377.404 174.336 376.792 174.125 376.219C173.913 375.646 173.583 375.124 173.156 374.687C172.729 374.25 172.215 373.908 171.647 373.683C171.079 373.457 170.47 373.354 169.859 373.38C166.193 373.635 162.782 379.329 162.003 382.512C162.003 382.7 161.681 384.795 161.52 386.124C161.52 385.332 161.52 384.567 161.439 383.747C161.439 382.136 161.251 380.524 161.144 378.792C161.05 377.96 160.969 377.113 160.875 376.267C160.781 375.421 160.634 374.535 160.513 373.662C160.19 371.634 159.761 369.633 159.277 367.565C160.701 367.565 165.71 367.216 167.912 366.115C170.114 365.014 172.599 363.013 173.082 360.461C173.214 359.865 173.219 359.247 173.096 358.648C172.974 358.05 172.726 357.484 172.37 356.987C172.014 356.491 171.558 356.075 171.03 355.766C170.503 355.458 169.916 355.264 169.309 355.197C165.643 354.888 161.426 360.005 160.163 363.026C160.083 363.228 159.425 365.497 159.076 366.76C158.78 365.538 158.498 364.316 158.163 363.08C157.182 359.548 156.081 355.99 154.993 352.431L154.026 349.168C154.523 349.168 160.499 348.939 162.97 347.704C165.159 346.616 167.657 344.602 168.127 342.05C168.261 341.454 168.268 340.837 168.147 340.238C168.026 339.64 167.78 339.074 167.425 338.577C167.07 338.08 166.614 337.663 166.087 337.355C165.56 337.046 164.974 336.852 164.367 336.786C160.701 336.477 156.47 341.594 155.208 344.628C155.114 344.857 154.161 348.133 153.959 348.98C153.261 346.576 152.616 344.185 151.999 341.795C151.197 338.574 150.61 335.304 150.239 332.005C150.468 332.005 156.699 331.804 159.237 330.541C161.426 329.454 163.924 327.439 164.394 324.888C164.528 324.292 164.534 323.675 164.413 323.076C164.292 322.477 164.046 321.911 163.692 321.414C163.337 320.917 162.881 320.501 162.354 320.192C161.827 319.884 161.241 319.69 160.633 319.623C156.967 319.315 152.737 324.431 151.475 327.453C151.394 327.654 150.669 330.138 150.347 331.347H150.145C149.849 328.019 149.849 324.671 150.145 321.342C150.293 319.516 150.535 317.77 150.803 316.078C151.972 316.159 157.303 316.481 159.707 315.595C162.111 314.708 164.703 313.03 165.455 310.545C165.652 309.967 165.726 309.353 165.67 308.744C165.615 308.135 165.432 307.544 165.133 307.011C164.834 306.477 164.426 306.013 163.935 305.648C163.444 305.283 162.882 305.025 162.285 304.892C158.673 304.18 153.919 308.8 152.334 311.673C152.24 311.835 151.542 313.513 150.991 314.749C151.126 313.997 151.247 313.204 151.394 312.479C151.931 309.793 152.589 307.282 153.194 305.107C153.543 303.871 153.879 302.757 154.214 301.722C155.396 301.199 160.15 299.037 161.842 297.21C163.534 295.384 165.092 292.631 164.622 290.066C164.528 289.467 164.311 288.895 163.983 288.385C163.656 287.875 163.225 287.44 162.72 287.106C162.214 286.772 161.644 286.548 161.047 286.447C160.449 286.346 159.837 286.371 159.25 286.521C155.732 287.555 153.637 293.84 153.543 297.13C153.543 297.412 153.932 301.857 154 301.83C153.664 302.824 153.301 303.885 152.952 305.066C152.294 307.228 151.609 309.686 150.991 312.425C150.315 315.356 149.812 318.325 149.487 321.316C149.096 324.663 149.011 328.038 149.232 331.401C149.226 331.441 149.226 331.482 149.232 331.522C148.829 330.528 147.634 327.762 147.513 327.56C145.888 324.713 141.04 320.161 137.455 320.926C136.861 321.071 136.304 321.339 135.821 321.713C135.337 322.087 134.938 322.558 134.648 323.096C134.358 323.634 134.184 324.227 134.138 324.836C134.092 325.446 134.174 326.058 134.38 326.633C135.172 329.104 137.898 330.783 140.208 331.589C142.826 332.502 148.802 331.965 149.272 331.911C149.574 335.332 150.108 338.729 150.871 342.077C151.287 344.024 151.784 345.985 152.307 347.932C151.931 347.073 151.596 346.321 151.542 346.213C149.904 343.366 145.069 338.827 141.47 339.593C140.875 339.736 140.317 340.003 139.833 340.376C139.348 340.749 138.947 341.22 138.657 341.759C138.367 342.298 138.194 342.891 138.148 343.502C138.103 344.112 138.187 344.724 138.395 345.3C139.187 347.771 141.913 349.436 144.237 350.255C146.56 351.074 151.69 350.712 153.033 350.604C153.247 351.343 153.435 352.095 153.65 352.834C154.658 356.419 155.678 359.991 156.564 363.51C156.887 364.759 157.142 365.994 157.41 367.23C157.088 366.478 156.806 365.887 156.752 365.739C155.114 362.892 150.28 358.353 146.681 359.118C146.087 359.263 145.53 359.531 145.047 359.905C144.563 360.279 144.163 360.75 143.874 361.288C143.584 361.826 143.41 362.419 143.364 363.029C143.318 363.638 143.4 364.25 143.605 364.826C144.398 367.297 147.124 368.975 149.447 369.781C151.77 370.587 156.403 370.278 158.001 370.144C158.243 371.42 158.485 372.695 158.646 373.944C158.753 374.79 158.901 375.609 158.955 376.469C159.009 377.328 159.089 378.161 159.156 379.007C159.237 380.619 159.317 382.284 159.344 383.855C159.344 384.956 159.344 386.004 159.344 387.051C159.049 385.816 158.418 383.398 158.337 383.197C157.155 380.135 153.059 374.911 149.393 375.139C148.785 375.192 148.194 375.373 147.659 375.668C147.125 375.964 146.658 376.368 146.29 376.856C145.922 377.343 145.66 377.902 145.521 378.497C145.383 379.092 145.37 379.71 145.485 380.31C145.902 382.875 148.332 384.943 150.508 386.098C152.885 387.36 158.646 387.749 159.358 387.79C159.358 389.535 159.358 391.227 159.358 392.826C159.277 397.848 159.035 402.092 158.807 405.234L161.238 405.717C161.399 402.495 161.56 398.076 161.547 392.839C161.547 391.066 161.547 389.186 161.439 387.239C163.255 386.901 165.049 386.452 166.811 385.896C168.275 388.26 172.559 391.523 173.109 391.939C172.156 393.403 171.216 394.813 170.316 396.129C167.496 400.225 164.944 403.596 163.051 406.094L165.737 406.604C167.523 404.16 169.765 401.031 172.142 397.338C173.123 395.861 174.13 394.262 175.15 392.611C175.808 392.879 181.14 395.095 183.839 395.014C186.297 394.934 189.399 394.155 190.903 392.033C191.271 391.548 191.534 390.99 191.673 390.397C191.813 389.803 191.826 389.187 191.712 388.588C191.598 387.989 191.36 387.421 191.012 386.92C190.664 386.42 190.215 385.997 189.694 385.681C186.485 383.868 180.509 386.742 178.091 388.958C177.944 389.092 176.56 390.69 175.701 391.644C176.117 390.959 176.52 390.301 176.936 389.603C177.782 388.26 178.575 386.823 179.434 385.319L180.603 383.063C181.019 382.324 181.355 381.478 181.731 380.686C182.577 378.819 183.342 376.885 184.067 374.925C185.289 375.663 189.627 378.188 192.125 378.483C194.623 378.779 197.752 378.483 199.551 376.617C199.991 376.193 200.337 375.681 200.566 375.115C200.795 374.548 200.903 373.94 200.881 373.329C200.86 372.719 200.71 372.119 200.441 371.571C200.173 371.022 199.792 370.536 199.323 370.144C196.435 367.861 190.084 369.795 187.357 371.634C187.196 371.742 185.383 373.273 184.403 374.132C184.833 372.95 185.262 371.782 185.665 370.56C186.793 367.069 187.841 363.496 188.902 359.938C189.224 358.85 189.56 357.762 189.896 356.688C190.325 356.943 195.415 360.059 198.154 360.394C200.599 360.69 203.781 360.394 205.581 358.528C206.021 358.104 206.367 357.592 206.596 357.026C206.825 356.459 206.932 355.851 206.911 355.24C206.889 354.63 206.739 354.03 206.471 353.482C206.202 352.933 205.821 352.447 205.352 352.055C202.465 349.772 196.113 351.706 193.387 353.545C193.186 353.68 190.58 355.895 189.949 356.486C190.674 354.096 191.426 351.719 192.272 349.409C193.38 346.284 194.69 343.233 196.194 340.277C196.395 340.398 201.7 343.675 204.506 344.011C206.95 344.32 210.133 344.011 211.933 342.144C212.373 341.72 212.719 341.208 212.948 340.642C213.177 340.076 213.284 339.467 213.263 338.857C213.241 338.246 213.091 337.647 212.823 337.098C212.554 336.549 212.173 336.063 211.704 335.671C208.817 333.402 202.465 335.336 199.739 337.162C199.564 337.283 197.577 338.961 196.65 339.848L196.489 339.713C198.088 336.779 199.944 333.993 202.035 331.387C203.163 329.95 204.332 328.621 205.487 327.359C206.413 328.057 210.684 331.267 213.182 331.857C215.679 332.448 218.768 332.462 220.769 330.81C221.252 330.436 221.651 329.964 221.94 329.426C222.229 328.888 222.401 328.294 222.445 327.685C222.49 327.076 222.405 326.464 222.197 325.889C221.989 325.315 221.663 324.791 221.239 324.351C218.62 321.772 212.107 323.008 209.153 324.512C208.992 324.606 207.474 325.613 206.386 326.378C206.91 325.814 207.447 325.223 207.971 324.7C209.932 322.726 211.839 321.02 213.544 319.543C214.511 318.697 215.411 317.958 216.23 317.287C217.506 317.502 222.649 318.334 225.08 317.73C227.51 317.126 230.331 315.702 231.338 313.312C231.614 312.755 231.768 312.146 231.79 311.525C231.812 310.904 231.701 310.285 231.464 309.711C231.228 309.136 230.871 308.619 230.419 308.193C229.966 307.767 229.428 307.443 228.84 307.242Z" fill="#2E353A"/>
<path d="M195.616 404.683H95.6633V417.911H195.616V404.683Z" fill="#2E353A"/>
<path d="M179.904 455.942H111.362L102.794 416.447H188.472L179.904 455.942Z" fill="#2E353A"/>
<path d="M96.5094 204.536L95.5022 299.802C95.5022 299.802 91.4735 301.83 80.3004 301.83C69.1274 301.83 65.0987 299.802 65.0987 299.802L69.1274 261.287C69.1274 261.287 54.9597 258.252 54.9597 254.224C54.9597 250.195 86.3704 138.733 86.3704 138.733C86.3704 138.733 102.593 167.029 96.5094 204.536Z" fill="#179177" stroke="#2E353A" stroke-miterlimit="10"/>
<path d="M69.1409 261.274L82.2745 200.574" stroke="#2E353A" stroke-miterlimit="10"/>
<path d="M74.217 138.653C74.217 138.653 92.4538 162.973 94.4816 173.112C96.5094 183.251 96.5094 204.536 96.5094 204.536C102.457 189.618 106.211 173.918 107.656 157.924C109.683 132.583 89.4188 119.409 89.4188 119.409L74.217 138.653Z" fill="#2E353A" stroke="#2E353A" stroke-miterlimit="10"/>
<path d="M416.914 204.536L417.922 299.802C417.922 299.802 421.95 301.83 433.123 301.83C444.296 301.83 448.325 299.802 448.325 299.802L444.296 261.287C444.296 261.287 458.464 258.252 458.464 254.224C458.464 250.195 427.04 138.733 427.04 138.733C427.04 138.733 410.831 167.029 416.914 204.536Z" fill="#179177" stroke="#2E353A" stroke-miterlimit="10"/>
<path d="M444.27 261.274L432.089 190.691" stroke="#2E353A" stroke-miterlimit="10"/>
<path d="M439.207 138.653C439.207 138.653 420.957 162.973 418.929 173.112C416.901 183.251 416.914 204.523 416.914 204.523C410.959 189.607 407.2 173.906 405.755 157.91C403.727 132.569 424.005 119.396 424.005 119.396L439.207 138.653Z" fill="#2E353A" stroke="#2E353A" stroke-miterlimit="10"/>
<path d="M439.059 138.653C383.818 105.983 320.817 88.7471 256.638 88.7471C192.459 88.7471 129.458 105.983 74.2171 138.653L42.2289 84.5604C39.9326 80.7197 42.0946 75.16 47.1306 72.3936C111.153 36.6032 183.277 17.812 256.625 17.812C329.972 17.812 402.096 36.6032 466.119 72.3936C471.141 75.2003 473.317 80.7197 471.02 84.5604L439.059 138.653Z" fill="#179177"/>
<path d="M439.059 138.653C383.818 105.983 320.817 88.7471 256.638 88.7471C192.459 88.7471 129.458 105.983 74.2171 138.653L42.2289 84.5604C39.9326 80.7197 42.0946 75.16 47.1306 72.3936C111.153 36.6032 183.277 17.812 256.625 17.812C329.972 17.812 402.096 36.6032 466.119 72.3936C471.141 75.2003 473.317 80.7197 471.02 84.5604L439.059 138.653Z" stroke="#2E353A" stroke-miterlimit="10"/>
<path d="M115.083 85.1141C114.053 85.4438 113.143 85.4747 112.351 85.2066C111.551 84.9108 110.805 84.306 110.114 83.3924L94.7164 63.3365C93.8701 62.227 93.601 61.1474 93.9091 60.0977C94.236 59.0113 95.1647 58.223 96.695 57.7328C97.7245 57.4031 98.6116 57.3951 99.3563 57.7087C100.092 57.9946 100.792 58.5988 101.455 59.5213L113.65 76.1855L111.688 76.8138L112.39 56.019C112.45 54.8647 112.696 53.9575 113.129 53.2974C113.553 52.6094 114.224 52.1183 115.142 51.8242C116.06 51.5302 116.878 51.5444 117.595 51.867C118.303 52.1618 119.007 52.7799 119.707 53.7213L131.93 70.3304L130.26 70.8651L130.671 50.1639C130.675 49.0274 130.879 48.1336 131.284 47.4824C131.708 46.7944 132.435 46.2855 133.464 45.9558C134.744 45.5458 135.819 45.6925 136.688 46.3957C137.577 47.0622 137.985 48.0972 137.913 49.5008L136.963 74.8386C136.922 75.9561 136.662 76.8678 136.183 77.5736C135.722 78.2427 134.977 78.7421 133.947 79.0718C132.89 79.4105 131.966 79.4458 131.174 79.1777C130.402 78.873 129.67 78.2638 128.978 77.3501L117.8 62.7075L118.843 62.3734L118.14 80.8675C118.072 81.9939 117.811 82.9056 117.36 83.6025C116.899 84.2716 116.14 84.7754 115.083 85.1141Z" fill="#2E353A"/>
<path d="M168.327 68.9192C166.981 69.2076 165.877 69.0849 165.014 68.5511C164.173 67.9825 163.612 67.0397 163.329 65.7226L158.59 43.6044C158.308 42.2873 158.436 41.2116 158.976 40.3772C159.539 39.508 160.493 38.9292 161.839 38.6408L176.398 35.521C177.429 35.3001 178.257 35.3921 178.883 35.797C179.509 36.202 179.926 36.8912 180.134 37.8647C180.349 38.8668 180.257 39.6951 179.858 40.3495C179.453 40.9754 178.736 41.3987 177.705 41.6196L166.581 44.0032L167.815 49.7582L177.993 47.5771C178.995 47.3623 179.809 47.4574 180.435 47.8624C181.09 48.2612 181.524 48.9617 181.739 49.9638C181.954 50.9659 181.844 51.7829 181.411 52.4149C181.006 53.0407 180.302 53.461 179.3 53.6757L169.121 55.8569L170.456 62.0843L181.579 59.7007C182.61 59.4798 183.441 59.5862 184.073 60.0198C184.699 60.4247 185.116 61.1139 185.325 62.0874C185.54 63.0895 185.445 63.9035 185.04 64.5293C184.635 65.1551 183.917 65.5785 182.886 65.7993L168.327 68.9192Z" fill="#2E353A"/>
<path d="M203.809 62.1115C202.537 62.2786 201.493 62.0625 200.679 61.4633C199.89 60.8313 199.412 59.879 199.245 58.6064L196.282 36.0455C196.111 34.7439 196.327 33.7004 196.93 32.9151C197.533 32.1298 198.471 31.6535 199.744 31.4864C201.045 31.3155 202.074 31.5335 202.831 32.1403C203.616 32.7433 204.094 33.6956 204.265 34.9972L206.886 54.9549L217.472 53.5648C218.571 53.4205 219.448 53.5996 220.102 54.1021C220.782 54.5719 221.192 55.3419 221.333 56.4121C221.473 57.4823 221.278 58.3465 220.746 59.0047C220.244 59.6592 219.443 60.0586 218.344 60.2029L203.809 62.1115Z" fill="#2E353A"/>
<path d="M249.715 57.9783C246.299 58.1006 243.341 57.5486 240.841 56.3225C238.342 55.0964 236.392 53.3098 234.992 50.9626C233.622 48.6144 232.879 45.8344 232.764 42.6227C232.679 40.2285 232.966 38.0402 233.626 36.0578C234.315 34.0744 235.335 32.3568 236.686 30.9052C238.067 29.4525 239.751 28.3251 241.74 27.5231C243.757 26.6908 246.035 26.2291 248.575 26.1382C249.918 26.0901 251.311 26.2011 252.753 26.4711C254.224 26.7108 255.524 27.1174 256.656 27.6908C257.489 28.0995 258.078 28.6339 258.424 29.2939C258.769 29.954 258.895 30.6365 258.804 31.3414C258.741 32.0453 258.516 32.6819 258.127 33.2513C257.738 33.8207 257.226 34.2191 256.591 34.4464C255.955 34.6446 255.25 34.5675 254.478 34.2151C253.587 33.8377 252.7 33.5625 251.817 33.3894C250.962 33.1862 250.067 33.1012 249.133 33.1347C247.322 33.1995 245.817 33.6042 244.615 34.3488C243.442 35.0632 242.573 36.0884 242.007 37.4242C241.441 38.76 241.192 40.3915 241.261 42.3185C241.33 44.2456 241.695 45.8697 242.356 47.1908C243.016 48.4828 243.958 49.4577 245.18 50.1156C246.43 50.7432 247.96 51.0247 249.771 50.9599C250.53 50.9327 251.344 50.8158 252.214 50.6093C253.083 50.3736 253.933 50.0362 254.765 49.5971C255.627 49.1862 256.397 49.0563 257.075 49.2074C257.782 49.3575 258.35 49.688 258.777 50.199C259.234 50.7088 259.533 51.3121 259.675 52.0086C259.816 52.676 259.738 53.3512 259.441 54.0342C259.173 54.7162 258.666 55.2752 257.922 55.7111C256.922 56.3609 255.669 56.8881 254.163 57.2928C252.687 57.6965 251.204 57.925 249.715 57.9783Z" fill="#2E353A"/>
<path d="M289.887 58.3518C286.761 58.0704 284.074 57.1659 281.826 55.6382C279.58 54.0812 277.908 52.0457 276.809 49.5316C275.739 47.0202 275.347 44.1722 275.634 40.9876C275.849 38.5919 276.411 36.4481 277.317 34.5564C278.253 32.6672 279.471 31.0833 280.97 29.8045C282.499 28.5283 284.26 27.6118 286.254 27.0549C288.251 26.4688 290.417 26.281 292.755 26.4913C295.881 26.7727 298.554 27.6759 300.772 29.201C303.021 30.7287 304.694 32.7496 305.793 35.2637C306.895 37.7485 307.301 40.5979 307.012 43.8117C306.797 46.2074 306.221 48.3498 305.285 50.239C304.379 52.1307 303.16 53.7293 301.628 55.0347C300.129 56.3135 298.381 57.2459 296.384 57.832C294.39 58.3889 292.225 58.5621 289.887 58.3518ZM290.495 51.6028C292.043 51.7422 293.391 51.4953 294.538 50.8622C295.684 50.229 296.612 49.2522 297.32 47.9316C298.027 46.611 298.468 44.9866 298.642 43.0583C298.902 40.1659 298.462 37.8584 297.321 36.1358C296.18 34.4132 294.455 33.448 292.147 33.2403C290.628 33.1036 289.281 33.3505 288.105 33.9809C286.96 34.5848 286.034 35.5471 285.327 36.8677C284.621 38.159 284.181 39.7835 284.004 41.741C283.744 44.6334 284.183 46.9555 285.321 48.7073C286.462 50.4299 288.187 51.3951 290.495 51.6028Z" fill="#2E353A"/>
<path d="M326.059 62.6125C324.923 62.3381 324.118 61.8131 323.644 61.0373C323.199 60.2685 323.113 59.3161 323.388 58.1801L329.099 34.5374C329.38 33.3731 329.919 32.5716 330.717 32.133C331.521 31.666 332.519 31.5765 333.712 31.8646C334.706 32.1047 335.439 32.4922 335.911 33.027C336.418 33.5402 336.807 34.2954 337.077 35.2924L342.264 53.9481L340.773 53.5879L353.861 39.3467C354.585 38.5898 355.275 38.0953 355.932 37.8633C356.625 37.6098 357.468 37.6031 358.462 37.8432C359.598 38.1176 360.389 38.6392 360.834 39.4081C361.315 40.1554 361.415 41.1112 361.133 42.2756L355.422 65.9183C355.148 67.0542 354.637 67.8626 353.89 68.3433C353.143 68.8241 352.187 68.9238 351.022 68.6425C349.886 68.3681 349.081 67.8431 348.608 67.0674C348.162 66.2985 348.077 65.3461 348.351 64.2101L351.891 49.5559L352.785 49.772L343.046 60.0431C342.497 60.5719 341.958 60.9376 341.428 61.1402C340.927 61.3497 340.307 61.3653 339.568 61.1869C338.858 61.0154 338.314 60.7186 337.935 60.2964C337.556 59.8743 337.257 59.3062 337.039 58.5922L333.03 44.9548L334.009 45.1915L330.459 59.8882C330.185 61.0242 329.674 61.8326 328.927 62.3133C328.179 62.794 327.223 62.8938 326.059 62.6125Z" fill="#2E353A"/>
<path d="M382.861 77.6183C381.58 77.1227 380.726 76.416 380.298 75.4985C379.907 74.5642 379.955 73.4704 380.44 72.217L388.587 51.1691C389.072 49.9158 389.768 49.0887 390.675 48.6879C391.62 48.2704 392.733 48.3095 394.013 48.8052L407.868 54.168C408.849 54.5477 409.49 55.0776 409.79 55.7579C410.091 56.4382 410.062 57.2415 409.704 58.1679C409.334 59.1215 408.804 59.7622 408.114 60.0901C407.433 60.3907 406.603 60.3512 405.622 59.9715L395.037 55.8742L392.917 61.3508L402.603 65.1C403.557 65.4691 404.184 65.9938 404.484 66.6741C404.812 67.3649 404.791 68.1871 404.422 69.1408C404.053 70.0944 403.515 70.7162 402.807 71.0063C402.127 71.3069 401.31 71.2726 400.357 70.9035L390.67 67.1543L388.377 73.0804L398.962 77.1776C399.943 77.5573 400.578 78.1009 400.868 78.8084C401.169 79.4887 401.14 80.292 400.781 81.2184C400.412 82.172 399.887 82.7991 399.207 83.0997C398.527 83.4003 397.696 83.3608 396.716 82.9811L382.861 77.6183Z" fill="#2E353A"/>
<path d="M372.947 201.313C372.947 201.313 355.866 188.69 347.66 182.512C339.455 176.335 325.395 158.609 321.876 150.82C320.136 146.81 318.181 142.896 316.021 139.096C316.021 139.096 317.646 131.267 317.646 129.333C317.646 127.399 316.075 124.848 315.081 123.209C314.584 122.39 311.053 117.703 311.053 121.276C311.053 124.069 312.731 125.465 312.731 127.144C310.47 125.895 308.608 124.033 307.36 121.772C305.399 118.147 304.566 116.737 303.438 117.583C301.437 119.087 304.002 122.954 304.002 122.954C304.002 122.954 303.438 117.583 300.645 118.469C299.033 118.952 301.209 123.505 302.324 125.465C303.438 127.426 301.76 124.123 302.042 127.426C302.243 129.884 305.05 135.927 307.642 138.895C308.582 139.982 310.771 139.647 310.999 140.023C311.831 141.366 320.789 162.127 326.939 172.481C333.09 182.835 336.742 185.91 341.778 190.946C346.814 195.982 353.529 204.657 359.397 208.847C365.266 213.037 368.355 211.371 371.712 208.565C375.069 205.758 375.566 204.16 372.947 201.313Z" fill="white" stroke="#2E353A" stroke-linecap="round" stroke-linejoin="round"/>
<path d="M312.637 127.131C312.637 127.131 310.113 131.898 311.294 133.845" stroke="#2E353A" stroke-linecap="round" stroke-linejoin="round"/>
<path d="M303.962 122.941L306.205 127.131" stroke="#2E353A" stroke-linecap="round" stroke-linejoin="round"/>
<path d="M306.473 136.652C304.546 134.206 302.859 131.58 301.438 128.809C300.323 126.016 301.169 119.866 302.848 120.98C304.526 122.095 303.962 128.259 303.962 128.259L307.32 132.167" fill="white"/>
<path d="M306.473 136.652C304.546 134.206 302.859 131.58 301.438 128.809C300.323 126.016 301.169 119.866 302.848 120.98C304.526 122.095 303.962 128.259 303.962 128.259L307.32 132.167" stroke="#2E353A" stroke-linecap="round" stroke-linejoin="round"/>
<path d="M376.56 166.424C376.56 166.424 367.979 163.295 369.536 152.364C371.094 141.433 380.468 146.898 380.468 146.898C380.468 146.898 371.067 134.396 390.231 131.67C409.394 128.944 423.441 146.119 428.128 165.242C432.814 184.366 403.123 186.326 407.42 200.789C411.717 215.253 428.517 231.676 425.778 251.565C423.038 271.453 395.71 282.452 383.207 271.87C370.705 261.288 365.629 244.931 372.706 230.051C379.783 215.172 383.637 197.634 385.584 189.764C387.531 181.895 376.56 166.424 376.56 166.424Z" fill="#2E353A" stroke="#2E353A" stroke-linecap="round" stroke-linejoin="round"/>
<path d="M407.286 181.035C395.535 176.335 389.492 157.198 389.492 146.455C389.492 135.712 404.6 141.084 404.6 141.084C404.6 141.084 389.828 143.769 397.214 158.206C404.6 172.642 417.693 177.006 424.408 172.642" stroke="white" stroke-width="0.75" stroke-linecap="round" stroke-linejoin="round"/>
<path d="M404.936 191.443C404.936 191.443 394.528 194.8 397.55 207.893C400.571 220.987 423.736 237.437 417.022 254.224C410.307 271.01 398.557 277.725 384.456 272.689" stroke="white" stroke-width="0.75" stroke-linecap="round" stroke-linejoin="round"/>
<path d="M399.9 194.129C399.9 194.129 388.485 198.829 387.142 215.615C385.799 232.401 399.564 246.838 393.185 255.231C386.806 263.624 376.399 262.617 373.042 257.581" stroke="white" stroke-width="0.75" stroke-linecap="round" stroke-linejoin="round"/>
<path d="M373.834 184.782C373.834 184.782 375.002 189.079 371.148 195.727C367.294 202.374 365.293 203.918 365.293 203.918L379.353 202.75L388.337 186.34C388.337 186.34 374.613 187.521 373.834 184.782Z" fill="white" stroke="#2E353A" stroke-linecap="round" stroke-linejoin="round"/>
<path d="M387.894 148.456C387.894 148.456 374.223 160.959 371.484 171.89C368.744 182.821 372.263 189.858 377.352 189.858C382.442 189.858 392.97 185.561 392.97 185.561C392.97 185.561 396.099 188.247 399.215 186.742C400.107 186.311 400.867 185.649 401.417 184.825C401.967 184.001 402.287 183.045 402.344 182.056C402.344 182.056 380.857 160.959 387.894 148.456Z" fill="white" stroke="#2E353A" stroke-linecap="round" stroke-linejoin="round"/>
<path d="M382.106 167.217C381.166 168.412 380.038 169.083 379.568 168.721C379.098 168.358 379.474 167.096 380.414 165.901C381.354 164.705 382.482 164.034 382.939 164.396C383.395 164.759 383.033 166.021 382.106 167.217Z" fill="#2E353A"/>
<path d="M388.606 174.025C387.679 175.234 386.538 175.905 386.068 175.543C385.598 175.18 385.987 173.918 386.914 172.722C387.84 171.527 388.982 170.842 389.452 171.205C389.922 171.568 389.532 172.83 388.606 174.025Z" fill="#2E353A"/>
<path d="M381.488 169.768C379.894 170.33 378.36 171.05 376.909 171.917C375.687 172.83 377.822 174.052 377.822 174.052" stroke="#2E353A" stroke-width="0.75" stroke-linecap="round" stroke-linejoin="round"/>
<path d="M374.156 177.1C374.376 178.094 374.912 178.988 375.685 179.65C376.458 180.311 377.425 180.703 378.44 180.767C380.359 181.054 382.316 180.618 383.932 179.544" stroke="#2E353A" stroke-width="0.75" stroke-linecap="round" stroke-linejoin="round"/>
<path d="M381.797 159.387C382.769 159.236 383.76 159.471 384.559 160.044C385.358 160.617 385.9 161.481 386.068 162.449" stroke="#2E353A" stroke-width="0.75" stroke-linecap="round" stroke-linejoin="round"/>
<path d="M388.821 167.029C388.821 167.029 394.004 168.855 392.487 172.83" stroke="#2E353A" stroke-width="0.75" stroke-linecap="round" stroke-linejoin="round"/>
<path d="M337.575 451.887C337.575 451.887 330.35 456.708 327.933 457.903C325.516 459.098 315.296 460.911 314.987 463.624C314.679 466.337 320.104 467.841 326.134 467.841C332.163 467.841 339.375 467.841 342.987 468.445C346.6 469.049 349.017 470.244 350.521 466.337C352.025 462.429 349.608 452.182 349.608 452.182C349.608 452.182 343.296 454.6 337.575 451.887Z" fill="#179177" stroke="#2E353A" stroke-linecap="round" stroke-linejoin="round"/>
<path d="M340.274 344.709C340.274 344.709 336.071 364.275 336.071 370.6C336.071 376.926 338.475 417.871 339.079 429.299C339.372 436.86 338.867 444.431 337.575 451.887C337.575 451.887 342.692 454.291 344.8 454.291C346.908 454.291 349.608 452.182 349.608 452.182C349.608 452.182 355.637 425.687 355.637 411.546C355.637 397.405 356.832 389.267 355.637 380.229C354.442 371.191 350.266 354.647 351.716 348.617C353.166 342.587 344.8 335.671 340.274 344.709Z" fill="#2E353A" stroke="#2E353A" stroke-linecap="round" stroke-linejoin="round"/>
<path d="M340.234 258.252C340.234 258.252 335.104 292.98 335.104 318.751C335.104 344.521 346.049 375.395 348.775 379.692C351.501 383.989 375.338 426.949 380.804 435.933C384.671 442.745 387.873 449.913 390.365 457.339C392.272 457.926 394.234 458.317 396.22 458.507C398.181 458.507 400.907 456.171 400.907 456.171C400.907 456.171 388.23 406.631 383.154 393.752C378.077 380.874 367.576 370.708 364.85 365.685C362.124 360.663 360.942 341.07 360.942 341.07C360.942 341.07 376.949 315.689 379.743 302.018C382.536 288.347 375.002 273.025 371.873 267.653C369.828 263.991 368.003 260.211 366.407 256.332C366.407 256.332 350.011 266.028 340.234 258.252Z" fill="#2E353A" stroke="#2E353A" stroke-linecap="round" stroke-linejoin="round"/>
<path d="M369.926 244.152C369.926 244.152 379.689 214.084 382.012 207.047C384.335 200.01 380.83 197.284 370.288 198.453C359.747 199.621 341.389 207.853 340.61 216.81C339.831 225.767 343.296 230.871 343.296 235.168C343.296 239.465 337.119 258.253 341.819 262.12C346.519 265.988 361.345 264.806 365.642 259.434C369.939 254.063 369.926 244.152 369.926 244.152Z" fill="#179177" stroke="#2E353A" stroke-linecap="round" stroke-linejoin="round"/>
<path d="M372.948 201.313C373.514 206.226 372.304 211.18 369.537 215.279C364.85 222.692 354.308 219.966 355.087 211.761C355.866 203.556 365.803 196.747 372.948 201.313Z" fill="white" stroke="#2E353A" stroke-linecap="round" stroke-linejoin="round"/>
<path d="M366.287 212.943C367.557 212.74 368.766 212.256 369.826 211.527C370.886 210.798 371.77 209.841 372.413 208.727C373.056 207.613 373.443 206.369 373.545 205.086C373.646 203.804 373.461 202.515 373.001 201.313C372.71 200.485 372.206 199.748 371.538 199.177C370.871 198.606 370.064 198.222 369.201 198.063C362.486 196.895 333.264 199.232 325.838 198.453C318.412 197.674 290.305 180.485 282.865 173.851C275.425 167.217 272.713 163.698 272.713 160.959C272.713 158.219 270.752 151.975 269.194 150.027C267.636 148.08 264.897 144.159 264.897 144.159C264.897 144.159 262.211 144.159 262.56 145.73C263.196 147.484 263.978 149.182 264.897 150.806C264.897 150.806 257.081 146.119 255.134 144.092C254.938 143.822 254.689 143.596 254.4 143.428C254.112 143.26 253.792 143.155 253.461 143.118C253.13 143.081 252.794 143.114 252.476 143.215C252.159 143.316 251.865 143.481 251.615 143.702L255.913 148.389C255.913 148.389 255.523 151.518 258.599 156.594C260.925 160.061 263.832 163.101 267.193 165.578C267.193 165.578 282.811 183.936 294.535 194.088C306.259 204.241 317.176 210.499 326.953 212.056C335.574 213.507 349.03 216.099 366.287 212.943Z" fill="white" stroke="#2E353A" stroke-linecap="round" stroke-linejoin="round"/>
<path d="M390.419 457.339C390.419 457.339 384.241 463.933 380.025 466.632C375.808 469.331 370.383 471.158 371.296 473.561C372.209 475.965 383.382 475.67 388.754 475.361C394.125 475.052 405.003 469.989 406.816 468.74C408.629 467.491 400.961 456.171 400.961 456.171C400.961 456.171 395.092 459.474 390.419 457.339Z" fill="#179177" stroke="#2E353A" stroke-linecap="round" stroke-linejoin="round"/>
<path d="M388.821 475.361C394.192 475.066 405.07 469.989 406.883 468.74C407.38 468.405 407.138 467.277 406.547 465.84C400.432 468.871 393.976 471.162 387.317 472.662C378.507 474.542 373.512 473.655 371.269 472.944C371.262 473.154 371.293 473.363 371.363 473.561C372.195 475.965 383.328 475.67 388.821 475.361Z" fill="#2E353A" stroke="#2E353A" stroke-linecap="round" stroke-linejoin="round"/>
<path d="M350.521 466.404C350.789 465.606 350.939 464.774 350.964 463.933C348.574 465.867 346.841 464.953 342.987 465.195C338.166 465.504 336.367 465.504 326.429 465.504C322.539 465.6 318.665 464.958 315.014 463.611C315.02 463.637 315.02 463.665 315.014 463.691C314.719 466.377 320.131 467.908 326.16 467.908C332.19 467.908 339.402 467.908 343.014 468.512C346.626 469.116 349.017 470.244 350.521 466.404Z" fill="#2E353A" stroke="#2E353A" stroke-linecap="round" stroke-linejoin="round"/>
<path d="M360.942 341.016C360.942 341.016 362.057 322.43 364.111 318.751C366.166 315.071 371.054 310.169 374.317 307.309" stroke="white" stroke-width="0.75" stroke-linecap="round" stroke-linejoin="round"/>
</svg>
