<svg width="1251" height="1159" viewBox="0 0 1251 1159" fill="none" xmlns="http://www.w3.org/2000/svg">
<path d="M645.745 1158.16C947.728 1158.16 1192.53 1136.67 1192.53 1110.15C1192.53 1083.64 947.728 1062.14 645.745 1062.14C343.762 1062.14 98.9558 1083.64 98.9558 1110.15C98.9558 1136.67 343.762 1158.16 645.745 1158.16Z" fill="#179177"/>
<path opacity="0.5" d="M645.745 1158.16C947.728 1158.16 1192.53 1136.67 1192.53 1110.15C1192.53 1083.64 947.728 1062.14 645.745 1062.14C343.762 1062.14 98.9558 1083.64 98.9558 1110.15C98.9558 1136.67 343.762 1158.16 645.745 1158.16Z" fill="white"/>
<path d="M88.1692 502.901V531.291" stroke="#263238" stroke-linecap="round" stroke-linejoin="round"/>
<path d="M102.381 517.112H73.9897" stroke="#263238" stroke-linecap="round" stroke-linejoin="round"/>
<path d="M1056.95 259.641V288.032" stroke="#263238" stroke-linecap="round" stroke-linejoin="round"/>
<path d="M1071.13 273.853H1042.74" stroke="#263238" stroke-linecap="round" stroke-linejoin="round"/>
<path d="M653.651 39.8759V68.2668" stroke="#263238" stroke-linecap="round" stroke-linejoin="round"/>
<path d="M667.83 54.0553H639.439" stroke="#263238" stroke-linecap="round" stroke-linejoin="round"/>
<path d="M186.337 820.866V849.257" stroke="#263238" stroke-linecap="round" stroke-linejoin="round"/>
<path d="M200.516 835.045H172.125" stroke="#263238" stroke-linecap="round" stroke-linejoin="round"/>
<path d="M1044.24 157.312C1044.25 161.96 1042.88 166.506 1040.3 170.374C1037.72 174.241 1034.05 177.257 1029.76 179.041C1025.47 180.824 1020.74 181.294 1016.18 180.391C1011.62 179.488 1007.44 177.253 1004.15 173.968C1000.86 170.684 998.617 166.498 997.708 161.94C996.799 157.381 997.262 152.656 999.04 148.361C1000.82 144.066 1003.83 140.395 1007.69 137.812C1011.56 135.229 1016.1 133.851 1020.75 133.851C1026.97 133.851 1032.94 136.322 1037.35 140.721C1041.75 145.12 1044.23 151.087 1044.24 157.312Z" stroke="#263238" stroke-linecap="round" stroke-linejoin="round"/>
<path d="M39.6326 721.019C51.6038 716.06 57.2887 702.336 52.33 690.365C47.3714 678.393 33.647 672.709 21.6758 677.667C9.70459 682.626 4.01979 696.35 8.97843 708.321C13.9371 720.293 27.6614 725.977 39.6326 721.019Z" stroke="#263238" stroke-linecap="round" stroke-linejoin="round"/>
<path d="M1150.92 397.371C1150.98 398.105 1150.89 398.844 1150.64 399.54C1150.4 400.236 1150.02 400.874 1149.52 401.415C1149.02 401.956 1148.41 402.387 1147.74 402.682C1147.06 402.977 1146.33 403.129 1145.59 403.129C1144.86 403.129 1144.13 402.977 1143.45 402.682C1142.78 402.387 1142.17 401.956 1141.67 401.415C1141.17 400.874 1140.79 400.236 1140.55 399.54C1140.3 398.844 1140.21 398.105 1140.27 397.371C1140.37 396.029 1140.98 394.775 1141.96 393.861C1142.95 392.947 1144.25 392.439 1145.59 392.439C1146.94 392.439 1148.24 392.947 1149.22 393.861C1150.21 394.775 1150.82 396.029 1150.92 397.371Z" stroke="#263238" stroke-linecap="round" stroke-linejoin="round"/>
<path d="M336.87 320.552C336.876 321.611 336.568 322.647 335.984 323.53C335.401 324.414 334.568 325.104 333.592 325.513C332.616 325.923 331.54 326.033 330.501 325.831C329.462 325.628 328.507 325.121 327.756 324.375C327.005 323.629 326.493 322.677 326.284 321.639C326.075 320.601 326.179 319.525 326.583 318.546C326.987 317.567 327.672 316.731 328.551 316.142C329.431 315.553 330.466 315.239 331.524 315.239C332.937 315.239 334.291 315.798 335.293 316.793C336.294 317.789 336.861 319.14 336.87 320.552Z" stroke="#263238" stroke-linecap="round" stroke-linejoin="round"/>
<path d="M1233.89 635.317V635.157H1233.7V634.997C1229.25 634.549 1183.19 630.611 1141.16 652.441C1159.73 629.119 1168.29 599.389 1164.98 569.765C1154.83 468.3 1059.09 410.238 1051.7 405.885V405.917H1051.48H1051.25C1043.86 410.27 948.122 468.332 937.976 569.797C935.808 589.438 938.832 609.304 946.746 627.411C892.845 595.179 829.982 600.62 824.188 601.196V601.004V601.228H823.964V601.388C821.116 607.95 785.139 694.467 828.349 767.989C867.015 833.733 948.09 816.353 970.112 810.175C988.612 829.604 1022.35 873.839 1037.33 949.313H1016.33L1026.09 1092.45H1073.34L1083.71 949.505H1058.97C1070.3 898.346 1090.75 849.645 1119.33 805.726C1141.39 811.231 1201.05 820.514 1230.46 770.518C1265.42 710.823 1236.22 640.662 1233.89 635.317ZM1049.97 634.773L1000.04 565.412C999.933 565.269 999.857 565.107 999.814 564.935C999.771 564.762 999.763 564.583 999.789 564.407C999.816 564.232 999.877 564.063 999.97 563.911C1000.06 563.76 1000.18 563.628 1000.33 563.523C1000.62 563.308 1000.99 563.217 1001.35 563.271C1001.71 563.325 1002.03 563.519 1002.25 563.811L1050.07 630.227V559.97L1000.14 490.641C999.919 490.348 999.829 489.982 999.883 489.622C999.937 489.262 1000.13 488.938 1000.42 488.721C1000.72 488.517 1001.09 488.436 1001.45 488.496C1001.81 488.555 1002.13 488.751 1002.34 489.041L1050.16 555.457V453.032C1050.16 452.856 1050.2 452.681 1050.27 452.518C1050.33 452.355 1050.43 452.207 1050.56 452.082C1050.68 451.957 1050.83 451.858 1050.99 451.79C1051.16 451.723 1051.33 451.688 1051.51 451.688C1051.86 451.688 1052.21 451.83 1052.46 452.082C1052.71 452.334 1052.85 452.676 1052.85 453.032V551.904L1104.7 486.16C1104.93 485.876 1105.25 485.691 1105.61 485.646C1105.96 485.601 1106.32 485.7 1106.61 485.92C1106.89 486.141 1107.08 486.466 1107.12 486.823C1107.17 487.18 1107.07 487.54 1106.85 487.825L1052.85 556.289V626.707L1104.7 560.931C1104.93 560.648 1105.26 560.466 1105.62 560.425C1105.98 560.383 1106.34 560.484 1106.62 560.707C1106.76 560.816 1106.88 560.951 1106.97 561.105C1107.05 561.259 1107.11 561.429 1107.13 561.604C1107.15 561.78 1107.14 561.957 1107.09 562.127C1107.04 562.297 1106.96 562.456 1106.85 562.595L1052.85 631.092V690.786L1104.7 625.042C1104.93 624.758 1105.25 624.573 1105.61 624.528C1105.96 624.483 1106.32 624.581 1106.61 624.802C1106.89 625.023 1107.08 625.347 1107.12 625.705C1107.17 626.062 1107.07 626.422 1106.85 626.707L1052.85 695.171V696.484H1048.5L1000.2 629.267C999.983 628.974 999.893 628.607 999.947 628.248C1000 627.888 1000.2 627.564 1000.49 627.347C1000.79 627.143 1001.15 627.062 1001.51 627.121C1001.87 627.181 1002.19 627.376 1002.41 627.667L1050.07 693.987V634.644L1049.97 634.773ZM970.624 804.062L965.727 797.34L895.31 777.751C895.028 777.656 894.793 777.458 894.651 777.197C894.508 776.936 894.469 776.631 894.541 776.343C894.624 776.051 894.818 775.803 895.081 775.654C895.345 775.504 895.657 775.464 895.95 775.543L963.422 794.363L934.071 754.226L863.654 734.637C863.362 734.555 863.114 734.361 862.965 734.097C862.815 733.833 862.775 733.521 862.854 733.229C862.949 732.947 863.147 732.712 863.408 732.57C863.669 732.427 863.974 732.388 864.262 732.46L931.766 751.281L897.07 703.781L826.653 684.193C826.51 684.156 826.376 684.091 826.26 684.001C826.143 683.911 826.046 683.798 825.974 683.669C825.902 683.54 825.857 683.398 825.842 683.252C825.826 683.105 825.841 682.957 825.885 682.816C825.922 682.673 825.987 682.538 826.077 682.42C826.166 682.303 826.278 682.203 826.406 682.129C826.534 682.055 826.675 682.006 826.822 681.987C826.969 681.968 827.118 681.977 827.261 682.016L894.765 700.837L845.954 634.068C845.777 633.822 845.705 633.515 845.753 633.216C845.801 632.916 845.965 632.647 846.21 632.468C846.328 632.377 846.463 632.311 846.607 632.275C846.752 632.238 846.902 632.232 847.049 632.256C847.196 632.28 847.337 632.334 847.462 632.414C847.588 632.495 847.695 632.6 847.778 632.724L898.286 701.797L898.062 633.332C898.07 633.029 898.194 632.741 898.409 632.526C898.623 632.312 898.911 632.188 899.215 632.18C899.515 632.188 899.8 632.313 900.009 632.529C900.218 632.744 900.335 633.032 900.335 633.332L900.847 704.806L935.543 752.273L935.031 683.808C935.003 683.643 935.012 683.474 935.056 683.312C935.101 683.151 935.18 683.001 935.288 682.873C935.396 682.745 935.531 682.642 935.683 682.572C935.835 682.501 936 682.465 936.168 682.465C936.335 682.465 936.501 682.501 936.653 682.572C936.804 682.642 936.939 682.745 937.047 682.873C937.156 683.001 937.235 683.151 937.279 683.312C937.323 683.474 937.332 683.643 937.304 683.808L937.816 755.314L967.135 795.42L966.623 726.955C966.631 726.655 966.756 726.37 966.972 726.161C967.187 725.952 967.475 725.835 967.775 725.835C968.072 725.835 968.357 725.953 968.567 726.163C968.777 726.373 968.896 726.658 968.896 726.955L969.408 798.46L973.601 804.19L970.624 804.062ZM978.626 804.062C988.868 788.474 1018.44 737.294 1000.78 688.034C1014.51 697.095 1029.21 704.609 1044.59 710.439V932.701C1028.37 864.588 997.831 823.875 979.202 804.062H978.626ZM1055.44 919.002V711.463C1070.09 706.146 1084.13 699.301 1097.34 691.042C1069.14 736.237 1100.74 788.442 1109.06 800.765C1085.37 837.27 1067.29 877.127 1055.44 919.002ZM1231.23 702.341L1174.23 718.345L1146.06 756.754L1200.82 741.486C1200.94 741.448 1201.07 741.434 1201.19 741.445C1201.31 741.457 1201.43 741.494 1201.54 741.554C1201.65 741.614 1201.74 741.696 1201.82 741.795C1201.89 741.893 1201.95 742.006 1201.98 742.127C1202.04 742.36 1202 742.607 1201.88 742.816C1201.76 743.025 1201.57 743.18 1201.34 743.247L1144.33 759.251L1120.52 791.803L1175.28 776.535C1175.51 776.476 1175.76 776.509 1175.97 776.629C1176.18 776.748 1176.33 776.944 1176.4 777.175C1176.46 777.413 1176.43 777.664 1176.31 777.879C1176.19 778.093 1176 778.253 1175.76 778.327L1118.76 794.331L1115.75 798.428C1115.2 798.108 1114.69 797.82 1114.18 797.468L1115.88 795.132L1116.32 737.133C1116.3 736.999 1116.3 736.861 1116.34 736.729C1116.37 736.597 1116.43 736.474 1116.52 736.369C1116.61 736.264 1116.72 736.18 1116.84 736.122C1116.96 736.064 1117.1 736.034 1117.24 736.034C1117.37 736.034 1117.51 736.064 1117.63 736.122C1117.75 736.18 1117.86 736.264 1117.95 736.369C1118.04 736.474 1118.1 736.597 1118.13 736.729C1118.17 736.861 1118.17 736.999 1118.15 737.133L1117.76 792.699L1141.32 759.987L1141.74 701.989C1141.74 701.868 1141.76 701.749 1141.81 701.638C1141.86 701.527 1141.92 701.427 1142.01 701.344C1142.1 701.26 1142.2 701.195 1142.31 701.151C1142.43 701.108 1142.55 701.088 1142.67 701.093C1142.79 701.093 1142.91 701.117 1143.02 701.163C1143.13 701.21 1143.24 701.278 1143.32 701.365C1143.41 701.451 1143.48 701.553 1143.52 701.666C1143.57 701.778 1143.59 701.899 1143.59 702.021L1143.18 757.554L1171.34 719.145L1171.76 661.147C1171.76 661.025 1171.78 660.904 1171.83 660.792C1171.88 660.679 1171.95 660.577 1172.03 660.491C1172.12 660.404 1172.22 660.336 1172.33 660.289C1172.45 660.243 1172.57 660.219 1172.69 660.219C1172.81 660.219 1172.93 660.243 1173.04 660.29C1173.15 660.337 1173.25 660.406 1173.33 660.492C1173.42 660.579 1173.48 660.682 1173.53 660.794C1173.57 660.907 1173.59 661.027 1173.59 661.147L1173.2 716.68L1214.17 660.635C1214.32 660.442 1214.53 660.315 1214.77 660.279C1215.01 660.243 1215.26 660.302 1215.45 660.443C1215.55 660.513 1215.63 660.602 1215.7 660.705C1215.76 660.808 1215.8 660.922 1215.82 661.042C1215.84 661.162 1215.83 661.284 1215.8 661.401C1215.77 661.518 1215.72 661.627 1215.64 661.723L1176.05 715.912L1230.82 700.645C1231.05 700.585 1231.3 700.619 1231.5 700.738C1231.71 700.858 1231.87 701.054 1231.94 701.285C1231.96 701.401 1231.97 701.521 1231.95 701.639C1231.93 701.756 1231.88 701.868 1231.81 701.967C1231.75 702.066 1231.66 702.151 1231.56 702.215C1231.46 702.279 1231.35 702.322 1231.23 702.341Z" fill="#263238"/>
<path d="M920.116 137.308H425.915C413.983 137.308 404.31 146.981 404.31 158.913V1084.23C404.31 1096.16 413.983 1105.83 425.915 1105.83H920.116C932.048 1105.83 941.721 1096.16 941.721 1084.23V158.913C941.721 146.981 932.048 137.308 920.116 137.308Z" fill="#263238" stroke="#263238" stroke-linecap="round" stroke-linejoin="round"/>
<path d="M903.055 137.308H408.855C396.923 137.308 387.25 146.981 387.25 158.913V1084.23C387.25 1096.16 396.923 1105.83 408.855 1105.83H903.055C914.988 1105.83 924.661 1096.16 924.661 1084.23V158.913C924.661 146.981 914.988 137.308 903.055 137.308Z" fill="white"/>
<mask id="mask0_302_531" style="mask-type:luminance" maskUnits="userSpaceOnUse" x="387" y="137" width="538" height="969">
<path d="M903.055 137.308H408.855C396.923 137.308 387.25 146.981 387.25 158.913V1084.23C387.25 1096.16 396.923 1105.83 408.855 1105.83H903.055C914.988 1105.83 924.661 1096.16 924.661 1084.23V158.913C924.661 146.981 914.988 137.308 903.055 137.308Z" fill="white"/>
</mask>
<g mask="url(#mask0_302_531)">
<path d="M924.661 502.772L452.098 1105.86H903.087C908.812 1105.85 914.299 1103.57 918.344 1099.52C922.389 1095.47 924.661 1089.98 924.661 1084.26V502.772Z" fill="#179177"/>
<path opacity="0.5" d="M924.661 502.772L452.098 1105.86H903.087C908.812 1105.85 914.299 1103.57 918.344 1099.52C922.389 1095.47 924.661 1089.98 924.661 1084.26V502.772Z" fill="white"/>
</g>
<path d="M903.055 137.308H408.855C396.923 137.308 387.25 146.981 387.25 158.913V1084.23C387.25 1096.16 396.923 1105.83 408.855 1105.83H903.055C914.988 1105.83 924.661 1096.16 924.661 1084.23V158.913C924.661 146.981 914.988 137.308 903.055 137.308Z" stroke="#263238" stroke-linecap="round" stroke-linejoin="round"/>
<path d="M693.212 195.178H626.316C624.491 195.178 622.741 194.453 621.45 193.162C620.159 191.872 619.434 190.121 619.434 188.296C619.434 187.394 619.613 186.5 619.959 185.667C620.305 184.834 620.812 184.078 621.452 183.441C622.091 182.805 622.85 182.301 623.685 181.959C624.52 181.616 625.414 181.442 626.316 181.446H693.212C695.029 181.446 696.771 182.168 698.056 183.453C699.34 184.737 700.062 186.479 700.062 188.296C700.066 189.198 699.892 190.092 699.55 190.927C699.207 191.762 698.704 192.521 698.067 193.16C697.431 193.8 696.674 194.307 695.841 194.653C695.008 194.999 694.114 195.178 693.212 195.178Z" fill="#263238" stroke="#263238" stroke-linecap="round" stroke-linejoin="round"/>
<path d="M890.701 1019.28H421.146V195.978H532.437L544.952 206.348C549.32 209.986 554.824 211.979 560.508 211.982H756.876C762.771 211.958 768.457 209.797 772.88 205.9L784.211 195.978H890.701V1019.28Z" fill="#263238" stroke="#263238" stroke-linecap="round" stroke-linejoin="round"/>
<path d="M509.296 841.767H802.615" stroke="white" stroke-linecap="round" stroke-linejoin="round"/>
<path d="M509.296 880.368H802.615" stroke="white" stroke-linecap="round" stroke-linejoin="round"/>
<path d="M509.296 918.97H802.615" stroke="white" stroke-linecap="round" stroke-linejoin="round"/>
<path d="M536.374 483.376C517.94 510.085 508.988 542.201 510.948 574.595C512.908 606.989 525.668 637.792 547.188 662.083C568.709 686.375 597.749 702.754 629.67 708.605C661.591 714.455 694.553 709.44 723.289 694.36C752.026 679.279 774.88 655.004 788.201 625.411C801.523 595.818 804.543 562.614 796.779 531.103C789.016 499.592 770.916 471.592 745.372 451.575C719.828 431.557 688.312 420.677 655.859 420.672C646.96 420.673 638.079 421.476 629.325 423.073" stroke="white" stroke-linecap="round" stroke-linejoin="round"/>
<path d="M561.116 455.945C556.239 460.166 551.642 464.699 547.353 469.516" stroke="white" stroke-linecap="round" stroke-linejoin="round"/>
<path d="M769.272 614.119C795.927 551.536 766.802 479.195 704.22 452.54C641.637 425.885 569.295 455.01 542.64 517.593C515.985 580.175 545.11 652.517 607.693 679.172C670.276 705.827 742.617 676.702 769.272 614.119Z" fill="#179177"/>
<path d="M599.077 553.057L645.809 606.158L722.243 497.875" stroke="#263238" stroke-width="6" stroke-linecap="round" stroke-linejoin="round"/>
<path d="M773.008 205.9C768.585 209.797 762.899 211.958 757.004 211.982H560.572C554.888 211.979 549.384 209.986 545.016 206.348L532.501 195.978H421.146V280.19H890.701V195.978H784.339L773.008 205.9Z" fill="#179177" stroke="#263238" stroke-linecap="round" stroke-linejoin="round"/>
<path d="M670.967 1044.66C670.973 1042.55 670.351 1040.48 669.179 1038.71C668.006 1036.95 666.337 1035.57 664.382 1034.76C662.428 1033.95 660.275 1033.73 658.199 1034.15C656.122 1034.56 654.214 1035.58 652.717 1037.07C651.22 1038.57 650.201 1040.48 649.79 1042.55C649.378 1044.63 649.593 1046.78 650.406 1048.74C651.219 1050.69 652.594 1052.36 654.357 1053.53C656.12 1054.71 658.191 1055.33 660.308 1055.32C663.133 1055.31 665.839 1054.19 667.836 1052.19C669.833 1050.19 670.959 1047.49 670.967 1044.66Z" fill="#263238" stroke="#263238" stroke-linecap="round" stroke-linejoin="round"/>
<path d="M253.361 717.225L211.495 1091.72C211.495 1091.72 180.8 1118.41 183.488 1129.2C186.177 1139.98 221.61 1122.8 226.507 1113.9C229.982 1106.49 232.458 1098.65 233.869 1090.6L322.018 808.927L389.811 1110.98C389.811 1110.98 418.618 1134.64 434.621 1133.84C450.625 1133.04 444.928 1126.73 435.806 1115.18C426.684 1103.62 406.038 1097.03 406.038 1097.03L395.86 707.718L253.361 717.225Z" fill="#263238" stroke="#263238" stroke-linecap="round" stroke-linejoin="round"/>
<path d="M393.563 701.168L252.91 708.317L253.885 727.497L394.538 720.347L393.563 701.168Z" fill="#263238" stroke="#263238" stroke-linecap="round" stroke-linejoin="round"/>
<path d="M340.167 713.352C340.391 718.121 334.341 722.282 326.595 722.698C318.849 723.114 312.32 719.593 312.32 714.792C312.32 709.991 318.177 705.862 325.891 705.478C333.605 705.094 339.911 708.615 340.167 713.352Z" fill="white"/>
<path d="M316.065 516.568L263.188 532.06L269.749 708.807L393.78 705.734L378.096 523.033L316.065 516.568Z" fill="white" stroke="#263238" stroke-linecap="round" stroke-linejoin="round"/>
<path d="M292.923 518.552L285.817 820.162L218.473 787.546L248.08 692.291L227.883 531.451L292.923 518.552Z" fill="#179177" stroke="#263238" stroke-linecap="round" stroke-linejoin="round"/>
<path d="M346.472 515.832L384.113 815.168L447.841 775.895L408.727 684.129L412.504 522.073L346.472 515.832Z" fill="#179177" stroke="#263238" stroke-linecap="round" stroke-linejoin="round"/>
<path d="M306.398 552.321L316.897 569.413L308.511 688.418L328.42 711.975L338.726 683.68L322.786 569.637L332.613 553.121L318.337 534.62L306.398 552.321Z" fill="#263238" stroke="#263238" stroke-linecap="round" stroke-linejoin="round"/>
<path d="M319.394 550.048L299.581 564.964L283.705 526.234L292.635 512.407L341.127 509.942L352.586 525.402L343.143 560.611L319.394 550.048Z" fill="white" stroke="#263238" stroke-linecap="round" stroke-linejoin="round"/>
<path d="M296.668 497.523L301.117 522.137L319.394 550.048L336.134 517.144L335.077 496.371L296.668 497.523Z" fill="white" stroke="#263238" stroke-linecap="round" stroke-linejoin="round"/>
<path d="M227.883 531.451L138.069 640.182L197.764 710.855L221.802 695.235L192.291 635.029L236.333 603.149L227.883 531.451Z" fill="#179177" stroke="#263238" stroke-linecap="round" stroke-linejoin="round"/>
<path d="M221.802 695.235L225.387 703.045L205.158 714.504L202.437 708.23L221.802 695.235Z" fill="white" stroke="#263238" stroke-linecap="round" stroke-linejoin="round"/>
<path d="M225.387 703.045L246 730.06L239.214 738.414L234.285 736.269L224.298 744.783C224.298 744.783 217.001 742.735 216.072 740.398C215.144 738.062 205.254 732.108 205.03 728.139C204.806 724.17 205.03 714.504 205.03 714.504L225.387 703.045Z" fill="white" stroke="#263238" stroke-linecap="round" stroke-linejoin="round"/>
<path d="M462.532 543.294C463.749 540.121 464.016 536.662 463.3 533.34C461.828 529.531 458.563 516.344 459.204 511.991C459.844 507.638 466.437 501.3 467.013 495.667C467.59 490.033 467.013 484.88 467.013 481.839C467.067 481.007 467.387 480.214 467.927 479.579C468.467 478.943 469.197 478.499 470.01 478.312C470.823 478.125 471.674 478.205 472.438 478.541C473.201 478.876 473.836 479.45 474.247 480.175C477.448 483.888 479.368 487.697 477.832 491.634C476.786 496.036 476.291 500.552 476.36 505.077C476.36 505.077 481.481 512.151 484.298 516.76C487.114 521.369 486.858 533.436 484.97 538.269C483.209 541.929 480.727 545.195 477.672 547.871L477.992 556.193L462.532 543.294Z" fill="white" stroke="#263238" stroke-linecap="round" stroke-linejoin="round"/>
<path d="M471.879 498.419C471.879 498.419 469.638 505.013 473.575 506.517C477.512 508.022 493.612 510.262 493.772 505.077C493.932 499.892 494.252 497.299 491.659 497.427C489.067 497.555 477 497.427 477 497.427C477 497.427 471.398 497.139 471.879 498.419Z" fill="white" stroke="#263238" stroke-linecap="round" stroke-linejoin="round"/>
<path d="M473.703 530.747C473.703 530.747 472.103 535.644 474.951 536.765C477.8 537.885 489.387 539.581 489.483 535.708C489.579 531.836 489.803 529.915 487.946 530.011C486.09 530.107 477.384 530.011 477.384 530.011C477.384 530.011 473.351 529.723 473.703 530.747Z" fill="white" stroke="#263238" stroke-linecap="round" stroke-linejoin="round"/>
<path d="M471.558 520.281C471.558 520.281 469.702 525.978 472.999 527.29C476.296 528.603 489.707 530.491 489.835 526.074C489.963 521.657 490.219 519.353 488.042 519.449C485.866 519.545 475.815 519.449 475.815 519.449C475.815 519.449 471.142 519.192 471.558 520.281Z" fill="white" stroke="#263238" stroke-linecap="round" stroke-linejoin="round"/>
<path d="M470.31 510.134C470.31 510.134 468.07 516.728 472.039 518.232C476.008 519.737 492.044 521.977 492.204 516.792C492.364 511.607 492.684 509.014 490.091 509.142C487.498 509.27 475.432 509.142 475.432 509.142C475.432 509.142 469.83 508.886 470.31 510.134Z" fill="white" stroke="#263238" stroke-linecap="round" stroke-linejoin="round"/>
<path d="M460.708 549.856L463.204 539.805L480.553 550.144L477.64 561.059L460.708 549.856Z" fill="white" stroke="#263238" stroke-linecap="round" stroke-linejoin="round"/>
<path d="M412.504 522.073L445.728 592.778L462.052 547.295L478.056 562.531L461.668 646.839C461.157 649.435 459.899 651.825 458.047 653.715C456.196 655.605 453.833 656.912 451.248 657.477C448.664 658.042 445.97 657.838 443.5 656.892C441.029 655.946 438.889 654.299 437.342 652.153L410.808 615.12L412.504 522.073Z" fill="#179177" stroke="#263238" stroke-linecap="round" stroke-linejoin="round"/>
<path d="M281.208 468.78C281.208 468.78 274.486 461.61 273.622 466.86C272.758 472.109 275.479 481.167 279.704 484.4C283.929 487.633 287.642 482.287 287.642 482.287L281.208 468.78Z" fill="white" stroke="#263238" stroke-linecap="round" stroke-linejoin="round"/>
<path d="M344.744 465.547C344.744 465.547 350.665 457.737 352.106 462.859C353.546 467.98 351.689 477.294 347.816 480.943C343.944 484.592 339.687 479.631 339.687 479.631L344.744 465.547Z" fill="white" stroke="#263238" stroke-linecap="round" stroke-linejoin="round"/>
<path d="M283.897 476.142L277.495 462.603C272.343 455.351 268.777 447.095 267.029 438.373C263.828 423.521 269.109 411.166 275.831 407.357C279.608 405.096 284.069 404.256 288.41 404.989C288.41 404.989 289.69 396.283 310.815 388.985C331.94 381.687 354.922 394.842 354.57 399.451C354.218 404.06 348.584 406.109 348.584 406.109C348.584 406.109 365.036 412.19 359.083 419.968C355.412 424.72 350.661 428.527 345.224 431.075C346.417 434.997 347.389 438.983 348.136 443.014C348.969 448.167 344.327 470.317 344.327 470.317L332.965 439.173L297.308 440.997C297.308 440.997 295.195 456.105 291.419 461.482C289.008 465.564 287.665 470.188 287.514 474.926C287.514 474.926 285.849 480.623 283.897 476.142Z" fill="#263238" stroke="#263238" stroke-linecap="round" stroke-linejoin="round"/>
<path d="M290.234 419.872C290.173 429.167 289.5 438.448 288.218 447.655C287.447 452.778 284.8 457.432 280.792 460.714C280.792 460.714 285.337 481.807 291.099 493.042C296.86 504.277 308.831 513.495 320.898 512.247C332.965 510.998 342.599 497.299 343.751 485.712C344.904 474.125 339.238 431.299 339.238 431.299C339.238 431.299 301.533 437.925 290.234 419.872Z" fill="white" stroke="#263238" stroke-linecap="round" stroke-linejoin="round"/>
<path d="M293.435 463.179C295.357 462.041 297.527 461.389 299.757 461.277C301.988 461.166 304.212 461.599 306.238 462.539" stroke="#263238" stroke-linecap="round" stroke-linejoin="round"/>
<path d="M292.923 453.576C292.923 453.576 293.659 447.175 304.35 446.599" stroke="#263238" stroke-linecap="round" stroke-linejoin="round"/>
<path d="M321.378 445.19C323.797 444.199 326.47 444.01 329.004 444.649C331.539 445.289 333.802 446.723 335.461 448.743" stroke="#263238" stroke-linecap="round" stroke-linejoin="round"/>
<path d="M317.633 455.529C317.633 455.529 319.329 468.332 319.425 469.901C319.521 471.469 324.867 471.757 323.426 475.022C321.986 478.287 317.345 481.743 313.472 479.279" stroke="#263238" stroke-linecap="round" stroke-linejoin="round"/>
<path d="M323.651 490.001C323.651 490.001 319.586 493.938 311.392 490.609" stroke="#263238" stroke-linecap="round" stroke-linejoin="round"/>
<path d="M331.748 459.626C331.748 461.995 330.756 463.979 329.284 464.043C327.811 464.107 326.531 462.251 326.403 459.914C326.275 457.577 327.395 455.593 328.868 455.497C330.34 455.401 331.524 457.289 331.748 459.626Z" fill="#263238"/>
</svg>
