<svg width="667" height="398" viewBox="0 0 667 398" fill="none" xmlns="http://www.w3.org/2000/svg">
<path opacity="0.3" d="M393.041 11.2477C393.041 11.2477 386.155 0.427989 375.511 1.02373C364.867 1.61947 361.118 8.24269 357.99 13.0524C354.861 17.8621 353.612 14.8571 345.476 12.4479C337.34 10.0387 333.618 14.2526 331.703 18.4579C329.788 22.6631 330.453 19.6581 322.947 18.4579C315.44 17.2576 315.24 21.5592 310.424 23.8721C306.502 25.7557 305.663 25.8345 301.303 24.7044C295.894 23.3026 294.125 24.4678 292.875 26.8771H419.857C419.857 26.8771 417.449 17.2401 411.812 14.8571C406.176 12.4742 398.669 17.2576 393.041 11.2477Z" stroke="black" stroke-miterlimit="10"/>
<path opacity="0.3" d="M169.158 35.3401C169.158 35.3401 165.327 29.3214 159.399 29.6543C153.47 29.9872 151.391 33.6755 149.648 36.3476C147.906 39.0197 147.213 37.3551 142.68 36.0147C138.147 34.6743 136.067 37.0134 135.018 39.3613C133.969 41.7092 134.325 40.0272 130.139 39.3613C125.952 38.6955 125.861 41.1135 123.179 42.3663C120.99 43.4176 120.525 43.4614 118.117 42.8306C115.107 42.0509 114.122 42.708 113.42 44.0396H184.08C184.08 44.0396 182.739 38.6867 179.602 37.3551C176.464 36.0234 172.287 38.6867 169.158 35.3401Z" stroke="black" stroke-miterlimit="10"/>
<path opacity="0.3" d="M646.376 104.192C646.376 104.192 644.379 101.055 641.296 101.231C638.213 101.406 637.128 103.324 636.216 104.735C635.304 106.145 634.948 105.261 632.567 104.56C632.188 104.4 631.778 104.319 631.364 104.322C630.95 104.326 630.542 104.413 630.166 104.578C629.789 104.744 629.454 104.984 629.181 105.282C628.908 105.581 628.703 105.932 628.581 106.312C628.034 107.53 628.216 106.662 626.037 106.312C623.857 105.962 623.802 107.188 622.388 107.88C622.006 108.132 621.564 108.287 621.103 108.33C620.642 108.372 620.177 108.302 619.752 108.125C618.183 107.714 617.673 108.055 617.308 108.747H654.111C654.111 108.747 653.418 105.962 651.785 105.243C650.152 104.525 648.009 105.935 646.376 104.192Z" stroke="black" stroke-miterlimit="10"/>
<path opacity="0.3" d="M412.871 38.8006C412.871 38.8006 410.873 35.6642 407.79 35.8394C404.707 36.0147 403.613 37.9333 402.71 39.3438C401.807 40.7543 401.433 39.8607 399.061 39.1686C398.682 39.0074 398.271 38.9254 397.856 38.9278C397.441 38.9302 397.032 39.0171 396.654 39.1826C396.277 39.3482 395.94 39.5887 395.666 39.8883C395.393 40.1878 395.188 40.5397 395.066 40.9207C394.528 42.1385 394.702 41.2624 392.531 40.9207C390.36 40.5791 390.296 41.7968 388.882 42.4889C388.5 42.7394 388.057 42.8924 387.596 42.9338C387.135 42.9752 386.671 42.9035 386.246 42.7255C384.678 42.3225 384.167 42.6642 383.802 43.3563H420.605C420.605 43.3563 419.912 40.5703 418.279 39.8519C416.647 39.1335 414.503 40.5528 412.871 38.8006Z" stroke="black" stroke-miterlimit="10"/>
<g opacity="0.3">
<path d="M13.9192 312.806H42.7779V62.1396H118.683V181.445H134.991V329.679H153.817V108.415H188.941V18.7645H245.4V183.854H266.734V118.183H314.409V132.638H355.18V327.866H371.488V292.314H416.035V327.261H437.36V151.325H509.498V316.415H530.202V86.2495H555.294V44.0659H567.845V19.9648H587.92V176.022H620.536V324.852H645.628" stroke="black" stroke-miterlimit="10"/>
<path d="M118.683 54.3073H42.778V62.1396H118.683V54.3073Z" stroke="black" stroke-miterlimit="10"/>
<path d="M188.941 108.415H153.598V112.383H188.941V108.415Z" stroke="black" stroke-miterlimit="10"/>
<path d="M245.4 18.7645H188.777V22.6193H245.4V18.7645Z" stroke="black" stroke-miterlimit="10"/>
<path d="M279.467 109.991H271.222V118.174H279.467V109.991Z" stroke="black" stroke-miterlimit="10"/>
<path d="M300.901 113.426H296.779V118.174H300.901V113.426Z" stroke="black" stroke-miterlimit="10"/>
<path d="M355.317 132.638H314.409V137.439H355.317V132.638Z" stroke="black" stroke-miterlimit="10"/>
<path d="M509.489 147.742H437.36V151.325H509.489V147.742Z" stroke="black" stroke-miterlimit="10"/>
<path d="M484.488 140.611H455.903V147.742H484.488V140.611Z" stroke="black" stroke-miterlimit="10"/>
<path d="M478.432 140.874V134.277H499.319V147.479" stroke="black" stroke-miterlimit="10"/>
<path d="M340.778 130.667V77.331H406.887V121.53H429.625V46.3438H502.611V137.273H525.359" stroke="black" stroke-miterlimit="10"/>
<path d="M293.176 104.253V45.3275H248.219" stroke="black" stroke-miterlimit="10"/>
<path d="M151.436 118.989H136.624V77.8391H122.34" stroke="black" stroke-miterlimit="10"/>
<path d="M40.3699 107.81H28.2025V267.836" stroke="black" stroke-miterlimit="10"/>
<path d="M547.569 78.3472V59.0383H553.917" stroke="black" stroke-miterlimit="10"/>
<path d="M590.41 59.5464H613.149V140.322H651.758V233.791" stroke="black" stroke-miterlimit="10"/>
<path d="M198.892 30.0836H193.219V40.7543H198.892V30.0836Z" stroke="black" stroke-miterlimit="10"/>
<path d="M209.108 30.0836H203.435V40.7543H209.108V30.0836Z" stroke="black" stroke-miterlimit="10"/>
<path d="M219.323 30.0836H213.65V40.7543H219.323V30.0836Z" stroke="black" stroke-miterlimit="10"/>
<path d="M229.539 30.0836H223.866V40.7543H229.539V30.0836Z" stroke="black" stroke-miterlimit="10"/>
<path d="M239.754 30.0836H234.081V40.7543H239.754V30.0836Z" stroke="black" stroke-miterlimit="10"/>
<path d="M198.892 48.1222H193.219V58.7929H198.892V48.1222Z" stroke="black" stroke-miterlimit="10"/>
<path d="M209.108 48.1222H203.435V58.7929H209.108V48.1222Z" stroke="black" stroke-miterlimit="10"/>
<path d="M219.323 48.1222H213.65V58.7929H219.323V48.1222Z" stroke="black" stroke-miterlimit="10"/>
<path d="M229.539 48.1222H223.866V58.7929H229.539V48.1222Z" stroke="black" stroke-miterlimit="10"/>
<path d="M239.754 48.1222H234.081V58.7929H239.754V48.1222Z" stroke="black" stroke-miterlimit="10"/>
<path d="M198.892 66.152H193.219V76.8228H198.892V66.152Z" stroke="black" stroke-miterlimit="10"/>
<path d="M209.108 66.152H203.435V76.8228H209.108V66.152Z" stroke="black" stroke-miterlimit="10"/>
<path d="M219.323 66.152H213.65V76.8228H219.323V66.152Z" stroke="black" stroke-miterlimit="10"/>
<path d="M229.539 66.152H223.866V76.8228H229.539V66.152Z" stroke="black" stroke-miterlimit="10"/>
<path d="M239.754 66.152H234.081V76.8228H239.754V66.152Z" stroke="black" stroke-miterlimit="10"/>
<path d="M198.892 84.1907H193.219V94.8614H198.892V84.1907Z" stroke="black" stroke-miterlimit="10"/>
<path d="M209.108 84.1907H203.435V94.8614H209.108V84.1907Z" stroke="black" stroke-miterlimit="10"/>
<path d="M219.323 84.1907H213.65V94.8614H219.323V84.1907Z" stroke="black" stroke-miterlimit="10"/>
<path d="M229.539 84.1907H223.866V94.8614H229.539V84.1907Z" stroke="black" stroke-miterlimit="10"/>
<path d="M239.754 84.1907H234.081V94.8614H239.754V84.1907Z" stroke="black" stroke-miterlimit="10"/>
<path d="M198.892 102.221H193.219V112.891H198.892V102.221Z" stroke="black" stroke-miterlimit="10"/>
<path d="M209.108 102.221H203.435V112.891H209.108V102.221Z" stroke="black" stroke-miterlimit="10"/>
<path d="M219.323 102.221H213.65V112.891H219.323V102.221Z" stroke="black" stroke-miterlimit="10"/>
<path d="M229.539 102.221H223.866V112.891H229.539V102.221Z" stroke="black" stroke-miterlimit="10"/>
<path d="M239.754 102.221H234.081V112.891H239.754V102.221Z" stroke="black" stroke-miterlimit="10"/>
<path d="M198.892 120.259H193.219V130.93H198.892V120.259Z" stroke="black" stroke-miterlimit="10"/>
<path d="M209.108 120.259H203.435V130.93H209.108V120.259Z" stroke="black" stroke-miterlimit="10"/>
<path d="M219.323 120.259H213.65V130.93H219.323V120.259Z" stroke="black" stroke-miterlimit="10"/>
<path d="M229.539 120.259H223.866V130.93H229.539V120.259Z" stroke="black" stroke-miterlimit="10"/>
<path d="M239.754 120.259H234.081V130.93H239.754V120.259Z" stroke="black" stroke-miterlimit="10"/>
<path d="M164.059 120.259H158.386V130.93H164.059V120.259Z" stroke="black" stroke-miterlimit="10"/>
<path d="M174.275 120.259H168.602V130.93H174.275V120.259Z" stroke="black" stroke-miterlimit="10"/>
<path d="M184.491 120.259H178.817V130.93H184.491V120.259Z" stroke="black" stroke-miterlimit="10"/>
<path d="M164.059 137.781H158.386V148.452H164.059V137.781Z" stroke="black" stroke-miterlimit="10"/>
<path d="M174.275 137.781H168.602V148.452H174.275V137.781Z" stroke="black" stroke-miterlimit="10"/>
<path d="M184.491 137.781H178.817V148.452H184.491V137.781Z" stroke="black" stroke-miterlimit="10"/>
<path d="M164.059 155.311H158.386V165.982H164.059V155.311Z" stroke="black" stroke-miterlimit="10"/>
<path d="M174.275 155.311H168.602V165.982H174.275V155.311Z" stroke="black" stroke-miterlimit="10"/>
<path d="M184.491 155.311H178.817V165.982H184.491V155.311Z" stroke="black" stroke-miterlimit="10"/>
<path d="M164.059 172.833H158.386V183.504H164.059V172.833Z" stroke="black" stroke-miterlimit="10"/>
<path d="M174.275 172.833H168.602V183.504H174.275V172.833Z" stroke="black" stroke-miterlimit="10"/>
<path d="M184.491 172.833H178.817V183.504H184.491V172.833Z" stroke="black" stroke-miterlimit="10"/>
<path d="M164.059 190.364H158.386V201.035H164.059V190.364Z" stroke="black" stroke-miterlimit="10"/>
<path d="M174.275 190.364H168.602V201.035H174.275V190.364Z" stroke="black" stroke-miterlimit="10"/>
<path d="M184.491 190.364H178.817V201.035H184.491V190.364Z" stroke="black" stroke-miterlimit="10"/>
<path d="M164.059 207.885H158.386V218.556H164.059V207.885Z" stroke="black" stroke-miterlimit="10"/>
<path d="M174.275 207.885H168.602V218.556H174.275V207.885Z" stroke="black" stroke-miterlimit="10"/>
<path d="M184.491 207.885H178.817V218.556H184.491V207.885Z" stroke="black" stroke-miterlimit="10"/>
<path d="M164.059 225.416H158.386V236.087H164.059V225.416Z" stroke="black" stroke-miterlimit="10"/>
<path d="M174.275 225.416H168.602V236.087H174.275V225.416Z" stroke="black" stroke-miterlimit="10"/>
<path d="M184.491 225.416H178.817V236.087H184.491V225.416Z" stroke="black" stroke-miterlimit="10"/>
<path d="M164.059 242.938H158.386V253.609H164.059V242.938Z" stroke="black" stroke-miterlimit="10"/>
<path d="M174.275 242.938H168.602V253.609H174.275V242.938Z" stroke="black" stroke-miterlimit="10"/>
<path d="M184.491 242.938H178.817V253.609H184.491V242.938Z" stroke="black" stroke-miterlimit="10"/>
<path d="M164.059 260.468H158.386V271.139H164.059V260.468Z" stroke="black" stroke-miterlimit="10"/>
<path d="M174.275 260.468H168.602V271.139H174.275V260.468Z" stroke="black" stroke-miterlimit="10"/>
<path d="M184.491 260.468H178.817V271.139H184.491V260.468Z" stroke="black" stroke-miterlimit="10"/>
<path d="M164.059 277.99H158.386V288.661H164.059V277.99Z" stroke="black" stroke-miterlimit="10"/>
<path d="M174.275 277.99H168.602V288.661H174.275V277.99Z" stroke="black" stroke-miterlimit="10"/>
<path d="M184.491 277.99H178.817V288.661H184.491V277.99Z" stroke="black" stroke-miterlimit="10"/>
<path d="M164.059 295.521H158.386V306.191H164.059V295.521Z" stroke="black" stroke-miterlimit="10"/>
<path d="M174.275 295.521H168.602V306.191H174.275V295.521Z" stroke="black" stroke-miterlimit="10"/>
<path d="M184.491 295.521H178.817V306.191H184.491V295.521Z" stroke="black" stroke-miterlimit="10"/>
<path d="M255.151 192.396H249.477V203.067H255.151V192.396Z" stroke="black" stroke-miterlimit="10"/>
<path d="M265.366 192.396H259.693V203.067H265.366V192.396Z" stroke="black" stroke-miterlimit="10"/>
<path d="M255.151 209.918H249.477V220.589H255.151V209.918Z" stroke="black" stroke-miterlimit="10"/>
<path d="M265.366 209.918H259.693V220.589H265.366V209.918Z" stroke="black" stroke-miterlimit="10"/>
<path d="M255.151 227.449H249.477V238.119H255.151V227.449Z" stroke="black" stroke-miterlimit="10"/>
<path d="M265.366 227.449H259.693V238.119H265.366V227.449Z" stroke="black" stroke-miterlimit="10"/>
<path d="M255.151 244.97H249.477V255.641H255.151V244.97Z" stroke="black" stroke-miterlimit="10"/>
<path d="M265.366 244.97H259.693V255.641H265.366V244.97Z" stroke="black" stroke-miterlimit="10"/>
<path d="M255.151 262.501H249.477V273.172H255.151V262.501Z" stroke="black" stroke-miterlimit="10"/>
<path d="M265.366 262.501H259.693V273.172H265.366V262.501Z" stroke="black" stroke-miterlimit="10"/>
<path d="M255.151 280.023H249.477V290.693H255.151V280.023Z" stroke="black" stroke-miterlimit="10"/>
<path d="M265.366 280.023H259.693V290.693H265.366V280.023Z" stroke="black" stroke-miterlimit="10"/>
<path d="M255.151 297.553H249.477V308.224H255.151V297.553Z" stroke="black" stroke-miterlimit="10"/>
<path d="M265.366 297.553H259.693V308.224H265.366V297.553Z" stroke="black" stroke-miterlimit="10"/>
<path d="M198.892 138.289H193.219V148.96H198.892V138.289Z" stroke="black" stroke-miterlimit="10"/>
<path d="M209.108 138.289H203.435V148.96H209.108V138.289Z" stroke="black" stroke-miterlimit="10"/>
<path d="M219.323 138.289H213.65V148.96H219.323V138.289Z" stroke="black" stroke-miterlimit="10"/>
<path d="M229.539 138.289H223.866V148.96H229.539V138.289Z" stroke="black" stroke-miterlimit="10"/>
<path d="M239.754 138.289H234.081V148.96H239.754V138.289Z" stroke="black" stroke-miterlimit="10"/>
<path d="M198.892 156.328H193.219V166.998H198.892V156.328Z" stroke="black" stroke-miterlimit="10"/>
<path d="M209.108 156.328H203.435V166.998H209.108V156.328Z" stroke="black" stroke-miterlimit="10"/>
<path d="M219.323 156.328H213.65V166.998H219.323V156.328Z" stroke="black" stroke-miterlimit="10"/>
<path d="M229.539 156.328H223.866V166.998H229.539V156.328Z" stroke="black" stroke-miterlimit="10"/>
<path d="M239.754 156.328H234.081V166.998H239.754V156.328Z" stroke="black" stroke-miterlimit="10"/>
<path d="M198.892 174.358H193.219V185.028H198.892V174.358Z" stroke="black" stroke-miterlimit="10"/>
<path d="M209.108 174.358H203.435V185.028H209.108V174.358Z" stroke="black" stroke-miterlimit="10"/>
<path d="M219.323 174.358H213.65V185.028H219.323V174.358Z" stroke="black" stroke-miterlimit="10"/>
<path d="M229.539 174.358H223.866V185.028H229.539V174.358Z" stroke="black" stroke-miterlimit="10"/>
<path d="M239.754 174.358H234.081V185.028H239.754V174.358Z" stroke="black" stroke-miterlimit="10"/>
<path d="M198.892 192.396H193.219V203.067H198.892V192.396Z" stroke="black" stroke-miterlimit="10"/>
<path d="M209.108 192.396H203.435V203.067H209.108V192.396Z" stroke="black" stroke-miterlimit="10"/>
<path d="M219.323 192.396H213.65V203.067H219.323V192.396Z" stroke="black" stroke-miterlimit="10"/>
<path d="M229.539 192.396H223.866V203.067H229.539V192.396Z" stroke="black" stroke-miterlimit="10"/>
<path d="M239.754 192.396H234.081V203.067H239.754V192.396Z" stroke="black" stroke-miterlimit="10"/>
<path d="M198.892 210.426H193.219V221.097H198.892V210.426Z" stroke="black" stroke-miterlimit="10"/>
<path d="M209.108 210.426H203.435V221.097H209.108V210.426Z" stroke="black" stroke-miterlimit="10"/>
<path d="M219.323 210.426H213.65V221.097H219.323V210.426Z" stroke="black" stroke-miterlimit="10"/>
<path d="M229.539 210.426H223.866V221.097H229.539V210.426Z" stroke="black" stroke-miterlimit="10"/>
<path d="M239.754 210.426H234.081V221.097H239.754V210.426Z" stroke="black" stroke-miterlimit="10"/>
<path d="M198.892 228.465H193.219V239.136H198.892V228.465Z" stroke="black" stroke-miterlimit="10"/>
<path d="M209.108 228.465H203.435V239.136H209.108V228.465Z" stroke="black" stroke-miterlimit="10"/>
<path d="M219.323 228.465H213.65V239.136H219.323V228.465Z" stroke="black" stroke-miterlimit="10"/>
<path d="M229.539 228.465H223.866V239.136H229.539V228.465Z" stroke="black" stroke-miterlimit="10"/>
<path d="M239.754 228.465H234.081V239.136H239.754V228.465Z" stroke="black" stroke-miterlimit="10"/>
<path d="M198.892 246.495H193.219V257.165H198.892V246.495Z" stroke="black" stroke-miterlimit="10"/>
<path d="M209.108 246.495H203.435V257.165H209.108V246.495Z" stroke="black" stroke-miterlimit="10"/>
<path d="M219.323 246.495H213.65V257.165H219.323V246.495Z" stroke="black" stroke-miterlimit="10"/>
<path d="M229.539 246.495H223.866V257.165H229.539V246.495Z" stroke="black" stroke-miterlimit="10"/>
<path d="M239.754 246.495H234.081V257.165H239.754V246.495Z" stroke="black" stroke-miterlimit="10"/>
<path d="M198.892 264.533H193.219V275.204H198.892V264.533Z" stroke="black" stroke-miterlimit="10"/>
<path d="M209.108 264.533H203.435V275.204H209.108V264.533Z" stroke="black" stroke-miterlimit="10"/>
<path d="M219.323 264.533H213.65V275.204H219.323V264.533Z" stroke="black" stroke-miterlimit="10"/>
<path d="M229.539 264.533H223.866V275.204H229.539V264.533Z" stroke="black" stroke-miterlimit="10"/>
<path d="M239.754 264.533H234.081V275.204H239.754V264.533Z" stroke="black" stroke-miterlimit="10"/>
<path d="M198.892 282.563H193.219V293.234H198.892V282.563Z" stroke="black" stroke-miterlimit="10"/>
<path d="M209.108 282.563H203.435V293.234H209.108V282.563Z" stroke="black" stroke-miterlimit="10"/>
<path d="M219.323 282.563H213.65V293.234H219.323V282.563Z" stroke="black" stroke-miterlimit="10"/>
<path d="M229.539 282.563H223.866V293.234H229.539V282.563Z" stroke="black" stroke-miterlimit="10"/>
<path d="M239.754 282.563H234.081V293.234H239.754V282.563Z" stroke="black" stroke-miterlimit="10"/>
<path d="M198.892 301.11H193.219V311.781H198.892V301.11Z" stroke="black" stroke-miterlimit="10"/>
<path d="M209.108 301.11H203.435V311.781H209.108V301.11Z" stroke="black" stroke-miterlimit="10"/>
<path d="M219.323 301.11H213.65V311.781H219.323V301.11Z" stroke="black" stroke-miterlimit="10"/>
<path d="M229.539 301.11H223.866V311.781H229.539V301.11Z" stroke="black" stroke-miterlimit="10"/>
<path d="M239.754 301.11H234.081V311.781H239.754V301.11Z" stroke="black" stroke-miterlimit="10"/>
<path d="M188.941 112.383V329.811" stroke="black" stroke-miterlimit="10"/>
<path d="M275.718 122.546V326.762" stroke="black" stroke-miterlimit="10"/>
<path d="M286.828 122.546V326.762" stroke="black" stroke-miterlimit="10"/>
<path d="M297.937 122.546V326.762" stroke="black" stroke-miterlimit="10"/>
<path d="M309.037 122.546V326.762" stroke="black" stroke-miterlimit="10"/>
<path d="M320.146 142.862V326.762" stroke="black" stroke-miterlimit="10"/>
<path d="M331.256 142.862V326.762" stroke="black" stroke-miterlimit="10"/>
<path d="M342.365 142.862V326.762" stroke="black" stroke-miterlimit="10"/>
<path d="M45.6602 73.774H114.943" stroke="black" stroke-miterlimit="10"/>
<path d="M45.6602 86.9854H114.943" stroke="black" stroke-miterlimit="10"/>
<path d="M45.6602 100.188H114.943" stroke="black" stroke-miterlimit="10"/>
<path d="M45.6602 113.399H114.943" stroke="black" stroke-miterlimit="10"/>
<path d="M45.6602 126.602H114.943" stroke="black" stroke-miterlimit="10"/>
<path d="M45.6602 139.813H114.943" stroke="black" stroke-miterlimit="10"/>
<path d="M45.6602 153.025H114.943" stroke="black" stroke-miterlimit="10"/>
<path d="M45.6602 166.228H114.943" stroke="black" stroke-miterlimit="10"/>
<path d="M45.6602 179.439H114.943" stroke="black" stroke-miterlimit="10"/>
<path d="M45.6602 192.65H114.943" stroke="black" stroke-miterlimit="10"/>
<path d="M45.6602 205.853H114.943" stroke="black" stroke-miterlimit="10"/>
<path d="M45.6602 219.064H114.943" stroke="black" stroke-miterlimit="10"/>
<path d="M45.6602 232.276H114.943" stroke="black" stroke-miterlimit="10"/>
<path d="M45.6602 245.478H114.943" stroke="black" stroke-miterlimit="10"/>
<path d="M45.6602 258.69H114.943" stroke="black" stroke-miterlimit="10"/>
<path d="M45.6602 271.892H114.943" stroke="black" stroke-miterlimit="10"/>
<path d="M45.6602 285.104H114.943" stroke="black" stroke-miterlimit="10"/>
<path d="M45.6602 298.315H114.943" stroke="black" stroke-miterlimit="10"/>
<path d="M45.6602 311.518H114.943" stroke="black" stroke-miterlimit="10"/>
<path d="M45.6602 324.729H114.943" stroke="black" stroke-miterlimit="10"/>
<path d="M45.6602 337.941H114.943" stroke="black" stroke-miterlimit="10"/>
<path d="M54.6443 53.9657V340.981" stroke="black" stroke-miterlimit="10"/>
<path d="M530.64 110.351H545.982V117.465H530.64" stroke="black" stroke-miterlimit="10"/>
<path d="M620.026 190.11H602.577V197.215H620.026" stroke="black" stroke-miterlimit="10"/>
<path d="M620.026 206.869H602.577V213.983H620.026" stroke="black" stroke-miterlimit="10"/>
<path d="M620.026 223.638H602.577V230.751H620.026" stroke="black" stroke-miterlimit="10"/>
<path d="M620.026 240.397H602.577V247.511H620.026" stroke="black" stroke-miterlimit="10"/>
<path d="M620.026 257.165H602.577V264.279H620.026" stroke="black" stroke-miterlimit="10"/>
<path d="M620.026 273.925H602.577V281.039H620.026" stroke="black" stroke-miterlimit="10"/>
<path d="M620.026 290.693H602.577V297.807H620.026" stroke="black" stroke-miterlimit="10"/>
<path d="M620.026 307.453H602.577V314.567H620.026" stroke="black" stroke-miterlimit="10"/>
<path d="M530.64 129.651H545.982V136.765H530.64" stroke="black" stroke-miterlimit="10"/>
<path d="M530.64 148.96H545.982V156.074H530.64" stroke="black" stroke-miterlimit="10"/>
<path d="M530.64 168.26H545.982V175.374H530.64" stroke="black" stroke-miterlimit="10"/>
<path d="M530.64 187.569H545.982V194.683H530.64" stroke="black" stroke-miterlimit="10"/>
<path d="M530.64 206.869H545.982V213.983H530.64" stroke="black" stroke-miterlimit="10"/>
<path d="M530.64 226.178H545.982V233.292H530.64" stroke="black" stroke-miterlimit="10"/>
<path d="M530.64 245.478H545.982V252.592H530.64" stroke="black" stroke-miterlimit="10"/>
<path d="M530.64 264.787H545.982V271.892H530.64" stroke="black" stroke-miterlimit="10"/>
<path d="M530.64 284.088H545.982V291.201H530.64" stroke="black" stroke-miterlimit="10"/>
<path d="M506.314 156.582H439.677V162.679H506.314V156.582Z" stroke="black" stroke-miterlimit="10"/>
<path d="M506.314 167.244H439.677V173.341H506.314V167.244Z" stroke="black" stroke-miterlimit="10"/>
<path d="M506.314 177.915H439.677V184.012H506.314V177.915Z" stroke="black" stroke-miterlimit="10"/>
<path d="M506.314 188.585H439.677V194.683H506.314V188.585Z" stroke="black" stroke-miterlimit="10"/>
<path d="M506.314 199.247H439.677V205.345H506.314V199.247Z" stroke="black" stroke-miterlimit="10"/>
<path d="M506.314 209.918H439.677V216.016H506.314V209.918Z" stroke="black" stroke-miterlimit="10"/>
<path d="M506.314 220.589H439.677V226.686H506.314V220.589Z" stroke="black" stroke-miterlimit="10"/>
<path d="M506.314 231.26H439.677V237.357H506.314V231.26Z" stroke="black" stroke-miterlimit="10"/>
<path d="M506.314 241.922H439.677V248.019H506.314V241.922Z" stroke="black" stroke-miterlimit="10"/>
<path d="M506.314 252.592H439.677V258.69H506.314V252.592Z" stroke="black" stroke-miterlimit="10"/>
<path d="M506.314 263.263H439.677V269.361H506.314V263.263Z" stroke="black" stroke-miterlimit="10"/>
<path d="M506.314 273.925H439.677V280.023H506.314V273.925Z" stroke="black" stroke-miterlimit="10"/>
<path d="M506.314 284.596H439.677V290.693H506.314V284.596Z" stroke="black" stroke-miterlimit="10"/>
<path d="M506.314 295.266H439.677V301.364H506.314V295.266Z" stroke="black" stroke-miterlimit="10"/>
<path d="M506.314 305.928H439.677V312.026H506.314V305.928Z" stroke="black" stroke-miterlimit="10"/>
<path d="M506.314 316.599H439.677V322.697H506.314V316.599Z" stroke="black" stroke-miterlimit="10"/>
<path d="M506.314 327.27H439.677V333.368H506.314V327.27Z" stroke="black" stroke-miterlimit="10"/>
<path d="M555.504 93.5824V329.302" stroke="black" stroke-miterlimit="10"/>
<path d="M569.249 48.8844V329.302" stroke="black" stroke-miterlimit="10"/>
<path d="M411.119 275.449H377.8V292.218H411.119V275.449Z" stroke="black" stroke-miterlimit="10"/>
<path d="M403.184 245.987H385.726V275.449H403.184V245.987Z" stroke="black" stroke-miterlimit="10"/>
<path d="M245.4 183.863V329.408" stroke="black" stroke-miterlimit="10"/>
<path d="M436.785 167.91H355.873" stroke="black" stroke-miterlimit="10"/>
<path d="M436.785 176.592H355.873" stroke="black" stroke-miterlimit="10"/>
<path d="M371.826 183.101H359.486V191.783H371.826V183.101Z" stroke="black" stroke-miterlimit="10"/>
<path d="M387.048 183.101H374.708V191.783H387.048V183.101Z" stroke="black" stroke-miterlimit="10"/>
<path d="M402.272 183.101H389.931V191.783H402.272V183.101Z" stroke="black" stroke-miterlimit="10"/>
<path d="M417.494 183.101H405.154V191.783H417.494V183.101Z" stroke="black" stroke-miterlimit="10"/>
<path d="M432.718 183.101H420.377V191.783H432.718V183.101Z" stroke="black" stroke-miterlimit="10"/>
<path d="M371.826 196.558H359.486V205.24H371.826V196.558Z" stroke="black" stroke-miterlimit="10"/>
<path d="M387.048 196.558H374.708V205.24H387.048V196.558Z" stroke="black" stroke-miterlimit="10"/>
<path d="M402.272 196.558H389.931V205.24H402.272V196.558Z" stroke="black" stroke-miterlimit="10"/>
<path d="M417.494 196.558H405.154V205.24H417.494V196.558Z" stroke="black" stroke-miterlimit="10"/>
<path d="M432.718 196.558H420.377V205.24H432.718V196.558Z" stroke="black" stroke-miterlimit="10"/>
<path d="M371.826 210.023H359.486V218.705H371.826V210.023Z" stroke="black" stroke-miterlimit="10"/>
<path d="M387.048 210.023H374.708V218.705H387.048V210.023Z" stroke="black" stroke-miterlimit="10"/>
<path d="M402.272 210.023H389.931V218.705H402.272V210.023Z" stroke="black" stroke-miterlimit="10"/>
<path d="M417.494 210.023H405.154V218.705H417.494V210.023Z" stroke="black" stroke-miterlimit="10"/>
<path d="M432.718 210.023H420.377V218.705H432.718V210.023Z" stroke="black" stroke-miterlimit="10"/>
<path d="M371.826 234.335H359.486V243.017H371.826V234.335Z" stroke="black" stroke-miterlimit="10"/>
<path d="M387.048 234.335H374.708V243.017H387.048V234.335Z" stroke="black" stroke-miterlimit="10"/>
<path d="M402.272 234.335H389.931V243.017H402.272V234.335Z" stroke="black" stroke-miterlimit="10"/>
<path d="M417.494 234.335H405.154V243.017H417.494V234.335Z" stroke="black" stroke-miterlimit="10"/>
<path d="M432.718 234.335H420.377V243.017H432.718V234.335Z" stroke="black" stroke-miterlimit="10"/>
</g>
<path d="M3.81311 345.019H663.514" stroke="#263238" stroke-miterlimit="10"/>
<path d="M129.867 344.909C146.012 343.512 157.92 329.808 156.465 314.3C155.01 298.793 140.743 287.354 124.598 288.752C108.453 290.15 96.5446 303.854 97.9997 319.361C99.4548 334.869 113.722 346.307 129.867 344.909Z" fill="#263238"/>
<path d="M570.079 345.019C586.289 345.019 599.43 332.397 599.43 316.827C599.43 301.257 586.289 288.634 570.079 288.634C553.869 288.634 540.728 301.257 540.728 316.827C540.728 332.397 553.869 345.019 570.079 345.019Z" fill="#263238"/>
<path d="M63.583 320.375L559.846 323.669L625.945 322.653L629.594 308.636C629.594 308.636 632.613 297.054 625.371 288.363C618.129 279.672 604.265 271.568 592.809 273.881C581.353 276.194 85.0629 273.881 85.0629 273.881C85.0629 273.881 57.928 280.25 53.1395 299.367C48.351 318.483 63.583 320.375 63.583 320.375Z" fill="#263238"/>
<path d="M97.0933 345.019C113.304 345.019 126.445 332.397 126.445 316.827C126.445 301.257 113.304 288.634 97.0933 288.634C80.8831 288.634 67.7421 301.257 67.7421 316.827C67.7421 332.397 80.8831 345.019 97.0933 345.019Z" fill="#263238"/>
<path d="M97.0932 297.246C93.0559 297.246 89.1093 298.396 85.7524 300.551C82.3956 302.705 79.7792 305.767 78.2343 309.35C76.6893 312.933 76.285 316.875 77.0727 320.678C77.8603 324.482 79.8044 327.975 82.6592 330.717C85.5139 333.459 89.1511 335.327 93.1108 336.083C97.0705 336.84 101.175 336.452 104.905 334.968C108.635 333.484 111.823 330.97 114.066 327.746C116.309 324.522 117.506 320.731 117.506 316.853C117.506 311.653 115.355 306.666 111.527 302.989C107.699 299.312 102.507 297.246 97.0932 297.246ZM113.666 311.22L105.585 312.762C105.328 312.248 105.023 311.759 104.673 311.299L109.653 304.973C111.445 306.743 112.814 308.865 113.666 311.194V311.22ZM105.585 302.047L100.577 308.346C100.253 308.222 99.921 308.116 99.5832 308.031V300.146C101.685 300.416 103.719 301.052 105.585 302.021V302.047ZM94.5666 300.137V308.022C94.0148 308.169 93.4776 308.362 92.9614 308.6L87.4888 302.634C89.6295 301.31 92.0447 300.449 94.5666 300.111V300.137ZM83.7309 305.867L89.2035 311.824C88.7723 312.456 88.4231 313.135 88.1637 313.848L79.9549 313.323C80.5474 310.566 81.8451 307.995 83.7309 305.841V305.867ZM82.3354 326.017C80.7471 323.652 79.806 320.94 79.5991 318.132L87.808 318.658C87.965 319.398 88.2194 320.117 88.565 320.796L82.3354 326.017ZM85.6555 329.662L91.8577 324.458C92.0584 324.58 92.2682 324.703 92.4871 324.817L90.5443 332.509C88.7629 331.824 87.1112 330.862 85.6555 329.662ZM97.0932 333.735C96.5368 333.735 95.9895 333.735 95.4514 333.657L97.3941 325.947C97.8745 325.936 98.3533 325.889 98.8261 325.807L102.475 332.938C100.734 333.468 98.9187 333.734 97.0932 333.727V333.735ZM106.962 330.809L103.314 323.678C103.605 323.433 103.879 323.169 104.135 322.889L111.541 326.394C110.313 328.126 108.761 329.623 106.962 330.809ZM106.415 318.544C106.483 318.194 106.529 317.84 106.552 317.484L114.633 315.933C114.633 316.231 114.678 316.52 114.678 316.809C114.681 318.595 114.388 320.369 113.812 322.066L106.415 318.544Z" fill="white" stroke="#263238" stroke-linecap="round" stroke-linejoin="round"/>
<path d="M595.134 345.019C611.345 345.019 624.486 332.397 624.486 316.827C624.486 301.257 611.345 288.634 595.134 288.634C578.924 288.634 565.783 301.257 565.783 316.827C565.783 332.397 578.924 345.019 595.134 345.019Z" fill="#263238" stroke="#263238" stroke-linecap="round" stroke-linejoin="round"/>
<path d="M595.134 297.246C591.097 297.245 587.149 298.393 583.791 300.546C580.433 302.7 577.815 305.761 576.269 309.344C574.723 312.926 574.317 316.869 575.104 320.673C575.89 324.477 577.834 327.971 580.688 330.714C583.543 333.457 587.18 335.325 591.14 336.083C595.1 336.84 599.204 336.452 602.935 334.968C606.665 333.485 609.854 330.972 612.097 327.747C614.341 324.523 615.538 320.731 615.538 316.853C615.538 311.655 613.389 306.669 609.563 302.992C605.736 299.315 600.547 297.249 595.134 297.246ZM611.707 311.22L603.626 312.762C603.369 312.248 603.064 311.759 602.714 311.299L607.694 304.973C609.486 306.743 610.855 308.865 611.707 311.194V311.22ZM603.626 302.047L598.646 308.373C598.321 308.249 597.989 308.144 597.652 308.057V300.172C599.743 300.439 601.767 301.065 603.626 302.021V302.047ZM592.608 300.137V308.022C592.054 308.17 591.514 308.364 590.994 308.6L585.567 302.634C587.698 301.317 590.099 300.457 592.608 300.111V300.137ZM581.772 305.867L587.199 311.824C586.768 312.456 586.419 313.135 586.159 313.848L577.951 313.323C578.549 310.559 579.863 307.986 581.772 305.841V305.867ZM580.368 326.017C578.783 323.65 577.842 320.939 577.631 318.132L585.84 318.658C586.005 319.398 586.262 320.115 586.606 320.796L580.368 326.017ZM583.697 329.662L589.899 324.458C590.1 324.58 590.31 324.703 590.528 324.817L588.549 332.509C586.781 331.821 585.141 330.859 583.697 329.662ZM595.134 333.735C594.578 333.735 594.031 333.735 593.493 333.657L595.435 325.947C595.916 325.936 596.395 325.889 596.867 325.807L600.516 332.938C598.776 333.468 596.96 333.734 595.134 333.727V333.735ZM605.013 330.818L601.364 323.687C601.656 323.442 601.93 323.178 602.185 322.898L609.591 326.403C608.363 328.132 606.81 329.626 605.013 330.809V330.818ZM604.465 318.553C604.529 318.202 604.575 317.848 604.602 317.493L612.683 315.942C612.683 316.24 612.683 316.529 612.683 316.818C612.671 318.606 612.363 320.38 611.771 322.075L604.465 318.553Z" fill="white" stroke="#263238" stroke-linecap="round" stroke-linejoin="round"/>
<path d="M662.183 295.494C659.447 293.909 654.229 291.272 654.229 291.272C654.229 291.272 650.38 282.844 647.097 279.944C644.412 277.707 641.234 276.084 637.802 275.195C636.434 274.932 542.342 263.605 542.342 263.605C542.342 263.605 495.16 238.829 489.952 236.446C484.744 234.063 474.309 231.189 469.886 231.435C465.462 231.68 305.845 228.544 305.845 228.544L164.297 228.272C164.297 228.272 137.964 229.595 122.34 234.335C106.716 239.074 98.7534 242.526 92.9798 247.309C87.2062 252.093 80.3564 258.374 80.3564 258.374L21.6538 264.13C21.6538 264.13 12.6058 266.233 10.7087 272.295C8.8115 278.358 6.84138 287.609 6.84138 287.609C6.84138 287.609 1.6333 289.195 1.08605 292.621C0.538788 296.046 2.72782 311.062 4.09597 312.114C5.46411 313.165 22.4747 315.014 22.4747 315.014C25.079 317.026 28.215 318.303 31.5318 318.702C36.0102 319.315 55.2464 320.095 63.5829 320.41C63.5829 319.692 63.5191 318.982 63.5191 318.255C63.5191 299.332 78.4045 283.991 96.7011 283.991C114.998 283.991 129.819 299.314 129.765 318.273C129.765 319.149 129.719 320.025 129.646 320.945L559.818 323.704C559.697 321.889 559.712 320.068 559.864 318.255C561.487 299.332 577.631 283.991 595.937 283.991C614.243 283.991 627.769 299.314 626.164 318.273C626.037 319.744 625.821 321.206 625.517 322.653H625.973C625.973 322.653 653.673 319.762 656.145 319.49C658.617 319.219 662.73 312.376 663.551 307.637C664.372 302.897 664.919 297.062 662.183 295.494Z" fill="#179177" stroke="#263238" stroke-linecap="round" stroke-linejoin="round"/>
<path d="M647.096 279.935H633.552C633.342 279.935 633.134 279.975 632.94 280.053C632.746 280.13 632.571 280.244 632.423 280.388C632.275 280.531 632.159 280.701 632.08 280.888C632.002 281.075 631.962 281.275 631.965 281.477V289.616C631.965 289.816 632.006 290.013 632.086 290.198C632.166 290.382 632.283 290.55 632.43 290.691C632.578 290.831 632.753 290.943 632.945 291.019C633.138 291.094 633.344 291.133 633.552 291.131H654.22C654.22 291.131 649.942 282.914 647.096 279.935Z" fill="white" stroke="#263238" stroke-linecap="round" stroke-linejoin="round"/>
<path d="M632.457 287.969H644.898V290.956H634.3C632.64 290.956 632.202 289.537 632.476 287.969H632.457Z" fill="#BDBDBD" stroke="#263238" stroke-linecap="round" stroke-linejoin="round"/>
<path d="M662.183 295.485H620.664" stroke="#263238" stroke-linecap="round" stroke-linejoin="round"/>
<path d="M2.56372 291.096H73.9262" stroke="#263238" stroke-linecap="round" stroke-linejoin="round"/>
<path d="M69.0737 290.895C69.0737 290.895 81.9525 276.877 104.545 279.339C127.138 281.801 135.556 303.677 135.556 318.676" stroke="#263238" stroke-linecap="round" stroke-linejoin="round"/>
<path d="M563.321 296.782C563.321 296.782 576.628 278.936 597.524 280.758C618.42 282.581 623.92 295.967 623.92 295.967" stroke="#263238" stroke-linecap="round" stroke-linejoin="round"/>
<path d="M568.483 297.387H130.303C130.303 297.387 135.775 306.796 135.246 320.945L559.846 323.669C559.724 321.854 559.74 320.033 559.891 318.22C560.551 310.613 563.541 303.364 568.483 297.387Z" fill="#BDBDBD" stroke="#263238" stroke-linecap="round" stroke-linejoin="round"/>
<path d="M437.707 232.293C437.707 232.293 452.063 265.751 454.17 296.572" stroke="#263238" stroke-linecap="round" stroke-linejoin="round"/>
<path d="M542.306 263.605H532.911C532.911 263.605 506.095 247.09 498.251 242.833C490.407 238.575 475.029 232.898 469.329 232.696L469.84 231.452" stroke="#263238" stroke-linecap="round" stroke-linejoin="round"/>
<path d="M536.724 267.17C536.724 267.17 546.438 276.904 546.438 287.855C546.438 298.806 545.8 313.612 542.844 321.313" stroke="#263238" stroke-linecap="round" stroke-linejoin="round"/>
<path d="M195.116 229.656L195.326 232.083C195.326 232.083 199.549 284 200.607 290.29C201.665 296.581 200.178 319.087 200.178 319.087" stroke="#263238" stroke-linecap="round" stroke-linejoin="round"/>
<path d="M492.779 243.849C488.976 241.413 478.003 237.97 471.874 237.156C465.744 236.341 455.83 235.132 452.665 235.132H439.604L436.439 235.333L189.206 232.898C189.206 232.898 161.122 233.099 156.48 233.713C151.837 234.326 133.468 237.357 128.205 241.597C122.942 245.838 121.236 260.056 121.236 260.056L448.907 264.113H527.238C527.238 264.113 496.61 246.284 492.779 243.849Z" fill="#263238" stroke="#263238" stroke-linecap="round" stroke-linejoin="round"/>
<path d="M428.567 263.876L448.889 264.13H527.22C527.22 264.13 496.61 246.284 492.779 243.849C488.948 241.413 478.003 237.97 471.873 237.156C465.744 236.341 455.83 235.132 452.665 235.132H439.604L436.439 235.333L420.322 235.176L428.567 263.876Z" fill="white" stroke="#263238" stroke-linecap="round" stroke-linejoin="round"/>
<path d="M492.779 243.849C488.976 241.413 478.003 237.97 471.874 237.156C465.745 236.341 455.83 235.132 452.665 235.132H441.355L444.21 244.883C444.21 244.883 458.193 244.12 464.276 246.906C470.36 249.692 483.275 259.321 483.275 259.321C482.425 260.282 481.803 261.409 481.451 262.623C481.398 263.143 481.502 263.666 481.752 264.13H527.238C527.238 264.13 496.61 246.284 492.779 243.849ZM474.282 244.883C477.475 244.129 480.773 243.872 484.05 244.12C488.793 244.629 517.798 260.591 521.246 263.394L498.562 262.886L474.282 244.883Z" fill="#263238" stroke="#263238" stroke-linecap="round" stroke-linejoin="round"/>
<path d="M443.088 235.132H439.604L436.439 235.333L417.176 235.141C419.127 239.977 423.898 258.427 425.284 263.832L448.889 264.13H454.927C451.197 254.318 445.35 240.476 443.088 235.132Z" fill="#4C4C4C" stroke="#263238" stroke-linecap="round" stroke-linejoin="round"/>
<path d="M136.396 237.944C132.902 239.022 129.874 240.257 128.187 241.615C122.906 245.873 121.218 260.074 121.218 260.074L132.848 260.214L136.396 237.944Z" fill="#4C4C4C" stroke="#263238" stroke-linecap="round" stroke-linejoin="round"/>
<path d="M329.331 234.273L301.503 234.002C303.51 240.826 306.976 255.983 308.463 262.387L337.203 262.746C335.278 253.442 330.891 239.241 329.331 234.273Z" fill="#4C4C4C" stroke="#263238" stroke-linecap="round" stroke-linejoin="round"/>
<path d="M215.921 233.161L189.47 232.898L189.653 260.933L220.19 261.318C219.214 252.706 216.797 238.286 215.921 233.161Z" fill="#4C4C4C" stroke="#263238" stroke-linecap="round" stroke-linejoin="round"/>
<path d="M476.334 275.081H460.5V276.904H476.334V275.081Z" fill="#263238"/>
<path d="M135.575 270.009H119.741V271.831H135.575V270.009Z" fill="#263238"/>
<path d="M110.246 278.726C109.751 278.058 109.403 277.3 109.221 276.499C109.039 275.698 109.028 274.87 109.188 274.065C109.607 271.025 114.04 246.284 117.397 242.228C120.61 238.158 125.02 235.106 130.057 233.467" stroke="#263238" stroke-linecap="round" stroke-linejoin="round"/>
<path d="M21.6539 264.13C21.6539 264.13 12.6059 266.233 10.7087 272.295C8.81156 278.358 6.84143 287.609 6.84143 287.609H13.9284C13.9284 287.609 16.008 273.408 21.663 264.157L21.6539 264.13Z" fill="white" stroke="#263238" stroke-linecap="round" stroke-linejoin="round"/>
<path d="M199.914 253.065C199.631 253.066 199.357 252.965 199.148 252.782C198.938 252.599 198.808 252.346 198.783 252.075L197.461 238.645C197.447 238.502 197.463 238.358 197.507 238.221C197.551 238.084 197.624 237.957 197.719 237.847C197.815 237.737 197.933 237.647 198.065 237.581C198.198 237.515 198.342 237.474 198.491 237.462C198.639 237.448 198.789 237.462 198.931 237.503C199.074 237.545 199.206 237.614 199.321 237.705C199.436 237.796 199.53 237.909 199.599 238.035C199.668 238.162 199.71 238.301 199.723 238.443L201.045 251.874C201.059 252.016 201.043 252.159 201 252.296C200.956 252.432 200.884 252.559 200.789 252.668C200.695 252.778 200.578 252.869 200.447 252.936C200.315 253.002 200.171 253.043 200.024 253.057L199.914 253.065Z" fill="white"/>
<path d="M203.344 253.065C203.06 253.066 202.787 252.965 202.577 252.782C202.368 252.599 202.238 252.346 202.213 252.075L200.908 238.645C200.88 238.358 200.973 238.072 201.164 237.85C201.356 237.629 201.631 237.489 201.93 237.462C202.229 237.436 202.526 237.524 202.757 237.708C202.988 237.892 203.133 238.157 203.161 238.443L204.484 251.874C204.498 252.016 204.482 252.159 204.438 252.296C204.394 252.432 204.323 252.559 204.228 252.669C204.133 252.778 204.017 252.869 203.885 252.936C203.754 253.002 203.61 253.043 203.462 253.057L203.344 253.065Z" fill="white"/>
<path d="M206.773 253.065C206.49 253.066 206.216 252.965 206.007 252.782C205.797 252.599 205.667 252.346 205.642 252.075L204.328 238.645C204.301 238.358 204.393 238.072 204.584 237.85C204.776 237.629 205.051 237.489 205.35 237.462C205.649 237.436 205.946 237.524 206.177 237.708C206.408 237.892 206.554 238.157 206.581 238.443L207.904 251.874C207.918 252.016 207.902 252.159 207.858 252.296C207.815 252.432 207.743 252.559 207.648 252.669C207.553 252.778 207.437 252.869 207.305 252.936C207.174 253.002 207.03 253.043 206.882 253.057L206.773 253.065Z" fill="white"/>
<path d="M210.202 253.065C209.919 253.066 209.646 252.965 209.436 252.782C209.227 252.599 209.097 252.346 209.071 252.075L207.758 238.645C207.73 238.358 207.822 238.072 208.014 237.85C208.205 237.629 208.481 237.489 208.78 237.462C209.078 237.436 209.376 237.524 209.607 237.708C209.838 237.892 209.983 238.157 210.011 238.443L211.333 251.874C211.347 252.016 211.332 252.159 211.288 252.296C211.244 252.432 211.173 252.559 211.078 252.669C210.983 252.778 210.866 252.869 210.735 252.936C210.604 253.002 210.46 253.043 210.312 253.057L210.202 253.065Z" fill="white"/>
<path d="M213.678 253.065C213.395 253.064 213.123 252.963 212.914 252.78C212.705 252.597 212.574 252.346 212.547 252.075L211.233 238.645C211.205 238.358 211.297 238.072 211.489 237.85C211.681 237.629 211.956 237.489 212.255 237.462C212.554 237.436 212.851 237.524 213.082 237.708C213.313 237.892 213.458 238.157 213.486 238.443L214.809 251.874C214.823 252.016 214.807 252.159 214.763 252.296C214.719 252.432 214.648 252.559 214.553 252.669C214.458 252.778 214.342 252.869 214.21 252.936C214.079 253.002 213.935 253.043 213.787 253.057L213.678 253.065Z" fill="white"/>
<path d="M314.209 254.59C313.92 254.584 313.642 254.482 313.422 254.302C313.203 254.121 313.055 253.873 313.005 253.6L310.697 240.169C310.668 240.033 310.67 239.892 310.701 239.756C310.732 239.62 310.793 239.492 310.879 239.38C310.964 239.267 311.074 239.174 311.2 239.105C311.326 239.035 311.465 238.992 311.609 238.978C311.916 238.956 312.22 239.044 312.463 239.226C312.705 239.407 312.869 239.668 312.923 239.959L315.23 253.389C315.258 253.526 315.255 253.666 315.223 253.802C315.192 253.937 315.131 254.065 315.045 254.177C314.96 254.289 314.851 254.382 314.726 254.452C314.601 254.521 314.462 254.565 314.318 254.581L314.209 254.59Z" fill="white"/>
<path d="M317.656 254.59C317.367 254.584 317.089 254.482 316.87 254.302C316.65 254.121 316.503 253.873 316.452 253.6L314.145 240.169C314.116 240.033 314.117 239.892 314.148 239.756C314.18 239.62 314.24 239.492 314.326 239.38C314.412 239.267 314.521 239.174 314.647 239.105C314.773 239.035 314.913 238.992 315.057 238.978C315.363 238.956 315.667 239.044 315.91 239.226C316.153 239.407 316.317 239.668 316.37 239.959L318.678 253.389C318.705 253.526 318.703 253.666 318.671 253.802C318.639 253.937 318.578 254.065 318.493 254.177C318.407 254.289 318.298 254.382 318.173 254.452C318.048 254.521 317.909 254.565 317.766 254.581L317.656 254.59Z" fill="white"/>
<path d="M321.068 254.59C320.779 254.584 320.501 254.482 320.281 254.302C320.062 254.121 319.914 253.873 319.864 253.6L317.556 240.169C317.527 240.033 317.529 239.892 317.56 239.756C317.591 239.62 317.652 239.492 317.737 239.38C317.823 239.267 317.933 239.174 318.059 239.105C318.184 239.035 318.324 238.992 318.468 238.978C318.775 238.956 319.079 239.044 319.322 239.226C319.564 239.407 319.728 239.668 319.782 239.959L322.089 253.389C322.118 253.526 322.117 253.667 322.085 253.803C322.054 253.939 321.994 254.067 321.908 254.179C321.822 254.291 321.712 254.385 321.587 254.454C321.461 254.523 321.321 254.567 321.177 254.581L321.068 254.59Z" fill="white"/>
<path d="M324.498 254.59C324.209 254.584 323.931 254.482 323.711 254.302C323.492 254.121 323.344 253.873 323.294 253.6L320.986 240.169C320.957 240.033 320.959 239.892 320.99 239.756C321.021 239.62 321.082 239.492 321.167 239.38C321.253 239.267 321.363 239.174 321.489 239.105C321.614 239.035 321.754 238.992 321.898 238.978C322.205 238.956 322.509 239.044 322.751 239.226C322.994 239.407 323.158 239.668 323.211 239.959L325.519 253.389C325.548 253.526 325.547 253.667 325.515 253.803C325.484 253.939 325.424 254.067 325.338 254.179C325.252 254.291 325.142 254.385 325.017 254.454C324.891 254.523 324.751 254.567 324.607 254.581L324.498 254.59Z" fill="white"/>
<path d="M327.926 254.59C327.638 254.584 327.36 254.482 327.14 254.302C326.921 254.121 326.773 253.873 326.722 253.6L324.415 240.169C324.388 240.033 324.39 239.893 324.422 239.757C324.454 239.622 324.514 239.494 324.6 239.382C324.685 239.27 324.794 239.177 324.919 239.107C325.045 239.037 325.183 238.993 325.327 238.978C325.634 238.956 325.938 239.044 326.18 239.226C326.423 239.407 326.587 239.668 326.64 239.959L328.948 253.389C328.977 253.526 328.975 253.667 328.944 253.803C328.913 253.939 328.852 254.067 328.767 254.179C328.681 254.291 328.571 254.385 328.445 254.454C328.32 254.523 328.18 254.567 328.036 254.581L327.926 254.59Z" fill="white"/>
<path d="M428.175 255.597C427.874 255.585 427.584 255.483 427.346 255.305C427.107 255.128 426.932 254.884 426.843 254.607L422.73 241.177C422.68 241.049 422.661 240.913 422.676 240.777C422.691 240.642 422.738 240.512 422.814 240.397C422.89 240.282 422.993 240.186 423.115 240.116C423.236 240.046 423.373 240.004 423.514 239.994C423.832 239.983 424.145 240.073 424.404 240.251C424.663 240.428 424.854 240.683 424.946 240.975L429.06 254.406C429.111 254.533 429.131 254.67 429.118 254.806C429.105 254.942 429.059 255.073 428.983 255.188C428.908 255.304 428.806 255.401 428.684 255.472C428.563 255.543 428.426 255.586 428.284 255.597H428.175Z" fill="white"/>
<path d="M431.605 255.597C431.304 255.585 431.014 255.483 430.775 255.305C430.537 255.128 430.361 254.884 430.273 254.607L426.196 241.177C426.146 241.049 426.128 240.913 426.142 240.777C426.157 240.642 426.204 240.512 426.28 240.397C426.356 240.282 426.459 240.186 426.581 240.116C426.702 240.046 426.839 240.004 426.981 239.994C427.299 239.981 427.613 240.071 427.872 240.249C428.131 240.426 428.321 240.682 428.413 240.975L432.526 254.406C432.578 254.533 432.598 254.67 432.584 254.806C432.571 254.942 432.525 255.073 432.45 255.188C432.374 255.304 432.272 255.401 432.151 255.472C432.029 255.543 431.892 255.586 431.751 255.597H431.605Z" fill="white"/>
<path d="M435.034 255.597C434.733 255.585 434.443 255.483 434.205 255.305C433.966 255.128 433.791 254.884 433.703 254.607L429.598 241.177C429.548 241.05 429.53 240.914 429.544 240.779C429.558 240.645 429.604 240.515 429.68 240.4C429.755 240.286 429.856 240.189 429.977 240.119C430.097 240.048 430.233 240.006 430.374 239.994C430.692 239.981 431.006 240.071 431.265 240.249C431.524 240.426 431.714 240.682 431.806 240.975L435.919 254.406C435.971 254.533 435.991 254.67 435.977 254.806C435.964 254.942 435.918 255.073 435.843 255.188C435.767 255.304 435.665 255.401 435.544 255.472C435.422 255.543 435.285 255.586 435.144 255.597H435.034Z" fill="white"/>
<path d="M438.464 255.597C438.163 255.585 437.873 255.483 437.634 255.305C437.396 255.128 437.22 254.884 437.132 254.607L433.028 241.177C432.978 241.05 432.959 240.914 432.973 240.779C432.987 240.645 433.034 240.515 433.109 240.4C433.184 240.286 433.286 240.189 433.406 240.119C433.527 240.048 433.662 240.006 433.803 239.994C434.122 239.982 434.436 240.072 434.697 240.25C434.958 240.427 435.15 240.682 435.244 240.975L439.349 254.406C439.4 254.533 439.42 254.67 439.407 254.806C439.394 254.942 439.348 255.073 439.272 255.188C439.197 255.304 439.095 255.401 438.973 255.472C438.852 255.543 438.715 255.586 438.573 255.597H438.464Z" fill="white"/>
<path d="M441.903 255.597C441.6 255.586 441.308 255.485 441.068 255.308C440.827 255.13 440.651 254.886 440.562 254.607L436.457 241.177C436.408 241.05 436.389 240.914 436.403 240.779C436.417 240.645 436.464 240.515 436.539 240.4C436.614 240.286 436.716 240.189 436.836 240.119C436.956 240.048 437.092 240.006 437.233 239.994C437.552 239.982 437.866 240.072 438.127 240.25C438.387 240.427 438.58 240.682 438.674 240.975L442.778 254.406C442.83 254.533 442.85 254.67 442.837 254.806C442.823 254.942 442.777 255.073 442.702 255.188C442.627 255.304 442.524 255.401 442.403 255.472C442.281 255.543 442.145 255.586 442.003 255.597H441.903Z" fill="white"/>
<path d="M511.514 254.257C511.514 254.257 510.456 260.845 511.778 262.623C513.101 264.402 516.53 267.941 520.224 268.195C523.918 268.449 524.967 266.163 524.447 264.901C523.927 263.64 523.389 258.567 520.753 256.535C518.117 254.502 513.894 254.003 511.514 254.257Z" fill="white" stroke="#263238" stroke-linecap="round" stroke-linejoin="round"/>
<path d="M147.094 272.996L150.688 363.698C150.015 364.124 149.459 364.7 149.068 365.377C148.677 366.055 148.463 366.813 148.444 367.588C148.444 370.216 149.119 375.577 149.119 375.577C148.68 376.315 148.372 377.117 148.207 377.952C147.979 379.248 148.654 383.567 148.654 383.567C148.654 383.567 153.607 381.403 156.079 382.052C158.55 382.7 166.622 386.607 166.622 386.607C166.622 386.607 169.769 380.781 169.997 377.969C170.225 375.157 168.173 370.409 168.173 368.683C168.173 366.957 174.02 284.245 174.02 284.245L181.435 365.441L180.085 371.057C180.085 371.057 178.963 375.376 179.41 376.673C179.857 377.969 180.76 385.1 180.76 385.1C180.76 385.1 184.81 387.256 188.859 386.388C192.909 385.521 202.349 382.718 202.349 382.718C202.228 380.561 202.228 378.4 202.349 376.243C202.568 374.079 198.701 366.957 198.974 364.793C199.248 362.629 200.552 271.288 200.552 271.288H146.392L147.094 272.996Z" fill="#263238" stroke="#263238" stroke-linecap="round" stroke-linejoin="round"/>
<path d="M159.682 179.176C159.682 179.176 137.308 184.433 136.761 185.466C136.213 186.5 144.969 220.992 144.969 220.992L143.337 275.397C143.337 275.397 150.57 278.279 162.992 278.673C175.415 279.068 182.639 278.542 188.777 277.491C194.916 276.439 202.541 274.468 202.541 274.468L201.173 221.509C201.173 221.509 208.953 186.115 208.816 185.72C208.679 185.326 189.981 178.51 183.022 178.642C176.063 178.773 159.682 179.176 159.682 179.176Z" fill="#263238" stroke="#263238" stroke-linecap="round" stroke-linejoin="round"/>
<path d="M163.275 174.918L161.323 177.082L158.459 179.308L154.391 186.386L160.666 186.649L155.759 190.451C155.759 190.451 161.624 201.07 164.88 205.003C168.137 208.937 173.217 218.293 173.217 218.293C173.217 218.293 180.167 206.834 182.621 204.083C185.074 201.332 189.005 194.516 190.401 192.808C191.313 191.624 192.09 190.35 192.718 189.006L187.674 186.649L192.316 184.021C192.316 184.021 186.844 179.167 186.032 177.336C185.22 175.505 184.946 174.191 183.442 174.323C181.937 174.454 163.275 174.918 163.275 174.918Z" fill="#4C4C4C" stroke="#263238" stroke-linecap="round" stroke-linejoin="round"/>
<path d="M163.275 174.918L173.208 218.293L183.961 175.444L163.275 174.918Z" fill="white" stroke="#263238" stroke-linecap="round" stroke-linejoin="round"/>
<path d="M163.275 174.918L166.595 189.444L173.481 181.542L180.404 189.619L183.961 175.444L163.275 174.918Z" fill="white" stroke="#263238" stroke-linecap="round" stroke-linejoin="round"/>
<path d="M163.275 169.18V174.918C163.275 174.918 173.208 181.454 173.481 181.542C173.755 181.629 183.961 175.409 183.961 175.409V167.235C183.961 167.235 178.261 172.492 174.84 172.535C171.42 172.579 163.275 169.18 163.275 169.18Z" fill="white" stroke="#263238" stroke-linecap="round" stroke-linejoin="round"/>
<path d="M169.988 185.869L172.651 189.312L170.171 203.54L173.208 218.293L176.884 203.452L175.224 189.312L177.157 185.957L173.481 181.542L169.988 185.869Z" fill="#263238" stroke="#263238" stroke-linecap="round" stroke-linejoin="round"/>
<path d="M176.072 194.385H172.661V195.541H176.072V194.385Z" fill="white"/>
<path d="M178.79 246.293L174.968 248.264C174.968 248.264 170.736 250.621 169.104 251.672C167.471 252.724 161.734 260.845 162.144 261.502C162.814 262.514 163.761 263.329 164.881 263.859C165.793 264.122 167.617 265.304 169.523 265.567C171.429 265.83 173.618 266.215 176.072 264.516C178.525 262.816 181.8 257.831 182.21 257.174C183.005 256.278 183.874 255.446 184.81 254.686L178.79 246.293Z" fill="white" stroke="#263238" stroke-linecap="round" stroke-linejoin="round"/>
<path d="M208.816 185.466C208.816 185.466 210.312 185.729 211.552 188.971C212.793 192.212 217.417 229.744 217.28 231.706C217.088 233.088 216.525 234.398 215.648 235.509L186.461 259.233L177.586 245.216C177.586 245.216 189.735 236.043 192.873 233.555C196.01 231.067 200.516 227.002 200.516 227.002L200.926 219.792L208.816 185.466Z" fill="#263238" stroke="#263238" stroke-linecap="round" stroke-linejoin="round"/>
<path d="M166.249 246.556C167.829 246.781 169.422 246.913 171.019 246.95C171.703 246.819 174.977 246.819 176.619 248.396C178.123 249.66 179.769 250.759 181.526 251.672C181.526 251.672 183.579 252.058 181.937 253.372C180.295 254.686 179.346 254.817 177.841 254.292C176.946 253.977 176.033 253.714 175.105 253.503C175.105 253.503 179.474 256.254 180.295 257.568C181.116 258.883 183.159 260.057 180.432 261.502L177.696 262.939C174.708 263.331 171.699 263.55 168.684 263.596C165.948 263.464 163.357 259.399 162.819 258.225C162.274 257.21 161.633 256.245 160.904 255.343L166.249 246.556Z" fill="white" stroke="#263238" stroke-linecap="round" stroke-linejoin="round"/>
<path d="M136.76 185.466C136.76 185.466 135.255 185.729 134.024 188.971C132.793 192.212 128.159 229.744 128.296 231.706C128.49 233.089 129.056 234.4 129.938 235.509L159.125 259.233L167.991 245.216C167.991 245.216 155.841 236.043 152.704 233.555C149.566 231.067 145.06 227.002 145.06 227.002L144.659 219.792L136.76 185.466Z" fill="#263238" stroke="#263238" stroke-linecap="round" stroke-linejoin="round"/>
<path d="M176.61 224.268C176.612 224.529 176.533 224.784 176.384 225.001C176.235 225.218 176.022 225.388 175.772 225.489C175.522 225.589 175.247 225.617 174.981 225.567C174.715 225.517 174.47 225.393 174.278 225.209C174.085 225.026 173.954 224.792 173.901 224.537C173.847 224.282 173.874 224.017 173.977 223.776C174.08 223.536 174.256 223.33 174.481 223.185C174.706 223.04 174.971 222.963 175.242 222.963C175.603 222.963 175.95 223.1 176.206 223.345C176.462 223.589 176.608 223.921 176.61 224.268Z" fill="white"/>
<path d="M176.61 240.134C176.61 240.394 176.53 240.648 176.379 240.864C176.229 241.08 176.015 241.249 175.765 241.348C175.515 241.448 175.24 241.474 174.975 241.423C174.71 241.372 174.466 241.247 174.275 241.063C174.083 240.88 173.953 240.646 173.9 240.391C173.847 240.136 173.874 239.871 173.978 239.631C174.081 239.391 174.257 239.186 174.482 239.042C174.707 238.897 174.971 238.82 175.242 238.82C175.605 238.82 175.953 238.959 176.209 239.205C176.466 239.451 176.61 239.786 176.61 240.134Z" fill="white"/>
<path d="M149.767 381.622C149.767 381.622 146.118 386.161 143.692 389.183C141.266 392.206 140.774 394.58 143.017 395.447C145.261 396.314 154.035 398.075 157.41 396.095C159.925 394.457 162.193 392.494 164.151 390.261L166.622 386.59C166.622 386.59 164.798 384.216 159.435 381.622C157.949 380.856 156.288 380.455 154.601 380.455C152.914 380.455 151.253 380.856 149.767 381.622Z" fill="#263238" stroke="#263238" stroke-linecap="round" stroke-linejoin="round"/>
<path d="M201.82 381.622C201.82 381.622 205.414 386.161 207.886 389.183C210.357 392.206 210.814 394.58 208.561 395.447C206.308 396.314 197.543 398.075 194.168 396.095C191.653 394.457 189.385 392.494 187.427 390.261L184.956 386.607C184.956 386.607 186.78 384.233 192.152 381.64C193.637 380.872 195.297 380.468 196.984 380.465C198.671 380.462 200.332 380.86 201.82 381.622Z" fill="#263238" stroke="#263238" stroke-linecap="round" stroke-linejoin="round"/>
<path d="M159.864 152.832C159.864 152.832 153.607 148.329 152.503 145.823C151.4 143.318 168.228 130.983 170.618 130.448C173.007 129.914 176.51 129.922 178.343 130.983C180.176 132.043 195.171 144.404 194.898 146.174C194.624 147.944 186.807 153.945 186.807 153.945C185.214 152.277 183.283 150.939 181.133 150.013C178.983 149.087 176.659 148.591 174.302 148.557C169.143 148.498 164.094 149.993 159.864 152.832Z" fill="#263238" stroke="#263238" stroke-linecap="round" stroke-linejoin="round"/>
<path d="M173.755 143.292C170.548 143.271 167.371 143.875 164.414 145.068C161.457 146.26 158.783 148.016 156.553 150.23C158.277 151.684 159.873 152.858 159.873 152.858C164.107 150.032 169.156 148.549 174.312 148.618C176.668 148.652 178.992 149.148 181.142 150.074C183.292 151.001 185.223 152.339 186.816 154.006C186.816 154.006 187.984 153.13 189.443 151.903C186.743 148.312 181.59 143.405 173.755 143.292Z" stroke="#263238" stroke-linecap="round" stroke-linejoin="round"/>
<path d="M159.244 152.508C159.244 152.508 159.964 165.553 160.986 167.515C162.007 169.478 167.826 175.067 169.559 176.338C171.292 177.608 174.768 177.319 176.856 176.443C178.945 175.567 184.919 169.767 185.74 166.044C186.561 162.32 186.561 152.026 186.561 152.026C184.986 150.555 183.112 149.412 181.056 148.669C179 147.926 176.806 147.598 174.612 147.707C167.106 148.092 161.086 150.064 159.244 152.508Z" fill="white" stroke="#263238" stroke-linecap="round" stroke-linejoin="round"/>
<path d="M159.244 152.508C160.683 153.264 162.253 153.762 163.877 153.98C165.884 154.076 171.721 150.248 174.64 150.843C177.559 151.439 181.18 154.865 183.496 154.76C184.155 154.742 184.799 154.573 185.377 154.269C185.954 153.964 186.447 153.532 186.816 153.007C185.686 151.259 184.191 149.754 182.424 148.589C180.658 147.423 178.66 146.622 176.555 146.235C169.304 144.86 161.46 148.785 159.244 152.508Z" fill="#BDBDBD" stroke="#263238" stroke-linecap="round" stroke-linejoin="round"/>
<path d="M169.459 154.444C168.501 153.977 167.414 153.81 166.353 153.967C165.291 154.125 164.307 154.598 163.54 155.32" stroke="#263238" stroke-linecap="round" stroke-linejoin="round"/>
<path d="M177.121 154.374C178.096 154.015 179.15 153.898 180.185 154.034C181.219 154.17 182.202 154.556 183.04 155.154" stroke="#263238" stroke-linecap="round" stroke-linejoin="round"/>
<path d="M167.361 158.746C167.84 158.746 168.228 158.15 168.228 157.414C168.228 156.679 167.84 156.082 167.361 156.082C166.883 156.082 166.495 156.679 166.495 157.414C166.495 158.15 166.883 158.746 167.361 158.746Z" fill="#263238"/>
<path d="M179.465 158.746C179.943 158.746 180.331 158.15 180.331 157.414C180.331 156.679 179.943 156.082 179.465 156.082C178.986 156.082 178.598 156.679 178.598 157.414C178.598 158.15 178.986 158.746 179.465 158.746Z" fill="#263238"/>
<path d="M175.278 156.039V163.687L171.192 163.004" stroke="#263238" stroke-linecap="round" stroke-linejoin="round"/>
<path d="M172.633 163.293C171.652 163.656 170.698 164.083 169.778 164.572C168.774 165.105 167.713 165.534 166.613 165.851C166.203 165.947 165.355 166.306 170.125 167.603C174.895 168.9 180.495 166.85 180.696 166.079C180.696 166.079 180.368 166.131 178.024 165.027C176.777 164.367 175.446 163.863 174.065 163.529L172.633 163.293Z" fill="#263238"/>
<path d="M159.499 155.399C159.499 155.399 157.292 153.095 156.097 155.303C154.902 157.51 156.006 158.93 157.009 160.253C157.772 161.156 158.751 161.869 159.864 162.329L159.499 155.399Z" fill="white" stroke="#263238" stroke-linecap="round" stroke-linejoin="round"/>
<path d="M186.315 155.399C186.315 155.399 188.522 153.095 189.717 155.303C190.912 157.51 189.808 158.93 188.805 160.253C188.037 161.14 187.057 161.837 185.95 162.285L186.315 155.399Z" fill="white" stroke="#263238" stroke-linecap="round" stroke-linejoin="round"/>
</svg>
